<?xml version="1.0" encoding="utf-8"?>
<!-- Generator: Adobe Illustrator 17.0.2, SVG Export Plug-In . SVG Version: 6.00 Build 0)  -->
<!DOCTYPE svg PUBLIC "-//W3C//DTD SVG 1.1//EN" "http://www.w3.org/Graphics/SVG/1.1/DTD/svg11.dtd">
<svg version="1.1" id="Calque_1" xmlns="http://www.w3.org/2000/svg" xmlns:xlink="http://www.w3.org/1999/xlink" x="0px" y="0px"
	 width="58px" height="30px" viewBox="0 0 58 30" enable-background="new 0 0 58 30" xml:space="preserve">
<title>participations / jaune</title>
<desc>Created with Sketch.</desc>
<g id="participations-_x2F_-jaune">
	<g id="noun_623096_cc">
		<path id="Shape" fill="#FFFFFF" d="M49.902,13.298c0.145-0.279,0.128-0.61-0.047-0.873S49.374,12,49.043,12h-4.086
			c-0.331,0-0.637,0.161-0.812,0.425s-0.192,0.594-0.047,0.873c0.548,1.05,1.66,1.702,2.901,1.702S49.354,14.348,49.902,13.298z"/>
		<path id="Shape_1_" fill="#FFFFFF" d="M31.901,13.299c0.146-0.279,0.129-0.61-0.045-0.874C31.681,12.161,31.374,12,31.043,12
			h-4.086c-0.331,0-0.638,0.161-0.812,0.425c-0.175,0.265-0.192,0.595-0.046,0.874C26.649,14.348,27.76,15,28.999,15
			S31.351,14.348,31.901,13.299z"/>
		<path id="Shape_2_" fill="#FFFFFF" d="M13.901,13.298c0.146-0.279,0.129-0.61-0.046-0.873C13.68,12.161,13.374,12,13.043,12H8.957
			c-0.331,0-0.638,0.161-0.812,0.425C7.97,12.69,7.952,13.02,8.099,13.299C8.649,14.348,9.76,15,11,15S13.353,14.348,13.901,13.298z
			"/>
		<path id="Shape_3_" fill="#FFFFFF" d="M9,9.14V7.86C9,7.385,8.552,7,8,7S7,7.385,7,7.86v1.28C7,9.615,7.448,10,8,10
			S9,9.615,9,9.14z"/>
		<path id="Shape_4_" fill="#FFFFFF" d="M14,10c0.552,0,1-0.385,1-0.86V7.86C15,7.385,14.552,7,14,7s-1,0.385-1,0.86v1.28
			C13,9.615,13.448,10,14,10z"/>
		<path id="Shape_5_" fill="#FFFFFF" d="M27,9.14V7.86C27,7.385,26.552,7,26,7s-1,0.385-1,0.86v1.28C25,9.615,25.448,10,26,10
			S27,9.615,27,9.14z"/>
		<path id="Shape_6_" fill="#FFFFFF" d="M32,10c0.553,0,1-0.385,1-0.86V7.86C33,7.385,32.553,7,32,7c-0.553,0-1,0.385-1,0.86v1.28
			C31,9.615,31.447,10,32,10z"/>
		<path id="Shape_7_" fill="#FFFFFF" d="M45,9.14V7.86C45,7.385,44.553,7,44,7s-1,0.385-1,0.86v1.28C43,9.615,43.447,10,44,10
			S45,9.615,45,9.14z"/>
		<path id="Shape_8_" fill="#FFFFFF" d="M50,10c0.553,0,1-0.385,1-0.86V7.86C51,7.385,50.553,7,50,7s-1,0.385-1,0.86v1.28
			C49,9.615,49.448,10,50,10z"/>
		<path id="Shape_9_" fill="#FFFFFF" d="M50.546,16.796c2.395-1.486,4.037-4.464,4.037-7.894C54.582,3.993,51.227,0,47.101,0
			c-4.127,0-7.484,3.993-7.484,8.901c0,3.433,1.645,6.413,4.045,7.898c-2.27,0.911-4.263,2.694-5.615,5.093
			c-1.333-2.367-3.298-4.176-5.602-5.098c2.395-1.486,4.038-4.464,4.038-7.894C36.482,3.993,33.126,0,29,0s-7.484,3.993-7.484,8.901
			c0,3.43,1.642,6.409,4.038,7.894c-2.304,0.921-4.27,2.732-5.602,5.099c-1.352-2.401-3.345-4.185-5.616-5.096
			c2.399-1.484,4.043-4.465,4.043-7.898C18.38,3.993,15.025,0,10.899,0C6.773,0,3.416,3.993,3.416,8.901
			c0,3.43,1.642,6.409,4.038,7.894C3.13,18.526,0,23.409,0,29.157C0,29.623,0.374,30,0.834,30s0.834-0.377,0.834-0.843
			c0-6.261,4.14-11.354,9.23-11.354l0,0c0,0,0,0,0.001,0c3.448,0,6.546,2.312,8.154,6.049c-0.607,1.623-0.952,3.414-0.952,5.304
			c0,0.466,0.374,0.843,0.834,0.843c0.461,0,0.834-0.377,0.834-0.843c0-6.261,4.14-11.354,9.23-11.354l0,0c0,0,0,0,0.001,0
			c5.09,0,9.23,5.093,9.23,11.354c0,0.466,0.373,0.843,0.834,0.843s0.834-0.377,0.834-0.843c0-1.891-0.345-3.683-0.953-5.307
			c1.609-3.736,4.707-6.048,8.154-6.048l0,0c0,0,0,0,0.001,0c5.09,0,9.23,5.093,9.23,11.354c0,0.466,0.373,0.843,0.834,0.843
			S58,29.622,58,29.156C58,23.409,54.871,18.526,50.546,16.796z M5.085,8.901c0-3.979,2.608-7.216,5.815-7.216
			c3.205,0,5.812,3.237,5.812,7.216s-2.607,7.217-5.812,7.217C7.694,16.118,5.085,12.881,5.085,8.901z M23.187,8.901
			c0-3.979,2.608-7.216,5.815-7.216c3.206,0,5.813,3.237,5.813,7.216s-2.607,7.217-5.813,7.217
			C25.796,16.118,23.187,12.881,23.187,8.901z M41.287,8.901c0-3.979,2.609-7.216,5.816-7.216c3.205,0,5.812,3.237,5.812,7.216
			s-2.607,7.217-5.812,7.217C43.896,16.118,41.287,12.881,41.287,8.901z"/>
	</g>
</g>
</svg>
