<?xml version="1.0" encoding="utf-8"?>
<!-- Generator: Adobe Illustrator 17.0.2, SVG Export Plug-In . SVG Version: 6.00 Build 0)  -->
<!DOCTYPE svg PUBLIC "-//W3C//DTD SVG 1.1//EN" "http://www.w3.org/Graphics/SVG/1.1/DTD/svg11.dtd">
<svg version="1.1" id="Calque_1" xmlns="http://www.w3.org/2000/svg" xmlns:xlink="http://www.w3.org/1999/xlink" x="0px" y="0px"
	 width="29px" height="25px" viewBox="0 0 29 25" enable-background="new 0 0 29 25" xml:space="preserve">
<title>icone / menu / dons / unselected</title>
<desc>Created with Sketch.</desc>
<g id="icone-_x2F_-menu-_x2F_-dons-_x2F_-unselected">
	<g id="dons">
		<path id="Shape" fill="#FFFFFF" d="M9.693,0C7.082,0,4.71,0.506,2.969,1.353C1.291,2.175,0.143,3.351,0.067,4.742L0.054,4.754
			c0,0.013,0,0.013,0,0.013C0.042,4.805,0.042,4.843,0.042,4.881v12.013c0,1.442,1.186,2.655,2.927,3.516
			c1.741,0.847,4.113,1.353,6.725,1.353c0.151,0,0.29,0,0.442-0.013c1.653,1.985,4.1,3.237,6.851,3.237h2.334
			c0.076,0,0.151,0.013,0.227,0.013c0.151,0,0.303-0.013,0.454-0.025c0.315-0.013,0.618-0.038,0.921-0.088
			c0.732-0.114,1.438-0.329,2.107-0.607h0.012c0.542-0.24,1.047-0.518,1.526-0.847c0.24-0.164,0.467-0.342,0.694-0.531
			c0.101-0.088,0.214-0.19,0.315-0.291c0.114-0.101,0.214-0.19,0.316-0.304c0.101-0.102,0.202-0.203,0.303-0.317
			c0.088-0.114,0.177-0.215,0.278-0.329c0.278-0.342,0.53-0.696,0.757-1.075c0.063-0.126,0.139-0.24,0.202-0.367v-0.012
			c0.076-0.126,0.139-0.266,0.202-0.392c0.063-0.139,0.126-0.278,0.177-0.417c0.025-0.05,0.05-0.101,0.076-0.152
			c0.025-0.088,0.063-0.164,0.101-0.253c0.038-0.139,0.088-0.278,0.126-0.417c0.265-0.86,0.417-1.771,0.417-2.719
			c0-1.265-0.265-2.453-0.719-3.554c-0.681-1.631-1.817-3.035-3.242-4.021c-0.126-0.088-0.239-0.164-0.366-0.24
			c-0.252-0.152-0.504-0.291-0.77-0.417C23.37,7.6,23.32,7.562,23.257,7.537c-0.202-0.101-0.417-0.177-0.631-0.253
			c-0.126-0.05-0.265-0.101-0.404-0.152H22.21c-0.139-0.038-0.278-0.088-0.417-0.126h-0.013c-0.139-0.038-0.278-0.063-0.429-0.101
			c-0.29-0.05-0.593-0.114-0.896-0.139c-0.29-0.025-0.605-0.05-0.921-0.05h-0.202V4.881c0-0.05,0-0.088-0.013-0.139
			c0,0-0.013,0-0.013-0.013c-0.075-1.379-1.224-2.554-2.902-3.376C14.651,0.506,12.305,0,9.693,0z M9.693,0.721
			c2.511,0,4.794,0.493,6.409,1.277c1.59,0.784,2.485,1.795,2.523,2.833c0,0,0,0.013,0,0.025v0.025c0,0.632-0.354,1.265-0.984,1.846
			h-0.656c-2.258,0-4.34,0.847-5.917,2.263c-0.454,0.025-0.908,0.05-1.375,0.05c-2.523,0-4.794-0.506-6.409-1.29
			C1.67,6.955,0.749,5.93,0.749,4.881c0.012-0.025,0.012-0.05,0-0.063c0.037-1.025,0.946-2.049,2.536-2.82
			C4.9,1.214,7.171,0.721,9.693,0.721z M9.693,1.429c-2.662,0-4.983,0.671-6.346,1.745c-0.151,0.114-0.177,0.354-0.05,0.506
			C3.41,3.819,3.65,3.844,3.789,3.73C4.95,2.82,7.157,2.15,9.693,2.15c2.523,0,4.718,0.67,5.879,1.58
			c0.151,0.114,0.391,0.088,0.504-0.05c0.113-0.152,0.088-0.392-0.05-0.506C14.664,2.099,12.343,1.429,9.693,1.429z M0.749,6.727
			c0.517,0.658,1.287,1.226,2.221,1.682C4.71,9.256,7.082,9.762,9.694,9.762c0.202,0,0.404,0,0.605-0.012
			c-0.808,0.923-1.451,2.011-1.842,3.212c-2.018-0.126-3.835-0.582-5.172-1.239C1.67,10.938,0.762,9.901,0.762,8.852
			c0-0.038,0-0.063,0-0.101V6.727H0.749z M19.546,7.448c0.417,0,0.808,0.013,1.199,0.076c0.025,0,0.038,0.013,0.05,0.013h0.012
			c0.013,0,0.038,0,0.063,0.012c0.214,0.038,0.429,0.076,0.643,0.126c0.038,0.012,0.063,0.012,0.088,0.025h0.013
			c0.038,0.012,0.075,0.025,0.113,0.038c0.088,0.025,0.189,0.05,0.278,0.088c0.088,0.025,0.177,0.05,0.252,0.076
			c0.038,0.013,0.088,0.025,0.126,0.038h0.013c0.126,0.05,0.24,0.101,0.366,0.152c0,0,0,0.012,0.012,0.012
			c0.114,0.05,0.227,0.101,0.341,0.152c0.012,0,0.012,0.012,0.025,0.012c0.114,0.051,0.24,0.114,0.341,0.177
			c0.012,0,0.012,0.013,0.012,0.013c0.113,0.063,0.227,0.126,0.341,0.19c0.038,0.025,0.076,0.05,0.113,0.076
			c0.076,0.05,0.139,0.101,0.214,0.152h0.012c0.101,0.076,0.202,0.152,0.316,0.228c0,0,0,0,0.012,0
			c0.101,0.076,0.189,0.164,0.29,0.253c0.012,0,0.012,0,0.012,0c0.101,0.088,0.202,0.177,0.29,0.266c0,0,0.013,0,0.013,0.013
			c0.088,0.088,0.189,0.177,0.277,0.266c0,0,0.013,0,0.013,0.012c0.088,0.088,0.177,0.177,0.265,0.278c0,0,0.013,0,0.013,0.012
			c0.177,0.19,0.328,0.392,0.492,0.607c0,0,0,0.012,0.013,0.012c0.152,0.215,0.29,0.43,0.429,0.658l0.013,0.012
			c0.114,0.19,0.214,0.392,0.316,0.594c0.013,0.038,0.038,0.063,0.063,0.101c0.063,0.126,0.114,0.253,0.164,0.379
			c0.05,0.126,0.101,0.253,0.151,0.379c0,0.012,0,0.012,0,0.012c0.05,0.126,0.088,0.253,0.126,0.38v0.012
			c0.038,0.126,0.076,0.266,0.114,0.392c0.013,0.025,0.013,0.05,0.025,0.076c0.151,0.658,0.227,1.328,0.227,2.036
			c0,0.721-0.088,1.429-0.252,2.099c-0.038,0.139-0.076,0.278-0.114,0.404c-0.075,0.266-0.177,0.518-0.277,0.771
			c-0.05,0.126-0.114,0.253-0.164,0.379c-0.404,0.86-0.958,1.631-1.615,2.301c-0.567,0.569-1.199,1.062-1.905,1.442
			c-0.227,0.126-0.467,0.253-0.707,0.367c-0.996,0.417-2.094,0.645-3.229,0.658h-0.013c-4.567-0.013-8.263-3.781-8.263-8.421
			C11.271,11.204,14.967,7.448,19.546,7.448z M15.913,7.511c-3.154,1.429-5.362,4.616-5.362,8.346c0,3.705,2.195,6.904,5.324,8.346
			c-4.037-0.556-7.166-4.071-7.166-8.346C8.709,11.571,11.851,8.055,15.913,7.511z M19.534,8.498c-3.079,0-5.702,1.96-6.75,4.716
			c-0.075,0.177,0.025,0.405,0.202,0.468c0.177,0.076,0.404-0.038,0.467-0.228c0.946-2.491,3.305-4.249,6.081-4.249
			c2.788,0,5.16,1.758,6.106,4.249c0.05,0.19,0.278,0.304,0.454,0.228c0.189-0.063,0.29-0.291,0.202-0.468
			C25.262,10.458,22.625,8.498,19.534,8.498z M0.749,10.698c0.517,0.645,1.287,1.214,2.221,1.669
			c1.413,0.683,3.255,1.151,5.286,1.303c-0.177,0.696-0.252,1.429-0.252,2.188c0,0.43,0.025,0.872,0.088,1.29
			c-1.879-0.164-3.545-0.582-4.807-1.201c-1.615-0.784-2.523-1.833-2.523-2.883c0-0.025,0-0.063,0-0.101v-2.263H0.749z
			 M0.749,14.934c0.517,0.645,1.287,1.201,2.221,1.657c1.413,0.683,3.229,1.138,5.248,1.277c0.265,1.163,0.744,2.238,1.388,3.187
			c-2.485-0.013-4.731-0.518-6.321-1.303c-1.628-0.784-2.536-1.808-2.536-2.858L0.749,14.934L0.749,14.934z"/>
	</g>
</g>
</svg>
