<?xml version="1.0" encoding="utf-8"?>
<!-- Generator: Adobe Illustrator 17.0.2, SVG Export Plug-In . SVG Version: 6.00 Build 0)  -->
<!DOCTYPE svg PUBLIC "-//W3C//DTD SVG 1.1//EN" "http://www.w3.org/Graphics/SVG/1.1/DTD/svg11.dtd">
<svg version="1.1" id="Calque_1" xmlns="http://www.w3.org/2000/svg" xmlns:xlink="http://www.w3.org/1999/xlink" x="0px" y="0px"
	 width="24px" height="25px" viewBox="0 0 24 25" enable-background="new 0 0 24 25" xml:space="preserve">
<title>icone / menu / event / unselected</title>
<desc>Created with Sketch.</desc>
<g id="icone-_x2F_-menu-_x2F_-event-_x2F_-unselected">
	<g id="event">
		<polygon id="Shape" fill="#FFFFFF" points="18.015,21.317 16.9,20.023 16.447,20.548 18.015,22.368 20.395,19.605 19.942,19.079 
					"/>
		<path id="Shape_1_" fill="#FFFFFF" d="M5.479,11.842H5.047c-0.244,0-0.442,0.295-0.442,0.658s0.198,0.658,0.442,0.658h0.432
			c0.244,0,0.442-0.295,0.442-0.658S5.723,11.842,5.479,11.842z"/>
		<path id="Shape_2_" fill="#FFFFFF" d="M5.479,15.789H5.047c-0.244,0-0.442,0.295-0.442,0.658s0.198,0.658,0.442,0.658h0.432
			c0.244,0,0.442-0.295,0.442-0.658S5.723,15.789,5.479,15.789z"/>
		<path id="Shape_3_" fill="#FFFFFF" d="M5.479,20.395H5.047c-0.244,0-0.442,0.295-0.442,0.658s0.198,0.658,0.442,0.658h0.432
			c0.244,0,0.442-0.295,0.442-0.658C5.921,20.69,5.723,20.395,5.479,20.395z"/>
		<path id="Shape_4_" fill="#FFFFFF" d="M12.058,11.842h-0.432c-0.244,0-0.442,0.295-0.442,0.658s0.198,0.658,0.442,0.658h0.432
			c0.244,0,0.442-0.295,0.442-0.658S12.302,11.842,12.058,11.842z"/>
		<path id="Shape_5_" fill="#FFFFFF" d="M12.058,15.789h-0.432c-0.244,0-0.442,0.295-0.442,0.658s0.198,0.658,0.442,0.658h0.432
			c0.244,0,0.442-0.295,0.442-0.658S12.302,15.789,12.058,15.789z"/>
		<path id="Shape_6_" fill="#FFFFFF" d="M12.058,20.395h-0.432c-0.244,0-0.442,0.295-0.442,0.658s0.198,0.658,0.442,0.658h0.432
			c0.244,0,0.442-0.295,0.442-0.658C12.5,20.69,12.302,20.395,12.058,20.395z"/>
		<path id="Shape_7_" fill="#FFFFFF" d="M17.547,13.158h0.432c0.244,0,0.442-0.295,0.442-0.658s-0.198-0.658-0.442-0.658h-0.432
			c-0.244,0-0.442,0.295-0.442,0.658C17.105,12.863,17.303,13.158,17.547,13.158z"/>
		<path id="Shape_8_" fill="#FFFFFF" d="M17.547,17.105h0.432c0.244,0,0.442-0.295,0.442-0.658s-0.198-0.658-0.442-0.658h-0.432
			c-0.244,0-0.442,0.295-0.442,0.658C17.105,16.811,17.303,17.105,17.547,17.105z"/>
		<path id="Shape_9_" fill="#FFFFFF" d="M21.38,1.837V0.879C21.38,0.395,20.977,0,20.482,0h-0.743c-0.495,0-0.898,0.395-0.898,0.879
			v0.939h-5.788V0.879C13.052,0.395,12.649,0,12.154,0H11.41c-0.495,0-0.898,0.395-0.898,0.879v0.939H4.724V0.879
			C4.724,0.395,4.321,0,3.826,0H3.083C2.588,0,2.185,0.395,2.185,0.879v0.975C0.937,2.053,0,3.102,0,4.374v18.071
			C0,23.854,1.171,25,2.611,25h18.462c1.44,0,2.611-1.147,2.611-2.556V4.374C23.685,3.066,22.676,1.986,21.38,1.837z M19.522,0.879
			c0-0.117,0.097-0.212,0.216-0.212h0.743c0.119,0,0.216,0.095,0.216,0.212v2.545c0,0.117-0.097,0.212-0.216,0.212h-0.743
			c-0.119,0-0.216-0.095-0.216-0.212V0.879z M11.195,0.879c0-0.117,0.097-0.212,0.216-0.212h0.743c0.119,0,0.216,0.095,0.216,0.212
			v2.545c0,0.117-0.097,0.212-0.216,0.212h-0.743c-0.119,0-0.216-0.095-0.216-0.212V0.879z M2.867,0.879
			c0-0.117,0.097-0.212,0.216-0.212h0.743c0.119,0,0.216,0.095,0.216,0.212v2.545c0,0.117-0.097,0.212-0.216,0.212H3.083
			c-0.119,0-0.216-0.095-0.216-0.212V0.879z M2.185,2.534v0.891c0,0.485,0.403,0.879,0.898,0.879h0.743
			c0.495,0,0.898-0.395,0.898-0.879V2.486h5.788v0.939c0,0.485,0.403,0.879,0.898,0.879h0.743c0.495,0,0.898-0.395,0.898-0.879
			V2.486h5.788v0.939c0,0.485,0.403,0.879,0.898,0.879h0.743c0.495,0,0.898-0.395,0.898-0.879V2.512
			c0.918,0.145,1.622,0.923,1.622,1.862v3.249H0.682V4.374C0.682,3.473,1.319,2.723,2.185,2.534z M21.073,24.332H2.611
			c-1.063,0-1.929-0.847-1.929-1.888V8.29h22.32v14.154C23.002,23.485,22.137,24.332,21.073,24.332z"/>
	</g>
</g>
</svg>
