<?xml version="1.0" encoding="utf-8"?>
<!-- Generator: Adobe Illustrator 17.0.2, SVG Export Plug-In . SVG Version: 6.00 Build 0)  -->
<!DOCTYPE svg PUBLIC "-//W3C//DTD SVG 1.1//EN" "http://www.w3.org/Graphics/SVG/1.1/DTD/svg11.dtd">
<svg version="1.1" id="Calque_1" xmlns="http://www.w3.org/2000/svg" xmlns:xlink="http://www.w3.org/1999/xlink" x="0px" y="0px"
	 width="33px" height="34px" viewBox="0 0 33 34" enable-background="new 0 0 33 34" xml:space="preserve">
<title>New adhérents / jaune</title>
<desc>Created with Sketch.</desc>
<g id="New-adhérents-_x2F_-jaune">
	<g id="noun_690653_cc">
		<path id="Shape" fill="#FFFFFF" d="M3.151,0C1.413,0,0,1.42,0,3.164v22.939c0,1.744,1.413,3.164,3.151,3.164h9.601l3.053,4.573
			c0.144,0.213,0.509,0.213,0.652,0l3.053-4.573h9.638c1.739,0,3.151-1.42,3.151-3.164V3.164C32.3,1.42,30.887,0,29.149,0H3.151z
			 M3.151,0.791h25.998c1.316,0,2.363,1.054,2.363,2.373v22.939c0,1.319-1.047,2.373-2.363,2.373h-9.86
			c-0.13-0.004-0.259,0.065-0.332,0.173l-2.831,4.252l-2.819-4.252c-0.073-0.108-0.202-0.175-0.332-0.173H3.151
			c-1.316,0-2.363-1.054-2.363-2.373V3.164C0.788,1.845,1.835,0.791,3.151,0.791z M16.15,5.908c-1.941,0-3.521,1.787-3.521,3.98
			s1.579,3.98,3.521,3.98c1.941,0,3.521-1.787,3.521-3.98S18.091,5.908,16.15,5.908z M16.15,6.748c1.54,0,2.782,1.4,2.782,3.139
			s-1.242,3.139-2.782,3.139c-1.54,0-2.782-1.4-2.782-3.139S14.61,6.748,16.15,6.748z M16.15,15.425
			c-2.014,0-4.211,0.395-5.945,1.162c-0.867,0.384-1.625,0.858-2.179,1.446c-0.902,1.119-0.991,2.258-0.935,3.56
			c0.141,1.28,1.26,1.522,2.216,1.619c4.087,0.119,9.207,0.119,13.7-0.025c1.081-0.095,2.134-0.436,2.203-1.594
			c0.041-1.28-0.111-2.662-0.935-3.56c-0.553-0.588-1.311-1.062-2.179-1.446C20.102,15.885,17.98,15.438,16.15,15.425L16.15,15.425z
			 M16.15,16.216c1.909,0,4.025,0.392,5.625,1.1c0.8,0.354,1.468,0.781,1.92,1.261c0.787,0.92,0.716,1.85,0.726,2.979
			c-0.072,0.783-0.988,0.793-1.489,0.84c-4.419,0.143-9.54,0.143-13.553,0.025c-0.812-0.055-1.354-0.226-1.502-0.865
			c-0.016-1.087,0.027-2.22,0.726-2.979c0.452-0.48,1.12-0.907,1.92-1.261C12.411,16.659,14.414,16.229,16.15,16.216L16.15,16.216z"
			/>
	</g>
</g>
</svg>
