<?xml version="1.0" encoding="UTF-8"?>
<svg width="23px" height="15px" viewBox="0 0 23 15" version="1.1" xmlns="http://www.w3.org/2000/svg" xmlns:xlink="http://www.w3.org/1999/xlink">
    <!-- Generator: Sketch 50.2 (55047) - http://www.bohemiancoding.com/sketch -->
    <title>les plus vus/actif</title>
    <desc>Created with Sketch.</desc>
    <defs></defs>
    <g id="les-plus-vus/actif" stroke="none" stroke-width="1" fill="none" fill-rule="evenodd">
        <g id="noun_1075538_cc" fill="#FFFFFF" fill-rule="nonzero" stroke="#FFFFFF">
            <path d="M22.8918495,8.37166667 C22.1708464,7.45389744 21.4017764,6.63810256 20.5846395,5.92428205 C20.8730408,5.46539744 21.3537095,4.70058974 21.5940439,3.68084615 C21.6421108,3.42591026 21.4979101,3.11998718 21.2575758,3.069 C21.0172414,3.01801282 20.7288401,3.17097436 20.6807732,3.42591026 C20.4885057,4.24170513 20.1039707,4.90453846 19.8636364,5.3124359 C19.1907001,4.8025641 18.469697,4.34367949 17.7486938,3.93578205 C18.0370951,3.47689744 18.469697,2.71208974 18.7100313,1.74333333 C18.7580982,1.48839744 18.6138976,1.18247436 18.3735632,1.13148718 C18.1332288,1.0805 17.8448276,1.23346154 17.7967607,1.48839744 C17.5564263,2.40616667 17.1238245,3.11998718 16.8834901,3.47689744 C16.0182863,3.069 15.1050157,2.8140641 14.1436782,2.61011538 C14.4320794,2.15123077 14.7685475,1.43741026 15.0088819,0.621615384 C15.0569488,0.366679487 14.9127482,0.0607564101 14.6724138,0.00976923065 C14.3359457,-0.0412179488 14.0475444,0.11174359 13.9994775,0.366679487 C13.7591432,1.38642308 13.2304075,2.10024359 13.03814,2.45715385 C12.5094044,2.40616667 11.9806688,2.35517949 11.5,2.35517949 C10.9231975,2.35517949 10.3944619,2.40616667 9.81765935,2.45715385 C10.0579937,2.04925641 10.2983281,1.48839744 10.4425287,0.825564102 C10.4905956,0.570628205 10.346395,0.264705128 10.1060606,0.213717949 C9.86572623,0.162730769 9.57732497,0.315692308 9.5292581,0.570628205 C9.28892372,1.64135897 8.76018809,2.40616667 8.51985371,2.66110256 C5.34743992,3.42591026 2.4153605,5.36342308 0.10815047,8.32067949 C-0.0360501567,8.52462821 -0.0360501567,8.7795641 0.10815047,8.98351282 C3.08829676,12.8585385 7.12591432,15 11.4519331,15 C15.7779519,15 19.8155695,12.8585385 22.8918495,9.0345 C23.0360502,8.83055128 23.0360502,8.52462821 22.8918495,8.37166667 Z M11.4519331,13.9802564 C7.5585162,13.9802564 3.85736677,12.0937308 1.02142111,8.67758974 C3.85736677,5.26144872 7.5585162,3.37492308 11.4519331,3.37492308 C15.3453501,3.37492308 19.0464995,5.26144872 21.8824451,8.67758974 C19.0464995,12.0937308 15.3453501,13.9802564 11.4519331,13.9802564 Z" id="Shape"></path>
            <path d="M11.5,4 C9.05,4 7,6 7,8.5 C7,11 9,13 11.5,13 C14,13 16,11 16,8.5 C16,6 13.95,4 11.5,4 Z M11.5,11.95 C9.6,11.95 8,10.4 8,8.45 C8,6.5 9.55,4.95 11.5,4.95 C13.45,4.95 15,6.5 15,8.45 C15,10.4 13.4,11.95 11.5,11.95 Z" id="Shape"></path>
            <path d="M12.1429281,6.00387454 C11.8258671,5.95846403 11.5541005,6.32174816 11.6899838,6.59421126 C11.916456,7.18454797 11.2370394,7.77488469 10.6935062,7.45701107 C10.4217396,7.32077952 10.0593841,7.50242159 10.0140897,7.82029521 C9.87820636,8.86473709 10.7388006,10 12.0070448,10 C13.0941113,10 14,9.09178967 14,8.00193727 C14,6.95749539 13.1847002,6.09469558 12.1429281,6.00387454 Z M12.0070448,9.09178967 C11.5541005,9.09178967 11.191745,8.81932657 11.0105673,8.45604244 C11.8258671,8.45604244 12.4599892,7.86570572 12.5958725,7.09372694 C12.9129335,7.27536901 13.0941113,7.63865314 13.0941113,8.00193727 C13.0941113,8.59227399 12.5958725,9.09178967 12.0070448,9.09178967 Z" id="Shape"></path>
        </g>
    </g>
</svg>