<?xml version="1.0" encoding="UTF-8"?>
<svg width="29px" height="25px" viewBox="0 0 29 25" version="1.1" xmlns="http://www.w3.org/2000/svg" xmlns:xlink="http://www.w3.org/1999/xlink">
    <!-- Generator: Sketch 50.2 (55047) - http://www.bohemiancoding.com/sketch -->
    <title>icone / menu / dons / selected</title>
    <desc>Created with Sketch.</desc>
    <defs></defs>
    <g id="icone-/-menu-/-dons-/-selected" stroke="none" stroke-width="1" fill="none" fill-rule="evenodd">
        <g id="dons" fill="#00BFAC" fill-rule="nonzero" stroke="#00BFAC">
            <path d="M9.69330357,0 C7.08169643,0 4.70982143,0.505803571 2.96875,1.35267857 C1.290625,2.175 0.142857143,3.35089286 0.0669642857,4.74196429 L0.0544642857,4.75446429 C0.0544642857,4.76696429 0.0544642857,4.76696429 0.0544642857,4.76696429 C0.0419642857,4.80491071 0.0419642857,4.84285714 0.0419642857,4.88080357 L0.0419642857,16.89375 C0.0419642857,18.3352679 1.22767857,19.5491071 2.96875,20.409375 C4.70982143,21.25625 7.08125,21.7620536 9.69330357,21.7620536 C9.84464286,21.7620536 9.98348214,21.7620536 10.1348214,21.7495536 C11.7875,23.7348214 14.2352679,24.9870536 16.9857143,24.9870536 L19.3196429,24.9870536 C19.3955357,24.9870536 19.4709821,24.9995536 19.546875,24.9995536 C19.6982143,24.9995536 19.85,24.9870536 20.0013393,24.9741071 C20.3165179,24.9616071 20.6196429,24.9361607 20.9223214,24.8857143 C21.6544643,24.771875 22.3607143,24.5571429 23.0294643,24.2785714 L23.0419643,24.2785714 C23.584375,24.0383929 24.0892857,23.7602679 24.5683036,23.4316964 C24.8080357,23.2674107 25.0352679,23.0901786 25.2625,22.9008929 C25.3633929,22.8125 25.4767857,22.7111607 25.5776786,22.6102679 C25.6915179,22.5089286 25.7919643,22.4205357 25.8933036,22.3066964 C25.9941964,22.2049107 26.0950893,22.1040179 26.1959821,21.9901786 C26.284375,21.8763393 26.3727679,21.7754464 26.4736607,21.6616071 C26.7513393,21.3200893 27.0035714,20.9660714 27.2303571,20.5870536 C27.29375,20.4607143 27.3696429,20.346875 27.4321429,20.2205357 L27.4321429,20.2080357 C27.5080357,20.0816964 27.5714286,19.9419643 27.6339286,19.815625 C27.6973214,19.6763393 27.7602679,19.5375 27.8107143,19.3982143 C27.8361607,19.3477679 27.8611607,19.296875 27.8866071,19.2464286 C27.9120536,19.1580357 27.95,19.0821429 27.9879464,18.99375 C28.0254464,18.8544643 28.0758929,18.715625 28.1138393,18.5763393 C28.3790179,17.7160714 28.5303571,16.8058036 28.5303571,15.8575893 C28.5303571,14.5928571 28.2651786,13.4044643 27.8111607,12.3040179 C27.1303571,10.6732143 25.9946429,9.26919643 24.56875,8.28258929 C24.4428571,8.19419643 24.3294643,8.11830357 24.203125,8.04241071 C23.9508929,7.890625 23.6986607,7.75178571 23.4334821,7.625 C23.3700893,7.59955357 23.3196429,7.56160714 23.2566964,7.53660714 C23.0549107,7.43526786 22.8401786,7.35982143 22.6258929,7.28392857 C22.4995536,7.23348214 22.3607143,7.18258929 22.2223214,7.13214286 L22.2098214,7.13214286 C22.0709821,7.09419643 21.9321429,7.04375 21.7933036,7.00580357 L21.7808036,7.00580357 C21.6419643,6.96785714 21.503125,6.94241071 21.3517857,6.90446429 C21.0620536,6.85401786 20.7589286,6.790625 20.45625,6.76517857 C20.1660714,6.73973214 19.8508929,6.71473214 19.5352679,6.71473214 L19.3334821,6.71473214 L19.3334821,4.88125 C19.3334821,4.83080357 19.3334821,4.79285714 19.3209821,4.74196429 C19.3209821,4.74196429 19.3084821,4.74196429 19.3084821,4.72946429 C19.2330357,3.35089286 18.0848214,2.175 16.4066964,1.353125 C14.6513393,0.505803571 12.3049107,0 9.69330357,0 Z M9.69330357,0.720535714 C12.2040179,0.720535714 14.4875,1.21339286 16.1022321,1.99776786 C17.6919643,2.78169643 18.5875,3.79285714 18.6254464,4.83035714 C18.6254464,4.83035714 18.6254464,4.84285714 18.6254464,4.85580357 L18.6254464,4.88125 C18.6254464,5.51339286 18.271875,6.14598214 17.6410714,6.72767857 L16.9852679,6.72767857 C14.7267857,6.72767857 12.6450893,7.57455357 11.0683036,8.99107143 C10.6142857,9.01651786 10.1598214,9.04151786 9.69330357,9.04151786 C7.17008929,9.04151786 4.89910714,8.53571429 3.284375,7.75133929 C1.66964286,6.95491071 0.748660714,5.93035714 0.748660714,4.88080357 C0.761160714,4.85535714 0.761160714,4.83035714 0.748660714,4.81741071 C0.786160714,3.79285714 1.69464286,2.76875 3.284375,1.99776786 C4.89955357,1.21383929 7.17053571,0.720535714 9.69330357,0.720535714 Z M9.69330357,1.42857143 C7.03125,1.42857143 4.70982143,2.09910714 3.34732143,3.17366071 C3.19598214,3.2875 3.17053571,3.52767857 3.296875,3.67946429 C3.41026786,3.81875 3.65,3.84375 3.78883929,3.72991071 C4.94955357,2.81964286 7.15714286,2.14955357 9.69330357,2.14955357 C12.2165179,2.14955357 14.4116071,2.81964286 15.5723214,3.72991071 C15.7236607,3.84375 15.9633929,3.81830357 16.0767857,3.67946429 C16.1901786,3.52767857 16.1651786,3.2875 16.0263393,3.17366071 C14.6642857,2.09910714 12.3428571,1.42857143 9.69330357,1.42857143 Z M0.748660714,6.72723214 C1.26607143,7.38482143 2.03526786,7.95357143 2.96919643,8.409375 C4.71026786,9.25625 7.08169643,9.76205357 9.69375,9.76205357 C9.89553571,9.76205357 10.0973214,9.76205357 10.2991071,9.74955357 C9.49151786,10.6727679 8.84821429,11.7602679 8.45714286,12.9611607 C6.43883929,12.8348214 4.621875,12.3794643 3.28482143,11.7223214 C1.67008929,10.9383929 0.761607143,9.90133929 0.761607143,8.85178571 C0.761607143,8.81383929 0.761607143,8.78839286 0.761607143,8.75044643 L0.761607143,6.72723214 L0.748660714,6.72723214 Z M19.5464286,7.44821429 C19.9629464,7.44821429 20.3540179,7.46071429 20.7450893,7.52410714 C20.7705357,7.52410714 20.7830357,7.53660714 20.7955357,7.53660714 L20.8080357,7.53660714 C20.8205357,7.53660714 20.8459821,7.53660714 20.8709821,7.54910714 C21.0852679,7.58705357 21.3,7.625 21.5142857,7.67544643 C21.5522321,7.68794643 21.5776786,7.68794643 21.6026786,7.70089286 L21.6151786,7.70089286 C21.653125,7.71339286 21.690625,7.72633929 21.7285714,7.73883929 C21.8169643,7.76428571 21.9178571,7.78928571 22.00625,7.82723214 C22.0941964,7.85267857 22.1830357,7.87767857 22.2584821,7.903125 C22.2959821,7.915625 22.3464286,7.92857143 22.384375,7.94107143 L22.396875,7.94107143 C22.5227679,7.99151786 22.6366071,8.04241071 22.7625,8.09285714 C22.7625,8.09285714 22.7625,8.10535714 22.775,8.10535714 C22.8888393,8.15580357 23.0022321,8.20669643 23.115625,8.25714286 C23.128125,8.25714286 23.128125,8.26964286 23.1410714,8.26964286 C23.2549107,8.32053571 23.3808036,8.38392857 23.4821429,8.446875 C23.4946429,8.446875 23.4946429,8.459375 23.4946429,8.459375 C23.6080357,8.52276786 23.7214286,8.58571429 23.8352679,8.64910714 C23.8732143,8.67455357 23.9111607,8.69955357 23.9486607,8.725 C24.0245536,8.77544643 24.0879464,8.82633929 24.1629464,8.87678571 L24.1754464,8.87678571 C24.2767857,8.95267857 24.3772321,9.02857143 24.4910714,9.10446429 C24.4910714,9.10446429 24.4910714,9.10446429 24.5035714,9.10446429 C24.6044643,9.18035714 24.6928571,9.26875 24.7933036,9.35714286 C24.8058036,9.35714286 24.8058036,9.35714286 24.8058036,9.35714286 C24.9071429,9.44553571 25.0075893,9.53392857 25.0959821,9.62276786 C25.0959821,9.62276786 25.1084821,9.62276786 25.1084821,9.63526786 C25.1964286,9.72366071 25.2977679,9.81205357 25.3857143,9.90089286 C25.3857143,9.90089286 25.3982143,9.90089286 25.3982143,9.91339286 C25.4866071,10.0017857 25.575,10.0901786 25.6633929,10.1915179 C25.6633929,10.1915179 25.6758929,10.1915179 25.6758929,10.2040179 C25.8526786,10.39375 26.0035714,10.5964286 26.1678571,10.8111607 C26.1678571,10.8111607 26.1678571,10.8236607 26.1803571,10.8236607 C26.3321429,11.0383929 26.4705357,11.2535714 26.609375,11.48125 L26.621875,11.49375 C26.7357143,11.6834821 26.8361607,11.8857143 26.9375,12.0879464 C26.95,12.1258929 26.9754464,12.1513393 27.0004464,12.1892857 C27.0638393,12.315625 27.1142857,12.4419643 27.1647321,12.56875 C27.2147321,12.6950893 27.265625,12.8214286 27.3160714,12.9482143 C27.3160714,12.9607143 27.3160714,12.9607143 27.3160714,12.9607143 C27.3665179,13.0870536 27.4040179,13.2133929 27.4419643,13.340625 L27.4419643,13.353125 C27.4799107,13.4794643 27.5178571,13.61875 27.5558036,13.7450893 C27.5683036,13.7705357 27.5683036,13.7955357 27.58125,13.8209821 C27.7325893,14.4785714 27.8080357,15.1486607 27.8080357,15.8571429 C27.8080357,16.5776786 27.7200893,17.2857143 27.55625,17.95625 C27.5183036,18.0955357 27.4803571,18.234375 27.4424107,18.3607143 C27.3669643,18.6263393 27.265625,18.8790179 27.1651786,19.1321429 C27.1147321,19.2584821 27.0513393,19.3848214 27.0008929,19.5116071 C26.5973214,20.371875 26.0424107,21.1428571 25.3861607,21.8129464 C24.81875,22.3821429 24.1875,22.8754464 23.48125,23.2544643 C23.2540179,23.3808036 23.0142857,23.5071429 22.7745536,23.6209821 C21.778125,24.0383929 20.6803571,24.265625 19.5450893,24.2785714 L19.5325893,24.2785714 C14.965625,24.2660714 11.2691964,20.4977679 11.2691964,15.8571429 C11.2705357,11.2040179 14.9665179,7.44821429 19.5464286,7.44821429 Z M15.9133929,7.51116071 C12.759375,8.94017857 10.5513393,12.1267857 10.5513393,15.8571429 C10.5513393,19.5620536 12.7464286,22.7616071 15.8754464,24.2026786 C11.8383929,23.6464286 8.709375,20.13125 8.709375,15.8571429 C8.709375,11.5705357 11.8508929,8.05491071 15.9133929,7.51116071 Z M19.5339286,8.49776786 C16.4553571,8.49776786 13.8316964,10.4575893 12.784375,13.2138393 C12.7089286,13.3910714 12.8098214,13.61875 12.9861607,13.6821429 C13.1629464,13.7580357 13.3897321,13.6441964 13.453125,13.4544643 C14.3991071,10.9633929 16.7584821,9.20535714 19.5339286,9.20535714 C22.321875,9.20535714 24.6941964,10.9633929 25.6401786,13.4544643 C25.690625,13.6441964 25.9178571,13.7580357 26.0946429,13.6821429 C26.2839286,13.61875 26.384375,13.3915179 26.2964286,13.2138393 C25.2616071,10.4575893 22.625,8.49776786 19.5339286,8.49776786 Z M0.748660714,10.6982143 C1.26607143,11.3428571 2.03526786,11.9120536 2.96919643,12.3669643 C4.38214286,13.0495536 6.22410714,13.5178571 8.25535714,13.6696429 C8.07857143,14.3651786 8.003125,15.0982143 8.003125,15.8571429 C8.003125,16.2870536 8.02857143,16.7294643 8.09151786,17.146875 C6.21205357,16.9825893 4.54642857,16.5651786 3.28482143,15.9459821 C1.67008929,15.1616071 0.761607143,14.1125 0.761607143,13.0625 C0.761607143,13.0370536 0.761607143,12.9991071 0.761607143,12.9611607 L0.761607143,10.6982143 L0.748660714,10.6982143 Z M0.748660714,14.9339286 C1.26607143,15.5790179 2.03526786,16.1352679 2.96919643,16.590625 C4.38214286,17.2732143 6.19866071,17.7285714 8.21741071,17.8678571 C8.48258929,19.0308036 8.96160714,20.10625 9.60535714,21.0544643 C7.12008929,21.0419643 4.87410714,20.5361607 3.28482143,19.7517857 C1.65714286,18.9678571 0.749107143,17.94375 0.749107143,16.8941964 L0.749107143,14.9339286 L0.748660714,14.9339286 Z" id="Shape"></path>
        </g>
    </g>
</svg>