<?xml version="1.0" encoding="UTF-8"?>
<svg width="26px" height="25px" viewBox="0 0 26 25" version="1.1" xmlns="http://www.w3.org/2000/svg" xmlns:xlink="http://www.w3.org/1999/xlink">
    <!-- Generator: Sketch 50.2 (55047) - http://www.bohemiancoding.com/sketch -->
    <title>star/inactif</title>
    <desc>Created with Sketch.</desc>
    <defs></defs>
    <g id="star/inactif" stroke="none" stroke-width="1" fill="none" fill-rule="evenodd">
        <g id="star" fill="#4A4A4A" fill-rule="nonzero">
            <path d="M5.12229293,16.1270812 L4.08489346,22.1860564 C4.0606268,22.327824 4.04878236,22.4684344 4.04878236,22.6061515 C4.04820459,23.2837429 4.33449333,23.8875573 4.77447088,24.3134389 C5.21415955,24.7401884 5.81100368,24.99971 6.45002558,24.9999993 C6.82095872,25.0002886 7.20460297,24.9105989 7.56715834,24.7196466 L13,21.8591229 L18.4331305,24.7196466 C18.7956859,24.9108882 19.1793302,25.0002886 19.5502633,24.9999993 C20.1889963,24.9994207 20.7858405,24.7398991 21.225818,24.3134389 C21.6657956,23.8875573 21.9517954,23.2837429 21.9515065,22.6061515 C21.9515065,22.4684344 21.9396621,22.327824 21.9153954,22.1860564 L20.8777071,16.1270812 L25.2731493,11.836151 C25.7680157,11.3547197 26.0014378,10.7300741 25.9999933,10.1259704 C25.9997044,9.56642221 25.8067268,9.01989351 25.4519714,8.58446434 C25.0983716,8.14903517 24.5746163,7.82730944 23.9431055,7.73646242 L17.8686419,6.85258461 L15.1522211,1.33984882 C14.9352657,0.898922541 14.6085325,0.558969536 14.230666,0.335323857 C13.8525107,0.110810213 13.425822,0 13,0 C12.574178,0 12.1472004,0.110810213 11.769334,0.335034536 C11.3917564,0.558680214 11.0647343,0.898633219 10.8477789,1.3395595 L8.13135805,6.85258461 L2.0568945,7.73646242 C1.42538371,7.82730944 0.901628422,8.14903517 0.548028603,8.58446434 C0.193273229,9.01989351 0.000295550531,9.56642221 6.66179061e-06,10.1259704 C-0.00143778191,10.7297848 0.231984321,11.3547197 0.726850734,11.836151 L5.12229293,16.1270812 Z M1.19745049,9.11565899 C1.42913926,8.83357033 1.75442798,8.63017717 2.1773611,8.56768368 L8.46993565,7.65198048 C8.60600225,7.63230661 8.72502441,7.54551009 8.78569105,7.42225905 L11.5997563,1.71162721 C11.7462229,1.41565111 11.9539339,1.20271033 12.1968893,1.05776016 C12.4395558,0.913388626 12.7192001,0.839900913 12.9997111,0.840190234 C13.2802221,0.840190234 13.5598664,0.913677948 13.8025329,1.05776016 C14.0454884,1.20271033 14.2531994,1.41565111 14.3996659,1.71162721 L17.2137312,7.42225905 C17.2743978,7.54579942 17.39342,7.63230661 17.5294866,7.65198048 L23.8220611,8.56768368 C24.2449942,8.63017717 24.570283,8.83357033 24.8019717,9.11565899 C25.0325049,9.39774766 25.1613493,9.76142504 25.1607715,10.1259704 C25.1593271,10.5206052 25.016905,10.9109002 24.6872829,11.2346512 L20.1343963,15.6797899 C20.0358853,15.7758447 19.9905298,15.9158764 20.0139297,16.0515683 L21.0888847,22.3281133 C21.1053514,22.4235895 21.1128625,22.5161725 21.1128625,22.6064408 C21.1122847,23.0456312 20.9314404,23.4286931 20.6419739,23.7104925 C20.3525073,23.9917132 19.958752,24.160677 19.5502633,24.1603877 C19.312219,24.1600984 19.0675302,24.1045486 18.8234192,23.9763791 L13.1952888,21.0128569 C13.0736666,20.9489168 12.9266223,20.9489168 12.8050001,21.0128569 L7.17658076,23.9763791 C6.93246978,24.1045486 6.68778101,24.1600984 6.44973669,24.1603877 C6.04124801,24.1609664 5.64749266,23.9917132 5.35802614,23.7104925 C5.06884851,23.4284038 4.88771527,23.0453419 4.88713749,22.6061515 C4.88713749,22.5161725 4.89493749,22.4235895 4.91111526,22.3281133 L5.98607026,16.0512789 C6.00918136,15.9155871 5.96382583,15.7755553 5.86560366,15.6795005 L1.31242821,11.2346512 C0.982517269,10.9109002 0.840384009,10.5208945 0.838650676,10.1259704 C0.838361788,9.76142504 0.966917277,9.39774766 1.19745049,9.11565899 Z" id="Shape"></path>
        </g>
    </g>
</svg>