<?xml version="1.0" encoding="UTF-8"?>
<svg width="14px" height="25px" viewBox="0 0 14 25" version="1.1" xmlns="http://www.w3.org/2000/svg" xmlns:xlink="http://www.w3.org/1999/xlink">
    <!-- Generator: Sketch 50.2 (55047) - http://www.bohemiancoding.com/sketch -->
    <title>accessoires/inactif</title>
    <desc>Created with Sketch.</desc>
    <defs></defs>
    <g id="accessoires/inactif" stroke="none" stroke-width="1" fill="none" fill-rule="evenodd">
        <g id="accessoires" fill="#4A4A4A" fill-rule="nonzero">
            <path d="M11.9937554,5.66599921 L10.3447878,3.77008244 L10.3447878,1.7377002 C10.3447878,0.779462212 9.54859812,0 8.57017011,0 L5.42982992,0 C4.4514019,0 3.65521221,0.779462273 3.65521221,1.7377002 L3.65521221,3.77038041 L2.00624458,5.66599921 C1.58791794,6.14690593 1.219182,6.69395973 0.910380845,7.29226258 C0.11206147,8.83926865 -0.169054057,10.5549199 0.0980665655,12.2532895 L1.81853003,23.1967487 C1.98251408,24.241395 2.88518696,25 3.96492605,25 L10.035074,25 C11.1148131,25 12.0174859,24.2413949 12.18147,23.1967487 L13.9019335,12.2532895 C14.169054,10.5549199 13.8879386,8.83926865 13.0896192,7.29226258 C12.780818,6.69395979 12.4120821,6.146906 11.9937554,5.66599921 Z M4.90136929,1.7377002 C4.90136929,1.45225495 5.13837035,1.22044241 5.42982992,1.22044241 L8.57017011,1.22044241 C8.86162967,1.22044241 9.09863074,1.45225495 9.09863074,1.7377002 L9.09863074,3.38482075 L4.90136929,3.38482075 L4.90136929,1.7377002 Z M2.95485729,6.45737983 L4.56609945,4.60526316 L9.43420477,4.60526316 L11.0451427,6.45737983 C11.182658,6.61529843 11.3140887,6.78215579 11.4385219,6.95735597 L2.56147816,6.95735597 C2.6859113,6.78215579 2.81734193,6.61529843 2.95485729,6.45737983 Z M12.6703798,12.0673627 L10.9499163,23.0108219 C10.8799417,23.4565695 10.4950811,23.7795576 10.035074,23.7795576 L3.96492605,23.7795576 C3.50491888,23.7795576 3.12005834,23.4565694 3.0500837,23.0108219 L1.32962024,12.0673627 C1.12152172,10.7432303 1.30497698,9.40658368 1.8605148,8.17779844 L12.1394852,8.17779844 C12.695023,9.40658368 12.8784782,10.7432303 12.6703798,12.0673627 Z" id="Shape"></path>
        </g>
    </g>
</svg>