<?xml version="1.0" encoding="UTF-8"?>
<svg width="58px" height="30px" viewBox="0 0 58 30" version="1.1" xmlns="http://www.w3.org/2000/svg" xmlns:xlink="http://www.w3.org/1999/xlink">
    <!-- Generator: Sketch 50.2 (55047) - http://www.bohemiancoding.com/sketch -->
    <title>participations / jaune</title>
    <desc>Created with Sketch.</desc>
    <defs></defs>
    <g id="participations-/-jaune" stroke="none" stroke-width="1" fill="none" fill-rule="evenodd">
        <g id="noun_623096_cc" fill="#EDB82F" fill-rule="nonzero">
            <path d="M49.90204,13.2983193 C50.0474769,13.0192077 50.0302541,12.6887755 49.8551557,12.42497 C49.6800574,12.1611645 49.3738745,12 49.0428142,12 L44.9571858,12 C44.6261255,12 44.3199426,12.1611645 44.1448443,12.42497 C43.9697459,12.6887755 43.9525231,13.0192077 44.09796,13.2983193 C44.6462188,14.3481393 45.7580455,15 46.9990432,15 C48.2400408,15 49.3537812,14.3481393 49.90204,13.2983193 Z" id="Shape"></path>
            <path d="M31.901166,13.2992197 C32.047542,13.020108 32.0303213,12.6896759 31.8562008,12.42497 C31.6811237,12.1611645 31.3740212,12 31.043001,12 L26.9569111,12 C26.6258909,12 26.3187884,12.1611645 26.144668,12.42497 C25.9695908,12.6896759 25.9523701,13.020108 26.0987461,13.2992197 C26.6488518,14.3481393 27.7595871,15 28.9994777,15 C30.2393683,15 31.3510603,14.3481393 31.901166,13.2992197 Z" id="Shape"></path>
            <path d="M13.9012367,13.2983193 C14.0476382,13.0192077 14.0304145,12.6887755 13.8553069,12.42497 C13.6801992,12.1611645 13.3740001,12 13.0429223,12 L8.9570777,12 C8.6259999,12 8.3188439,12.1611645 8.14469315,12.42497 C7.96958552,12.6896759 7.95236182,13.020108 8.09876328,13.2992197 C8.64896483,14.3481393 9.75989354,15 11,15 C12.2401065,15 13.3529489,14.3481393 13.9012367,13.2983193 Z" id="Shape"></path>
            <path d="M9,9.14015477 L9,7.85984523 C9,7.38521066 8.552,7 8,7 C7.448,7 7,7.38521066 7,7.85984523 L7,9.14015477 C7,9.61478934 7.448,10 8,10 C8.552,10 9,9.61478934 9,9.14015477 Z" id="Shape"></path>
            <path d="M14,10 C14.552,10 15,9.61478934 15,9.14015477 L15,7.85984523 C15,7.38521066 14.552,7 14,7 C13.448,7 13,7.38521066 13,7.85984523 L13,9.14015477 C13,9.61478934 13.448,10 14,10 Z" id="Shape"></path>
            <path d="M27,9.14015477 L27,7.85984523 C27,7.38521066 26.552,7 26,7 C25.448,7 25,7.38521066 25,7.85984523 L25,9.14015477 C25,9.61478934 25.448,10 26,10 C26.552,10 27,9.61478934 27,9.14015477 Z" id="Shape"></path>
            <path d="M32,10 C32.553,10 33,9.61478934 33,9.14015477 L33,7.85984523 C33,7.38521066 32.553,7 32,7 C31.447,7 31,7.38521066 31,7.85984523 L31,9.14015477 C31,9.61478934 31.447,10 32,10 Z" id="Shape"></path>
            <path d="M45,9.14015477 L45,7.85984523 C45,7.38521066 44.553,7 44,7 C43.447,7 43,7.38521066 43,7.85984523 L43,9.14015477 C43,9.61478934 43.447,10 44,10 C44.553,10 45,9.61478934 45,9.14015477 Z" id="Shape"></path>
            <path d="M50,10 C50.553,10 51,9.61478934 51,9.14015477 L51,7.85984523 C51,7.38521066 50.553,7 50,7 C49.447,7 49,7.38521066 49,7.85984523 L49,9.14015477 C49,9.61478934 49.448,10 50,10 Z" id="Shape"></path>
            <path d="M50.5456821,16.7957183 C52.9411765,15.3097519 54.5823947,12.3319192 54.5823947,8.90146939 C54.5823947,3.99348186 51.2265332,0 47.1013767,0 C42.9745515,0 39.6170213,3.99348186 39.6170213,8.90146939 C39.6170213,12.3344478 41.2624113,15.3148091 43.6620776,16.7999326 C41.3917397,17.7110668 39.3992491,19.4937207 38.0467251,21.8933498 C36.7142261,19.5265923 34.7484355,17.7169668 32.4447226,16.7957183 C34.8402169,15.3097519 36.4822695,12.3319192 36.4822695,8.90146939 C36.4822695,3.99348186 33.126408,0 29.0004172,0 C24.8744264,0 21.5168961,3.99348186 21.5168961,8.90146939 C21.5168961,12.3319192 23.1589487,15.3105948 25.5552774,16.7957183 C23.2515645,17.7169668 21.2849395,19.5274352 19.9532749,21.8950355 C18.6015853,19.4937207 16.6082603,17.7102239 14.337088,16.7990897 C16.7359199,15.3148091 18.3804756,12.3344478 18.3804756,8.90146939 C18.3804756,3.99348186 15.0246141,0 10.8994577,0 C6.77263246,0 3.41593659,3.99348186 3.41593659,8.90146939 C3.41593659,12.3319192 5.05798915,15.3105948 7.4543179,16.7957183 C3.12974552,18.5261147 0,23.4088163 0,29.1571376 C0,29.6232405 0.373800584,30 0.834376304,30 C1.29495202,30 1.66875261,29.6232405 1.66875261,29.1571376 C1.66875261,22.896356 5.80892783,17.8029388 10.8986233,17.8029388 C10.8986233,17.8029388 10.8986233,17.8029388 10.8986233,17.8029388 C10.8986233,17.8029388 10.8986233,17.8029388 10.8994577,17.8029388 C14.3471005,17.8029388 17.4451398,20.1149102 19.0538173,23.8521619 C18.4472257,25.474672 18.1017939,27.2665974 18.1017939,29.1562948 C18.1017939,29.6223977 18.4755945,29.9991571 18.9361702,29.9991571 C19.3967459,29.9991571 19.7705465,29.6223977 19.7705465,29.1562948 C19.7705465,22.8955132 23.9107217,17.8020959 29.0004172,17.8020959 C29.0004172,17.8020959 29.0004172,17.8020959 29.0004172,17.8020959 C29.0004172,17.8020959 29.0004172,17.8020959 29.0012516,17.8020959 C34.090947,17.8020959 38.2311222,22.8955132 38.2311222,29.1562948 C38.2311222,29.6223977 38.6040884,29.9991571 39.0654985,29.9991571 C39.5269086,29.9991571 39.8998748,29.6223977 39.8998748,29.1562948 C39.8998748,27.2657545 39.5544431,25.4729863 38.9470171,23.8496334 C40.5556946,20.1140674 43.6537338,17.8020959 47.1005423,17.8020959 C47.1005423,17.8020959 47.1005423,17.8020959 47.1005423,17.8020959 C47.1005423,17.8020959 47.1005423,17.8020959 47.1013767,17.8020959 C52.1910722,17.8020959 56.3312474,22.8955132 56.3312474,29.1562948 C56.3312474,29.6223977 56.7042136,29.9991571 57.1656237,29.9991571 C57.6270338,29.9991571 58,29.6223977 58,29.1562948 C58,23.4088163 54.8710889,18.5261147 50.5456821,16.7957183 Z M5.08468919,8.90146939 C5.08468919,4.92231619 7.69294952,1.68572472 10.8994577,1.68572472 C14.104297,1.68572472 16.711723,4.92231619 16.711723,8.90146939 C16.711723,12.8806226 14.104297,16.1180569 10.8994577,16.1180569 C7.6937839,16.1180569 5.08468919,12.8806226 5.08468919,8.90146939 Z M23.1873175,8.90146939 C23.1873175,4.92231619 25.7955778,1.68572472 29.0020859,1.68572472 C32.2077597,1.68572472 34.8151856,4.92231619 34.8151856,8.90146939 C34.8151856,12.8806226 32.2077597,16.1180569 29.0020859,16.1180569 C25.7955778,16.1180569 23.1873175,12.8806226 23.1873175,8.90146939 Z M41.2866083,8.90146939 C41.2866083,4.92231619 43.895703,1.68572472 47.1022111,1.68572472 C50.3070505,1.68572472 52.9144764,4.92231619 52.9144764,8.90146939 C52.9144764,12.8806226 50.3070505,16.1180569 47.1022111,16.1180569 C43.895703,16.1180569 41.2866083,12.8806226 41.2866083,8.90146939 Z" id="Shape"></path>
        </g>
    </g>
</svg>