<?xml version="1.0" encoding="UTF-8"?>
<svg width="33px" height="34px" viewBox="0 0 33 34" version="1.1" xmlns="http://www.w3.org/2000/svg" xmlns:xlink="http://www.w3.org/1999/xlink">
    <!-- Generator: Sketch 50.2 (55047) - http://www.bohemiancoding.com/sketch -->
    <title>New adhérents / jaune</title>
    <desc>Created with Sketch.</desc>
    <defs></defs>
    <g id="New-adhérents-/-jaune" stroke="none" stroke-width="1" fill="none" fill-rule="evenodd">
        <g id="noun_690653_cc" fill="#EDB82F" fill-rule="nonzero">
            <path d="M3.15121951,0 C1.41258141,0 0,1.42005357 0,3.16401646 L0,26.1031931 C0,27.847156 1.41258929,29.2672096 3.15121951,29.2672096 L12.7525915,29.2672096 L15.8053354,33.8402099 C15.9489916,34.0532634 16.3140801,34.0532634 16.4577363,33.8402099 L19.5104802,29.2672096 L29.1487805,29.2672096 C30.8874107,29.2672096 32.3,27.847156 32.3,26.1031931 L32.3,3.16401646 C32.3,1.42005357 30.8874186,0 29.1487805,0 L3.15121951,0 Z M3.15121951,0.790974465 L29.1487805,0.790974465 C30.4652497,0.790974465 31.5121951,1.84521174 31.5121951,3.16401646 L31.5121951,26.1031931 C31.5121951,27.4219979 30.4652576,28.4761956 29.1487805,28.4761956 L19.2889101,28.4761956 C19.1588868,28.4722421 19.0296907,28.54127 18.9565549,28.6492398 L16.1253811,32.9009005 L13.3065168,28.6492398 C13.2333809,28.54127 13.1041848,28.4740212 12.9741616,28.4761956 L3.15121951,28.4761956 C1.83474241,28.4761956 0.787804878,27.4219979 0.787804878,26.1031931 L0.787804878,3.16401646 C0.787804878,1.84521174 1.83475029,0.790974465 3.15121951,0.790974465 Z M16.15,5.90781662 C14.2088882,5.90781662 12.629497,7.69491208 12.629497,9.88755639 C12.629497,12.0802007 14.2088882,13.8673041 16.15,13.8673041 C18.0911158,13.8673041 19.670503,12.0802007 19.670503,9.88755639 C19.670503,7.69491208 18.0911158,5.90781662 16.15,5.90781662 Z M16.15,6.74824923 C17.689678,6.74824923 18.931936,8.14837722 18.931936,9.88755639 C18.931936,11.6267356 17.689678,13.0268715 16.15,13.0268715 C14.610326,13.0268715 13.368064,11.6267356 13.368064,9.88755639 C13.368064,8.14837722 14.610326,6.74824923 16.15,6.74824923 Z M16.15,15.4246228 C14.1358547,15.4246228 11.939246,15.8192995 10.2045351,16.5863949 C9.33718159,16.9699624 8.57916361,17.4444996 8.0257622,18.0324624 C7.12380833,19.1517346 7.03448701,20.2907347 7.0902636,21.5920254 C7.23145005,22.8718092 8.35060172,23.1139604 9.30596482,23.2110976 C13.3927026,23.3296232 18.5134343,23.3296232 23.006384,23.186586 C24.0870632,23.0916627 25.139996,22.7504371 25.2097758,21.5922627 C25.2504265,20.3126765 25.0992192,18.9299044 24.2742772,18.0326997 C23.7208679,17.4447368 22.9628657,16.9701996 22.0955043,16.5866321 C20.102295,15.8850065 17.9804095,15.4384995 16.15,15.4246623 L16.15,15.4246228 Z M16.15,16.2156368 C18.05906,16.2156368 20.175419,16.6080996 21.7754192,17.3155764 C22.5754193,17.6694136 23.2437693,18.0961531 23.6956936,18.5763043 C24.4828525,19.4958858 24.4119461,20.4258649 24.4219315,21.5549022 C24.3499262,22.338365 23.4339612,22.3478929 22.9324879,22.3953348 C18.5133949,22.5386092 13.3926632,22.5386092 9.37978213,22.4198464 C8.56808707,22.3645766 8.02565978,22.193865 7.87802909,21.554665 C7.86215482,20.4676533 7.90532652,19.3345044 8.60426701,18.5760671 C9.0561834,18.0959159 9.72454524,17.6691368 10.5245414,17.3153391 C12.4112632,16.6594949 14.4138789,16.2288414 16.15,16.2155972 L16.15,16.2156368 Z" id="Shape"></path>
        </g>
    </g>
</svg>