<?xml version="1.0" encoding="UTF-8"?>
<svg width="37px" height="38px" viewBox="0 0 37 38" version="1.1" xmlns="http://www.w3.org/2000/svg" xmlns:xlink="http://www.w3.org/1999/xlink">
    <!-- Generator: Sketch 50.2 (55047) - http://www.bohemiancoding.com/sketch -->
    <title>icone / menu / Social surfer / unselected</title>
    <desc>Created with Sketch.</desc>
    <defs></defs>
    <g id="icone-/-menu-/-Social-surfer-/-unselected" stroke="none" stroke-width="1" fill="none" fill-rule="evenodd">
        <g id="social-surfer" fill="#4A4A4A" fill-rule="nonzero">
            <path d="M17.6257925,37.440042 C18.4631078,35.1939437 19.4243457,32.8833722 20.0008373,30.5217244 C22.3779754,31.8672901 24.4917779,32.549702 26.2999603,32.549702 C27.5291391,32.549702 28.6276968,32.2378021 29.5797243,31.6144209 C29.7731441,31.4875676 29.8292442,31.2279998 29.7032283,31.03458 C29.5759563,30.8415788 29.3184819,30.7867347 29.1246434,30.913588 C27.0137715,32.2972515 24.0157641,31.8756632 20.2156087,29.672268 C20.8662027,26.736222 21.1973609,23.7235615 21.1973609,20.656057 C21.1973609,13.4882194 19.3418702,6.42672089 15.8310072,0.234774306 C15.8259833,0.226401153 15.8180288,0.221795919 15.8125862,0.213841423 C15.7359719,0.0966172824 15.5957216,0.0237708519 15.4558899,0.0275387707 C15.3181515,0.0308880319 15.1716214,0.113782246 15.1025428,0.234774306 C11.5887492,6.42337163 9.73200256,13.4852888 9.73200256,20.656057 C9.73200256,20.8289626 9.7366078,21.0014495 9.73870109,21.1739365 C7.20540367,19.4168303 4.44644978,18.753258 2.53444031,19.4909327 C1.38480641,19.9347098 0.580983734,20.9248352 0.437384162,22.0748877 C0.319741363,23.0151928 0.66890184,23.8738596 1.37099071,24.3724809 C1.82942084,24.6977779 2.32636746,24.8283991 2.77516846,24.8283991 C3.12432893,24.8283991 3.44418338,24.7492728 3.69286602,24.6207449 C4.07593776,24.4227198 4.29531437,24.1162624 4.29531437,23.7796617 C4.29531437,23.548144 4.10984903,23.3488629 3.87875001,23.3488629 C3.64723233,23.3488629 3.461767,23.5242805 3.461767,23.7553795 C3.44627666,23.7909654 3.33910031,23.8885127 3.12307296,23.947962 C2.97026292,23.9898278 2.4268453,24.0957482 1.85579627,23.6900689 C1.40908856,23.3727264 1.18887464,22.8083759 1.26800093,22.1791335 C1.35047649,21.5180731 1.80597601,20.6702913 2.83587382,20.2721479 C4.58711875,19.5955972 7.35360848,20.3822549 9.7642392,22.2260231 C9.78349745,22.7455773 9.80987289,23.2638754 9.84797073,23.7796617 C9.20365661,23.2132179 8.23572014,22.4420505 7.15390878,21.8550925 C5.25613367,20.8251947 3.85153727,21.1852402 3.16996262,21.8655589 C2.74753705,22.2875658 2.60644943,22.833914 2.8182902,23.2261963 C2.88653139,23.3517936 3.03808546,23.439293 3.17875443,23.4430609 C3.32360997,23.4468288 3.46302297,23.3706331 3.54549853,23.2421052 C3.59238818,23.1633976 3.80297298,23.0587332 4.18562607,23.0926445 C4.88185373,23.1525125 5.74680043,23.6314569 6.10893929,24.5671567 C6.48866178,25.5489089 6.57406794,27.7912392 2.87941421,31.7827212 C2.72199894,31.9522776 2.73204672,32.2172879 2.90202172,32.3742845 C2.98240399,32.4492242 3.08497512,32.4860661 3.18670892,32.4860661 C3.29932783,32.4860661 3.41152808,32.4412697 3.49358498,32.3520956 C7.29708969,28.2433895 7.43985195,25.6866472 6.8897358,24.2653045 C6.39739441,22.9930039 5.21259327,22.3403167 4.25721653,22.2582598 C4.18562607,22.2519799 4.1161289,22.2503053 4.0478877,22.2507239 C4.436402,22.0439071 5.30888453,21.8069468 6.75367207,22.5910926 C8.27088738,23.4150109 9.59217091,24.6647039 9.95640306,25.0239122 C10.4031108,29.3239449 11.5385103,33.4782847 13.2751022,37.4530204 C13.345018,37.6133663 13.6062604,37.9014027 13.966306,37.578199 L15.4717989,36.0668449 L16.9810597,37.5790363 C17.0987025,37.7092389 17.4780063,37.7732935 17.6257925,37.440042 Z M17.1330324,36.5495572 L15.9511619,35.3693613 L15.9511619,14.8254119 C16.8382974,14.6772071 17.5181975,13.9098077 17.5181975,12.981225 C17.5181975,12.0526423 16.8382974,11.2856615 15.9511619,11.1374567 L15.9511619,2.23805114 C18.8373877,7.91044359 20.3596269,14.2384539 20.3596269,20.656057 C20.3596269,26.1806633 19.272373,31.5235721 17.1330324,36.5495572 Z M15.6434485,11.9437914 C16.2153349,11.9437914 16.6813008,12.4093387 16.6813008,12.9816437 C16.6813008,13.5539487 16.2157535,14.019496 15.6434485,14.019496 C15.0711435,14.019496 14.6055962,13.5539487 14.6055962,12.9816437 C14.6055962,12.4093387 15.0707249,11.9437914 15.6434485,11.9437914 Z M15.1138466,1.97345951 L15.1138466,11.1918822 C14.3384926,11.4221439 13.7678623,12.132606 13.7678623,12.9816437 C13.7678623,13.8306814 14.3384926,14.5411434 15.1138466,14.7714051 L15.1138466,35.2353908 L13.7996803,36.5495572 C11.6578277,31.5269214 10.5693179,26.1835939 10.5693179,20.6556383 C10.5693179,14.1363014 12.1380281,7.71032523 15.1138466,1.97345951 Z M36.0203535,31.4754265 C35.9077346,31.2736335 35.6527721,31.2016244 35.4509791,31.3138247 C28.1361927,35.3961554 23.7474046,33.7043598 20.7414427,31.7739294 C20.5463482,31.6487508 20.2876178,31.7056882 20.1628578,31.900364 C20.0380978,32.0950398 20.0946166,32.3537703 20.2892924,32.4789489 C22.0560277,33.6135111 24.2669587,34.6722963 27.1883518,34.6722963 C29.5625593,34.6722963 32.4056634,33.9723007 35.8591703,32.0452196 C36.0605446,31.932182 36.1329724,31.6772195 36.0203535,31.4754265 Z" id="Shape"></path>
        </g>
    </g>
</svg>