<?xml version="1.0" encoding="UTF-8"?>
<svg width="23px" height="26px" viewBox="0 0 23 26" version="1.1" xmlns="http://www.w3.org/2000/svg" xmlns:xlink="http://www.w3.org/1999/xlink">
    <!-- Generator: Sketch 50.2 (55047) - http://www.bohemiancoding.com/sketch -->
    <title>homme/inactif</title>
    <desc>Created with Sketch.</desc>
    <defs></defs>
    <g id="homme/inactif" stroke="none" stroke-width="1" fill="none" fill-rule="evenodd">
        <g id="homme" fill="#4A4A4A" fill-rule="nonzero">
            <path d="M22.5428571,25 L21.4571429,25 C21.2044643,25 21,25.2236328 21,25.5 C21,25.7763672 21.2044643,26 21.4571429,26 L22.5428571,26 C22.7955357,26 23,25.7763672 23,25.5 C23,25.2236328 22.7955357,25 22.5428571,25 Z" id="Shape"></path>
            <path d="M19.6786897,25.3468667 L19.1094934,25.3468667 L19.1094934,23.810345 C19.1094934,20.7119482 17.1102465,17.9538312 14.2176689,16.9973322 L14.2192378,16.9852932 L13.9522114,16.9090731 C13.9515838,16.9089136 13.9509563,16.9085947 13.9503287,16.9084353 L13.5948164,16.8067021 L13.5934828,16.8165884 C13.347558,16.759822 13.1011625,16.7174863 12.8558653,16.6881463 L12.8558653,15.760748 C14.9966269,15.0733315 16.6094542,13.1797073 16.9331179,10.8691844 L16.992736,10.8691844 C17.7825193,10.8691844 18.42514,10.2160511 18.42514,9.4130288 C18.42514,8.61263753 17.7859709,7.96157713 16.9993254,7.95786978 L16.9993254,6.34062335 L16.9993254,5.36506923 L16.9993254,4.3190354 C16.9993254,3.15277145 16.4483283,2.04965223 15.5251887,1.3681357 C14.2948587,0.460509999 12.7312948,0 10.8774847,0 C8.4497717,0 7.02301571,0.872226367 6.25362807,1.60381223 C5.55295814,2.27033988 5.15100645,3.23026729 5.15100645,4.23739374 L5.15100645,5.36506923 L5.15100645,6.34062335 L5.15100645,7.95790965 C4.36412558,7.96181634 3.7251918,8.61271728 3.7251918,9.4130288 C3.7251918,10.2160511 4.36781248,10.8691844 5.15790961,10.8691844 L5.21721395,10.8691844 C5.5409561,13.1798269 7.15386186,15.0735308 9.29478028,15.7608277 L9.29478028,16.689103 C9.00335746,16.7245023 8.70863991,16.7798337 8.41258884,16.8557349 L8.41054925,16.8465662 L8.07951175,16.9482993 L7.79365852,17.0356814 L7.79640408,17.0481589 C4.98321279,18.0457179 3.04083842,20.7801955 3.04083842,23.810345 L3.04083842,25.3468667 L0.321310344,25.3468667 C0.143711064,25.3468667 0,25.4929287 0,25.6734333 C0,25.853938 0.143711064,26 0.321310344,26 L3.04083842,26 L19.1094934,26 L19.6786897,26 C19.8562889,26 20,25.853938 20,25.6734333 C20,25.4929287 19.8562889,25.3468667 19.6786897,25.3468667 Z M13.3792498,17.9354938 C13.3750137,17.9490476 13.3714053,17.9634784 13.3670124,17.9768727 C13.3213575,18.1164767 13.2679365,18.2457162 13.2090243,18.367501 C13.2011014,18.3837655 13.193806,18.4007078 13.1856478,18.4166534 C13.1263434,18.5332957 13.0601359,18.6404504 12.9882804,18.7400309 C12.9769059,18.7557374 12.9657667,18.771683 12.9540784,18.7869908 C12.8811246,18.8828241 12.8017384,18.9700468 12.7165472,19.0491371 C12.7024271,19.0622125 12.6881502,19.0750089 12.6737163,19.0876458 C12.5863287,19.1640254 12.4931361,19.2324721 12.3935111,19.2920689 C12.377979,19.3013971 12.3618978,19.309928 12.3460519,19.3188177 C12.2431322,19.3765808 12.1347213,19.4267298 12.0193289,19.467152 C12.0045028,19.4723343 11.9889707,19.4764403 11.9739877,19.4813436 C11.8536532,19.5206098 11.7278276,19.5521821 11.5943928,19.573031 C11.5836458,19.5747053 11.5721929,19.5754229 11.5613675,19.5769377 C11.4205589,19.5971887 11.2736316,19.6089884 11.1184675,19.6089884 C11.0142927,19.6089884 10.9145108,19.6036865 10.8179451,19.5945576 C10.7857827,19.591528 10.7559736,19.5857875 10.7246741,19.5818011 C10.6619182,19.5737884 10.5993976,19.5656163 10.5399363,19.5538962 C10.5044008,19.54692 10.4709833,19.5376317 10.4366244,19.52934 C10.3846154,19.5168226 10.3326849,19.5042256 10.2831861,19.4889178 C10.2485919,19.4782342 10.2155666,19.4657966 10.1821491,19.4538374 C10.1362588,19.4372938 10.0906823,19.4203515 10.0469885,19.4014559 C10.0144339,19.3873839 9.98297746,19.3721957 9.95167794,19.3568879 C9.91033748,19.3367166 9.86978146,19.315788 9.83063745,19.2935438 C9.80059303,19.2765219 9.7711762,19.258902 9.74230849,19.2407239 C9.70473337,19.2169649 9.66817805,19.1922093 9.63256408,19.1666564 C9.60550059,19.1472028 9.57859397,19.1276693 9.55270715,19.1072589 C9.51803448,19.0799122 9.48477385,19.0513695 9.45214077,19.0224281 C9.42813664,19.0012204 9.40397561,18.9802918 9.38106968,18.958247 C9.34875039,18.927153 9.31815686,18.8946637 9.28779869,18.862015 C9.267403,18.8400101 9.2462229,18.8185233 9.22669012,18.7958805 C9.19523371,18.7595643 9.16597378,18.7216934 9.13671381,18.6838226 C9.12071105,18.6630932 9.10368851,18.6430017 9.08831329,18.6218738 C9.05113039,18.5706484 9.01630086,18.5179879 8.98272644,18.4646099 C8.97723531,18.4557999 8.97088127,18.4474285 8.96546857,18.4385787 C8.92687367,18.3758326 8.89086748,18.3116912 8.85690083,18.2466729 C8.84654609,18.2267408 8.83744648,18.2063304 8.827484,18.1862389 C8.80473497,18.1404351 8.78214283,18.0945914 8.76151182,18.04807 C8.7504511,18.0233542 8.74064548,17.9982797 8.7302123,17.9733647 C8.71240532,17.9308695 8.69467676,17.8883345 8.6785171,17.8454806 C8.66847615,17.8189312 8.65929808,17.7923019 8.64980625,17.7656727 C8.63505862,17.7239749 8.62054629,17.6823567 8.60713222,17.640619 C8.59850327,17.6137905 8.59050191,17.5870816 8.58242208,17.5602929 C8.57536202,17.5367731 8.56885112,17.513333 8.56218328,17.4898132 C8.82191437,17.4228813 9.080155,17.3730114 9.33494407,17.3404823 C9.46359372,17.950084 9.89535449,18.4450366 10.4612561,18.6573527 C10.4673748,18.6596649 10.4734935,18.661977 10.4796122,18.6642094 C10.5677843,18.6961405 10.6586235,18.7216934 10.7524436,18.7392735 C10.7635043,18.7413862 10.7747219,18.7425822 10.7857827,18.7444957 C10.8801519,18.7602818 10.9764038,18.7705668 11.0751659,18.7705668 C11.1739281,18.7705668 11.2701016,18.7602819 11.3644708,18.7444957 C11.3756099,18.7425822 11.386906,18.7413862 11.3978883,18.7392735 C11.4919437,18.7216934 11.5830183,18.6960608 11.6712688,18.6640499 C11.6770737,18.6618972 11.6828002,18.6597446 11.6886051,18.657552 C12.2549774,18.4452757 12.6872873,17.9499245 12.8158585,17.3399242 C13.0425642,17.3683074 13.2705252,17.4098856 13.4981723,17.4642204 C13.4980154,17.4653366 13.4978585,17.4665325 13.4976232,17.4676487 C13.4657745,17.6337226 13.4255323,17.7885946 13.3792498,17.9354938 Z M17.7825194,9.4130288 C17.7825194,9.85344731 17.4317137,10.2125431 16.9993254,10.2160511 L16.9993254,10.0186441 L16.9993254,8.61032541 C17.4317137,8.61383345 17.7825194,8.97261029 17.7825194,9.4130288 Z M5.79362717,4.23739374 C5.79362717,3.41045296 6.12121309,2.62433304 6.69291959,2.08090571 C7.37758675,1.42936695 8.65969034,0.653133318 10.8774848,0.653133318 C12.5926042,0.653133318 14.0294012,1.07154685 15.147398,1.89689307 C15.9045483,2.45562821 16.3567047,3.36102151 16.3567047,4.31903543 L16.3567047,5.0834693 C15.6083403,4.1506495 14.0250083,3.00702838 10.7601312,3.00702838 C7.875555,3.00702838 6.47421517,3.89870845 5.79362717,4.75913505 L5.79362717,4.23739374 Z M5.15100648,10.2160511 C4.71861815,10.2122242 4.36781252,9.85344731 4.36781252,9.4130288 C4.36781252,8.97261029 4.71861815,8.61415234 5.15100648,8.61032541 L5.15100648,10.0186441 L5.15100648,10.2160511 Z M5.79362717,10.0186441 L5.79362717,7.95719209 L5.79362717,6.34987181 C5.79425472,6.32276423 5.92353194,3.66016166 10.7601312,3.66016166 C15.4018733,3.66016166 16.2646104,6.07329474 16.3567047,6.38590897 L16.3567047,7.95719209 L16.3567047,10.0186441 C16.3567047,12.4076993 14.8122029,14.435506 12.6854046,15.1293804 L12.4504621,15.1942792 C12.2504275,15.2494511 12.0515697,15.2903517 11.853261,15.3216848 C11.8112145,15.3280232 11.7696387,15.3359562 11.7272785,15.3412581 C11.6534618,15.3510248 11.5797236,15.3579213 11.5060638,15.3644191 C11.3827484,15.3745845 11.258727,15.3821985 11.1332152,15.3835938 C11.0947771,15.3840323 11.0562607,15.384112 11.0177442,15.3836336 C10.8918402,15.3822783 10.767505,15.3746244 10.6438758,15.3643793 C10.5703729,15.3579213 10.4968701,15.3510248 10.4232103,15.341298 C10.3807716,15.3359562 10.3391958,15.3280631 10.2970709,15.3216848 C10.0989191,15.2903516 9.90029653,15.2494511 9.70049734,15.1942792 L9.46171103,15.1281845 C7.33663851,14.4332736 5.79362717,12.4065034 5.79362717,10.0186441 Z M11.0751659,16.0397169 C11.4645665,16.0397169 11.8445536,15.9988961 12.2132447,15.9256259 L12.2132447,16.8160702 L12.2107344,16.978596 C12.201321,17.6065353 11.6917429,18.1174335 11.0751659,18.1174335 C10.458589,18.1174335 9.94901084,17.6065353 9.93959745,16.978596 L9.937401,16.8363609 L9.937401,15.9256657 C10.3059352,15.9988961 10.6858439,16.0397169 11.0751659,16.0397169 Z M15.7542478,25.3468667 L15.7542478,22.5984766 C15.7542478,22.417972 15.6105368,22.2719099 15.4329375,22.2719099 C15.2553382,22.2719099 15.1116271,22.417972 15.1116271,22.5984766 L15.1116271,25.3468667 L7.03870475,25.3468667 L7.03870475,22.5984766 C7.03870475,22.417972 6.89499368,22.2719099 6.7173944,22.2719099 C6.53979512,22.2719099 6.39608406,22.417972 6.39608406,22.5984766 L6.39608406,25.3468667 L3.68345914,25.3468667 L3.68345914,23.810345 C3.68345914,21.0779006 5.4202294,18.6047322 7.94584167,17.680523 C7.97627831,17.787598 8.00961737,17.8913244 8.04530981,17.9921008 C8.05660586,18.0242313 8.06978463,18.0541692 8.08170823,18.085622 C8.10743815,18.1537497 8.13316807,18.2219572 8.16140827,18.2870154 C8.17756793,18.3244876 8.19561024,18.3597275 8.21263278,18.3962031 C8.23891182,18.4524514 8.26495554,18.5089388 8.2930388,18.5627952 C8.31265004,18.6001478 8.33375171,18.6354275 8.35422583,18.6716242 C8.38230909,18.7213746 8.41023549,18.7711648 8.43996612,18.8186429 C8.46247982,18.8544808 8.48624862,18.8884848 8.50970363,18.923047 C8.53982648,18.967615 8.57010622,19.0120635 8.60179796,19.0544789 C8.62705722,19.0882039 8.65333627,19.1202945 8.67953687,19.1526243 C8.71193463,19.192608 8.74456771,19.232193 8.77837746,19.2701436 C8.8060685,19.3010782 8.83462245,19.3308168 8.86325487,19.360396 C8.89808439,19.3963534 8.93338461,19.4316331 8.96962617,19.4655176 C8.99959212,19.4935022 9.03010718,19.52053 9.06101448,19.5470795 C9.09835424,19.5790904 9.13632159,19.6101047 9.17499492,19.6400426 C9.20707888,19.6649576 9.23963353,19.689195 9.27273727,19.7126351 C9.31258727,19.7407791 9.35330018,19.7676475 9.39456221,19.7937187 C9.42860729,19.8152453 9.46280927,19.8365726 9.49779572,19.8566641 C9.54046975,19.8811406 9.58408513,19.903903 9.62809272,19.926187 C9.66394206,19.9443252 9.69963446,19.9626228 9.73634671,19.9793259 C9.78200163,20.0000552 9.82883326,20.0187116 9.87574331,20.0372085 C9.91292621,20.0518387 9.94979532,20.066987 9.9878411,20.080182 C10.0371045,20.0973236 10.0877799,20.1119139 10.1383769,20.1266636 C10.1761873,20.1375863 10.2133702,20.1495057 10.2518867,20.1591129 C10.306249,20.1727066 10.3622587,20.1832706 10.4181114,20.1941933 C10.4549806,20.2013689 10.4910652,20.2098998 10.5285619,20.2159193 C10.5912394,20.225965 10.6557211,20.2325426 10.7202028,20.2392397 C10.7528359,20.242668 10.7846061,20.2478105 10.8177098,20.2503618 C10.9160797,20.2579759 11.0161754,20.2621217 11.1184676,20.2621217 C11.2222502,20.2621217 11.3234441,20.2578164 11.4225985,20.2500828 C11.4556238,20.2475315 11.4871586,20.2423491 11.5197133,20.2389208 C11.5846657,20.2320642 11.6496965,20.2252873 11.7126093,20.2150821 C11.7505767,20.2088633 11.7868967,20.2001729 11.824158,20.1927582 C11.8793048,20.1817158 11.9346084,20.1709924 11.9881078,20.1572792 C12.0268596,20.147353 12.064121,20.1351944 12.1020099,20.1238731 C12.151587,20.1090038 12.2012427,20.0942142 12.2493294,20.0769132 C12.2871398,20.0633594 12.3236952,20.0478921 12.3605643,20.0328235 C12.4061408,20.0141671 12.4515604,19.9952715 12.4956464,19.9743827 C12.5321233,19.9570418 12.5675804,19.9381861 12.603116,19.9193304 C12.6448486,19.8970862 12.6862676,19.8743238 12.7265882,19.849927 C12.7614178,19.8289186 12.7953844,19.8067542 12.8290373,19.7841512 C12.8676322,19.7582396 12.9055211,19.7315306 12.9426255,19.7035859 C12.9752586,19.6789898 13.0073426,19.6536362 13.038799,19.6274854 C13.0743345,19.5979461 13.1089287,19.5672109 13.1429738,19.5357182 C13.173332,19.5076539 13.2033764,19.4791909 13.2324795,19.449532 C13.265191,19.4162854 13.2966474,19.381484 13.3277901,19.3462043 C13.3555596,19.3148711 13.3832506,19.2836177 13.409765,19.2506899 C13.4398094,19.2134569 13.4682849,19.1743901 13.4967604,19.1351638 C13.5217059,19.1008009 13.5469652,19.0668367 13.570734,19.030959 C13.5981112,18.9896599 13.6236843,18.9461283 13.6494142,18.9028358 C13.6715357,18.8656825 13.6942062,18.8292866 13.715151,18.7906583 C13.7401749,18.7444558 13.7630024,18.695702 13.786379,18.6473867 C13.8052058,18.6083996 13.8248954,18.5705686 13.842624,18.530266 C13.8665497,18.475692 13.8878867,18.418208 13.9096944,18.3612422 C13.9238929,18.3240889 13.9395034,18.2884504 13.9528391,18.2502606 C13.9862566,18.154507 14.0170854,18.0557238 14.0448549,17.9535123 C14.051209,17.9300722 14.0559941,17.9048781 14.0620344,17.8811191 C14.0818025,17.8037827 14.1014137,17.7262869 14.1178871,17.6454425 C16.6955868,18.5441387 18.4668728,21.028788 18.4668728,23.810345 L18.4668728,25.3468667 L15.7542478,25.3468667 Z" id="Shape"></path>
            <path d="M10.3091005,10.7441884 C10.4730143,10.8450936 10.7610826,10.9580333 11.2025621,10.9281012 C11.2790803,10.9216211 11.3691016,10.9364328 11.4463699,10.9675992 C11.5007578,10.9895083 11.5585214,11 11.6155349,11 C11.7573185,11 11.8938509,10.9351985 11.9606167,10.8234931 C12.0540138,10.6667352 11.9756202,10.4775766 11.7854502,10.400432 C11.5814019,10.3177329 11.358224,10.2831722 11.1361714,10.2986011 C10.9760085,10.3103271 10.8526043,10.2896523 10.7749608,10.2146678 C11.4504959,9.27597203 11.4358674,8.34869371 11.4351172,8.30981281 C11.4309912,8.13731745 11.2595756,8 11.0510262,8 C11.0484006,8 11.045775,8 11.0435245,8 C10.8312242,8.00339437 10.6628093,8.14780908 10.6669353,8.32215592 C10.6673104,8.33017895 10.6793132,9.10717957 10.1140543,9.89251181 C9.90588,10.1816499 9.98952484,10.5479325 10.3091005,10.7441884 Z" id="Shape"></path>
            <path d="M11.4919738,14 C12.7113153,14 12.9782858,12.6124871 12.9891232,12.5533722 C13.0306226,12.326624 12.9497385,12.0922754 12.8083234,12.0230264 C12.6661153,11.9516662 12.5159775,12.0812969 12.4705132,12.3055116 C12.4636407,12.3392915 12.2920923,13.1352324 11.4919738,13.1352324 C10.7130014,13.1352324 10.5483256,12.4038958 10.5311443,12.3152233 C10.4909665,12.0872084 10.3432076,11.9533552 10.2004709,12.0150037 C10.0561482,12.0770744 9.9705062,12.3139565 10.0093623,12.5449272 C10.0194067,12.6040422 10.2681387,14 11.4919738,14 Z" id="Shape"></path>
        </g>
    </g>
</svg>