<?xml version="1.0" encoding="UTF-8"?>
<svg width="25px" height="25px" viewBox="0 0 25 25" version="1.1" xmlns="http://www.w3.org/2000/svg" xmlns:xlink="http://www.w3.org/1999/xlink">
    <!-- Generator: Sketch 50.2 (55047) - http://www.bohemiancoding.com/sketch -->
    <title>icone / menu / utilisateurs / selected</title>
    <desc>Created with Sketch.</desc>
    <defs></defs>
    <g id="icone-/-menu-/-utilisateurs-/-selected" stroke="none" stroke-width="1" fill="none" fill-rule="evenodd">
        <g id="user" fill="#00BFAC" fill-rule="nonzero" stroke="#00BFAC">
            <path d="M12.5,0 C5.625,0 0,5.625 0,12.5 C0,19.375 5.625,25 12.5,25 C19.375,25 25,19.375 25,12.5 C25,5.625 19.375,0 12.5,0 Z M5,21.484375 L5.078125,21.484375 C5.078125,17.3828125 8.3984375,14.0625 12.5,14.0625 C16.6015625,14.0625 19.921875,17.3828125 19.921875,21.484375 L20,21.484375 C17.96875,23.203125 15.3515625,24.21875 12.5,24.21875 C9.6484375,24.21875 7.03125,23.203125 5,21.484375 Z M20.6640625,20.8984375 C20.4296875,17.421875 17.96875,14.53125 14.6875,13.59375 C16.640625,12.734375 17.96875,10.8203125 17.96875,8.59375 C17.96875,5.5859375 15.5078125,3.125 12.5,3.125 C9.4921875,3.125 7.03125,5.5859375 7.03125,8.59375 C7.03125,10.8203125 8.359375,12.734375 10.2734375,13.59375 C6.9921875,14.4921875 4.5703125,17.3828125 4.296875,20.8984375 C2.1484375,18.75 0.78125,15.78125 0.78125,12.5 C0.78125,6.0546875 6.0546875,0.78125 12.5,0.78125 C18.9453125,0.78125 24.21875,6.0546875 24.21875,12.5 C24.21875,15.78125 22.8515625,18.75 20.6640625,20.8984375 Z M12.5,13.28125 C9.921875,13.28125 7.8125,11.171875 7.8125,8.59375 C7.8125,6.015625 9.921875,3.90625 12.5,3.90625 C15.078125,3.90625 17.1875,6.015625 17.1875,8.59375 C17.1875,11.171875 15.078125,13.28125 12.5,13.28125 Z" id="Shape"></path>
        </g>
    </g>
</svg>