<?xml version="1.0" encoding="UTF-8"?>
<svg width="25px" height="29px" viewBox="0 0 25 29" version="1.1" xmlns="http://www.w3.org/2000/svg" xmlns:xlink="http://www.w3.org/1999/xlink">
    <!-- Generator: Sketch 50.2 (55047) - http://www.bohemiancoding.com/sketch -->
    <title>femme/inactif</title>
    <desc>Created with Sketch.</desc>
    <defs></defs>
    <g id="femme/inactif" stroke="none" stroke-width="1" fill="none" fill-rule="evenodd">
        <g id="femme" fill="#4A4A4A" fill-rule="nonzero">
            <path d="M24.5428571,28 L23.4571429,28 C23.2044643,28 23,28.2236328 23,28.5 C23,28.7763672 23.2044643,29 23.4571429,29 L24.5428571,29 C24.7955357,29 25,28.7763672 25,28.5 C25,28.2236328 24.7955357,28 24.5428571,28 Z" id="Shape"></path>
            <path d="M14.7444537,14.0114282 C14.5548597,13.9755338 14.3550459,14.040777 14.2940798,14.1526829 C14.2849172,14.1695743 14.0562062,14.567579 12.9894755,14.567579 C11.9505848,14.567579 11.7310363,14.2018792 11.70813,14.157328 C11.6545644,14.0437331 11.4579222,13.9768007 11.267271,14.0074164 C11.0748577,14.0384545 10.9606784,14.1569057 11.012482,14.272401 C11.0258734,14.301961 11.3574867,15 12.9894755,15 C14.615121,15 14.9710503,14.3061839 14.9854989,14.2766239 C15.0408265,14.16324 14.9329905,14.0460556 14.7444537,14.0114282 Z" id="Shape"></path>
            <path d="M20.6670014,28 L21.6465586,28 C21.8419178,28 22,27.8440339 22,27.6512898 C22,27.4585457 21.8419178,27.3025796 21.6465586,27.3025796 L21.0204427,27.3025796 L21.0204427,25.6618708 C21.0204427,24.0589616 20.5143554,22.5471462 19.6249706,21.2930749 L19.6249706,11.5341267 C20.0126688,11.2506719 20.267654,10.7998431 20.267654,10.2883135 C20.267654,9.77678387 20.0126689,9.32595502 19.6249706,9.04250027 L19.6249706,7.3528818 C19.6249706,3.29844448 16.2817741,0 12.1723278,0 C8.06288144,0 4.71968496,3.29844448 4.71968496,7.3528818 L4.71968496,9.05939943 C4.34415349,9.34383322 4.09771098,9.7863189 4.09771098,10.2883135 C4.09771098,10.7901378 4.34398091,11.2324958 4.71933982,11.5169295 L4.71933982,21.3216375 C3.84263951,22.5699622 3.34492226,24.0712209 3.34492226,25.6618707 L3.34492226,27.3025795 L0.353441378,27.3025795 C0.15808217,27.3025795 0,27.4585456 0,27.6512898 C0,27.8440339 0.15808217,28 0.353441378,28 L3.69836364,28 L20.6670014,28 Z M18.9180878,11.8428663 L18.9180878,20.4356445 C18.4436687,19.9387155 17.8994415,19.501125 17.294035,19.1377717 C17.2930859,19.1372183 17.2922229,19.1365798 17.2912738,19.1359838 C17.2184455,19.0923099 17.1438052,19.0512752 17.0692512,19.0097296 C16.9820989,18.9608625 16.8940837,18.9135279 16.805033,18.867981 C16.7485997,18.8392907 16.6923391,18.8105579 16.6350429,18.7831021 C16.4802397,18.7086947 16.3237108,18.6375224 16.1637302,18.573246 C15.9990037,18.5070115 15.8330692,18.4464809 15.666013,18.3916544 C15.1650167,18.2272175 14.6547875,18.114457 14.1414519,18.0549481 L14.1414519,17.0627075 C15.0197916,16.787298 15.8139993,16.3291901 16.4878332,15.7392944 C16.5081975,15.7215013 16.5280441,15.70324 16.5481495,15.6851915 C16.8480052,15.4161245 17.1215426,15.1207934 17.3664318,14.8014546 C17.3952525,14.7638252 17.4242457,14.7263661 17.4522898,14.6881408 C17.5234785,14.5909174 17.5924238,14.4925021 17.65809,14.3913625 C17.6831139,14.3528818 17.7061532,14.3131241 17.7304005,14.2741325 C17.8478404,14.0845384 17.9552707,13.8889848 18.0526914,13.687259 C18.0734872,13.6441385 18.0959224,13.6018267 18.115769,13.5581954 C18.1625378,13.4554383 18.2051648,13.3508507 18.2464974,13.2453693 C18.2706584,13.1837746 18.2934388,13.1216266 18.3157015,13.0591805 C18.3529785,12.9548059 18.3899967,12.8506014 18.4217511,12.7438004 C18.4413388,12.6784173 18.4562669,12.6112888 18.4736974,12.5450543 C18.5202936,12.3679749 18.5596416,12.1885118 18.5908784,12.0058986 C18.6002839,11.9513701 18.6126233,11.8978206 18.620562,11.8428664 L18.6920096,11.8428664 L18.9180878,11.8428663 Z M15.4485637,19.2310789 C15.4258696,19.2700704 15.4024851,19.3094876 15.3784967,19.3491602 C15.3572695,19.3843207 15.3356108,19.4196089 15.3134345,19.455195 C15.2879791,19.4958892 15.2614883,19.5368814 15.2347385,19.5780013 C15.2116993,19.6133746 15.18866,19.6487479 15.1646715,19.684334 C15.1355057,19.7275397 15.1047867,19.7708305 15.0742402,19.8141639 C15.0505106,19.8476643 15.0272988,19.8811646 15.0027063,19.9146224 C14.9673277,19.9627233 14.9301369,20.0105262 14.8930325,20.0583292 C14.8709424,20.086764 14.8498015,20.1154543 14.8271074,20.1436763 C14.7679129,20.2171898 14.70682,20.2900648 14.643311,20.3615776 C14.6354587,20.3705168 14.6270886,20.3791153 14.6190637,20.3880119 C14.5597829,20.453991 14.4990351,20.5189059 14.4360439,20.5822458 C14.4124869,20.6059557 14.3874629,20.6284312 14.3633882,20.6517155 C14.3161016,20.69739 14.2686424,20.7428943 14.2193712,20.7865683 C14.1902054,20.8124491 14.1597452,20.8369252 14.1298891,20.8620398 C14.0835517,20.9010314 14.0368691,20.9396823 13.9888059,20.9765881 C13.9561885,21.0017027 13.922622,21.0254126 13.8891417,21.0494631 C13.8415099,21.0836871 13.7933605,21.1171449 13.7440892,21.1490702 C13.7088831,21.1719714 13.673073,21.1937657 13.6370041,21.2153047 C13.5871288,21.2451443 13.5364769,21.2735366 13.4851347,21.3006945 C13.4478577,21.3204456 13.4102355,21.3396434 13.3721819,21.3578621 C13.3193728,21.3831471 13.2653556,21.4061759 13.2109933,21.4283534 C13.1723356,21.4441458 13.1338506,21.4601085 13.0944163,21.4741982 C13.0371201,21.4948007 12.9782708,21.5120404 12.9191625,21.5289396 C12.8807638,21.5399219 12.8428827,21.552011 12.8037936,21.5613757 C12.7376959,21.5771682 12.6696999,21.5883633 12.6015313,21.5992179 C12.5675333,21.604624 12.5343981,21.6122009 12.4998824,21.6163725 C12.3963351,21.628717 12.2908032,21.6360385 12.1826825,21.6360385 C12.0745619,21.6360385 11.96903,21.628717 11.8654827,21.6163725 C11.830967,21.6122009 11.7978318,21.604624 11.7638338,21.5992179 C11.6956652,21.5883633 11.6276691,21.5771682 11.5615714,21.5613757 C11.5224824,21.552011 11.4846013,21.5399219 11.4462025,21.5289396 C11.3870943,21.5120404 11.3282449,21.4948007 11.2709488,21.4741982 C11.2315145,21.4601084 11.1930294,21.4441458 11.1543718,21.4283534 C11.1000095,21.4061759 11.0459923,21.383147 10.9931832,21.3578621 C10.9551296,21.3396434 10.9175074,21.3204456 10.8802303,21.3006945 C10.8288881,21.2735366 10.7782363,21.2451443 10.728361,21.2153047 C10.692292,21.1937657 10.6564819,21.1719714 10.6212759,21.1490702 C10.5720046,21.1171449 10.5238551,21.0836871 10.4762234,21.0494631 C10.4427431,21.0254126 10.4091765,21.0017027 10.3765591,20.9765881 C10.3284959,20.9396823 10.2818134,20.9010314 10.235476,20.8620398 C10.2056198,20.8369252 10.1751597,20.8124491 10.1459939,20.7865683 C10.0967226,20.7428944 10.0492635,20.69739 10.0019769,20.6517155 C9.97790214,20.6284312 9.95287821,20.6059557 9.9293212,20.5822458 C9.86632992,20.5189059 9.80558219,20.4539909 9.74630137,20.3880119 C9.73827645,20.3791153 9.72990639,20.3705168 9.72205406,20.3615776 C9.65854506,20.2900648 9.59745215,20.2171898 9.53825765,20.1436763 C9.51556353,20.1154543 9.49442265,20.086764 9.47233256,20.0583292 C9.43522811,20.0105262 9.39803738,19.9627233 9.36265875,19.9146224 C9.33806626,19.8811646 9.31485442,19.8476643 9.29112483,19.8141639 C9.26057837,19.7708305 9.22985937,19.7275397 9.20069353,19.684334 C9.17670507,19.6487479 9.15366582,19.6133746 9.13062653,19.5780013 C9.10387682,19.5368814 9.07738596,19.4958892 9.05193062,19.455195 C9.02975426,19.4196088 9.00809562,19.3843206 8.98686842,19.3491602 C8.96287997,19.3094876 8.93949554,19.2700704 8.91680143,19.2310789 C8.89626454,19.1958333 8.87607282,19.1606728 8.85657141,19.1261083 C8.84915052,19.1129976 8.84241994,19.1003551 8.83517163,19.0873721 C8.86502778,19.077156 8.89453875,19.0651521 8.92439487,19.0553616 C8.98410713,19.0357807 9.04416456,19.0179877 9.1040494,19.0000243 C9.21018537,18.9682692 9.31658021,18.9388979 9.42340648,18.9122508 C9.48458567,18.8970118 9.54576485,18.8819004 9.60711662,18.8683215 C9.71972428,18.8433771 9.83267711,18.8222638 9.94580252,18.8030234 C9.99947454,18.7938715 10.052974,18.7832297 10.1067323,18.7753548 C10.2727531,18.7511766 10.4390327,18.7315106 10.6056576,18.7196769 C10.7903169,18.7067365 10.9335573,18.5548569 10.9335573,18.3719883 C10.9335573,18.3614317 10.9325218,18.345767 10.9311412,18.3311238 L10.9311412,18.2310059 L13.4345692,18.2310059 L13.4345692,18.3287401 C13.4335338,18.3392967 13.4324983,18.3498534 13.4321532,18.3573452 C13.4320669,18.3587499 13.4328435,18.3598992 13.4327572,18.3613465 C13.4326709,18.3647093 13.4321532,18.3691788 13.4321532,18.3719883 C13.4321532,18.3932719 13.4401781,18.4120865 13.4438885,18.4323485 C13.4478578,18.4541429 13.4485481,18.4767035 13.4564867,18.4969655 C13.4648568,18.5183342 13.4793534,18.5357016 13.4916928,18.5548568 C13.5028241,18.5723093 13.5109354,18.5914646 13.5250005,18.6066611 C13.5423447,18.6254332 13.5649525,18.6381607 13.5860935,18.6528464 C13.6009352,18.6631051 13.6129294,18.6764287 13.6292381,18.6843887 C13.6648757,18.7017135 13.7045688,18.7113337 13.7459014,18.715931 C13.7508199,18.7165269 13.7547029,18.7193363 13.7597077,18.7196769 C13.9264188,18.7315531 14.0928711,18.7511766 14.2589782,18.7754399 C14.3124776,18.7832297 14.3657182,18.7938289 14.4191313,18.8029382 C14.532343,18.8221786 14.6453821,18.8432919 14.7580761,18.8682363 C14.8198593,18.8819429 14.8812973,18.8970968 14.942908,18.9124636 C15.0486125,18.9388978 15.1540581,18.9679712 15.2590723,18.9993858 C15.3206829,19.0177748 15.3822073,19.0359935 15.4434727,19.0561278 C15.4725523,19.0656628 15.5012004,19.0773262 15.5302799,19.0872869 C15.5230316,19.1003125 15.5162147,19.1129975 15.5087938,19.1261082 C15.4892922,19.1606728 15.4691005,19.1958333 15.4485637,19.2310789 Z M4.80459373,10.2883135 C4.80459373,9.82152196 5.18504369,9.44195054 5.65575236,9.43228778 L5.65575236,10.9349939 C5.65575236,11.0030162 5.66394986,11.0690378 5.66610709,11.1365919 L5.66610709,11.1454459 C5.19047993,11.1413595 4.80459373,10.7585955 4.80459373,10.2883135 Z M18.6992579,11.1454459 L18.6992579,9.43118105 C19.1748851,9.43492696 19.5607713,9.81803144 19.5607713,10.2883135 C19.5607713,10.7585955 19.1748851,11.1417 18.6992579,11.1454459 Z M17.9820204,10.9349939 C17.9820204,11.1121584 17.971148,11.2867689 17.9550981,11.4598896 C17.9550118,11.4606983 17.9544941,11.4613368 17.9544078,11.4621456 C17.9443982,11.5686486 17.9278307,11.6732788 17.9119534,11.7781217 C17.9029793,11.8375029 17.895127,11.8972672 17.8843408,11.9560524 C17.8646668,12.0632791 17.8410235,12.1691862 17.8153093,12.2743697 C17.8024522,12.3271104 17.7885596,12.3793829 17.7742356,12.4314851 C17.7440343,12.5411381 17.7124523,12.6503654 17.6758656,12.7574219 C17.6658561,12.7868358 17.6539481,12.8152706 17.6435071,12.8444717 C17.5079465,13.2205952 17.3341596,13.5793513 17.1250804,13.9158447 C17.1106701,13.9391289 17.0967775,13.9627111 17.082022,13.98574 C17.0134219,14.0927113 16.9411977,14.1972562 16.8656945,14.2993323 C16.850939,14.3193814 16.8355795,14.3390049 16.8205651,14.3588412 C16.033347,15.3950963 14.8950172,16.1664984 13.5588259,16.493244 C13.558567,16.4933291 13.5584807,16.4934994 13.5582218,16.4935419 C13.4116162,16.5293835 13.2654419,16.5593082 13.1198717,16.5837418 C13.0363436,16.5973633 12.9530743,16.6116658 12.8684244,16.6217117 C12.8013775,16.6300123 12.7345895,16.6363122 12.6677152,16.6421439 C12.5147241,16.6549992 12.3606976,16.6644491 12.2045137,16.6653004 C12.1688762,16.6654281 12.133325,16.6637255 12.0976874,16.6631721 C11.9693751,16.6615545 11.8425297,16.6538925 11.7162883,16.644102 C11.6224054,16.6362271 11.5285226,16.6280968 11.4343808,16.6154117 C11.4276502,16.6145604 11.4210922,16.6132408 11.414448,16.6123895 C11.167574,16.5782506 10.9199234,16.5281916 10.6705471,16.4612335 C10.6672681,16.4603821 10.6639891,16.4616591 10.6607101,16.4608929 C8.64395426,15.9198642 7.0904862,14.3459008 6.56256767,12.4013475 C6.55100491,12.3585249 6.53944211,12.3157024 6.52891482,12.2724967 C6.50276914,12.1664619 6.47947099,12.0594481 6.45962444,11.9514126 C6.44788909,11.8875618 6.43908756,11.8228597 6.42959575,11.7582853 C6.41501283,11.6599126 6.39922188,11.5618379 6.38990262,11.4621456 C6.38990262,11.4618902 6.38973003,11.4616348 6.38964376,11.4613793 C6.37972047,11.3542804 6.37687293,11.2453935 6.37298992,11.136677 L6.37298992,9.38997598 C9.8413923,8.96473001 13.1406675,7.49369391 15.7540282,5.2054534 L15.82375,5.6515573 C16.0304994,6.9782907 16.7177082,8.18549551 17.7587035,9.05046028 C17.8287705,9.10864959 17.9039286,9.1596025 17.9820205,9.20506423 L17.9820205,10.9349939 Z M13.4345691,17.5335855 L10.9311411,17.5335855 L10.9311411,17.2441288 C11.3334222,17.3210477 11.7476114,17.3643385 12.1723278,17.3643385 C12.1752616,17.3643385 12.1780229,17.3639128 12.1808704,17.3639128 C12.3511194,17.3639554 12.521541,17.3523345 12.6921351,17.3383725 C12.9435824,17.3186213 13.1918371,17.2881432 13.4345691,17.2409363 L13.4345691,17.5335855 Z M5.42656771,8.73376062 L5.42656771,7.3528818 C5.42656771,3.6829111 8.45256434,0.69742043 12.1723278,0.69742043 C15.8920912,0.69742043 18.9180878,3.6829111 18.9180878,7.3528818 L18.9180878,8.73376062 L18.8159212,8.73376062 C18.5960558,8.73376062 18.3824032,8.65679919 18.2143115,8.51717887 C17.3037857,7.76084548 16.7028664,6.70552033 16.5223489,5.54530969 L16.3514959,4.4515038 C16.3314768,4.32312122 16.2403552,4.21619251 16.1157533,4.17430642 C16.0784763,4.16204709 16.0401638,4.15591739 16.0021964,4.15591739 C15.9124555,4.15591739 15.8244403,4.18963059 15.7574797,4.25297053 L15.7001835,4.30711595 C13.0635247,6.78180069 9.6195422,8.35372099 6.00090995,8.73376062 L5.67370057,8.73376062 L5.42656771,8.73376062 Z M5.42622254,11.8428663 L5.67370057,11.8428663 L5.72374843,11.8428663 C5.73203221,11.8994381 5.74480304,11.9546477 5.75455375,12.0107938 C5.81996111,12.391472 5.9193665,12.7598056 6.0495772,13.1147307 C6.05975935,13.1421014 6.06959633,13.1695146 6.08003735,13.1966725 C6.78389998,15.0354889 8.31234411,16.4778347 10.2239131,17.0701994 L10.2239131,18.0549481 C9.53912047,18.1342934 8.86054063,18.3083079 8.20163478,18.5732459 C8.19723401,18.5750338 8.19309214,18.5772472 8.18869137,18.5790351 C8.03354305,18.6416939 7.88158739,18.7104825 7.73144383,18.7826764 C7.67207671,18.8110687 7.61383137,18.8409509 7.55541345,18.8707053 C7.46748455,18.9157414 7.38059113,18.9624801 7.2945606,19.0106661 C7.21931626,19.0525522 7.14407191,19.0942255 7.07063962,19.1383251 C7.05010273,19.1507547 7.03034246,19.1642911 7.00989188,19.1769335 C6.42070786,19.5379882 5.88907887,19.9682571 5.42622254,20.4568856 L5.42622254,11.8428663 Z M4.05180502,25.6618708 C4.05180502,24.2021575 4.51492021,22.8260888 5.32698977,21.6848631 C5.33915657,21.6724761 5.35201371,21.6608552 5.36236844,21.6465953 C5.85464948,20.9668402 6.45867524,20.3841383 7.14597031,19.9205819 C7.14640176,19.9202839 7.1468332,19.9199859 7.14717837,19.9197305 C7.26271988,19.8418752 7.38179927,19.7692982 7.50182782,19.6982961 C7.53798307,19.6770977 7.57344801,19.655133 7.61003471,19.6345305 C7.70176034,19.5824283 7.79581579,19.534072 7.88995752,19.4860137 C7.954502,19.4532795 8.01878761,19.4201623 8.08462639,19.3891734 C8.11422364,19.3752113 8.14459751,19.3629094 8.17436734,19.3493305 C8.19300586,19.3835545 8.21397416,19.419396 8.23356188,19.4543437 C8.2537536,19.490313 8.27308243,19.5254735 8.29430962,19.5621238 C8.32615041,19.6170354 8.36040729,19.6730964 8.3945779,19.7292424 C8.41252608,19.7587841 8.42926623,19.787602 8.44790475,19.8174416 C8.55628422,19.9908603 8.67579505,20.1681951 8.80652347,20.3448062 C8.82619747,20.3714107 8.84759722,20.3976746 8.86778893,20.424194 C8.91455778,20.4855758 8.96149921,20.5468725 9.01094305,20.6076159 C9.03726132,20.6399669 9.06521909,20.6714666 9.09231395,20.7035197 C9.13813363,20.7577503 9.18403958,20.811768 9.23210277,20.864977 C9.26316694,20.8992861 9.29561177,20.9326162 9.32753883,20.9664571 C9.37448027,21.0160478 9.42159428,21.065298 9.47052036,21.1135692 C9.505295,21.1478358 9.54119139,21.180953 9.57691519,21.2144108 C9.62592758,21.2602556 9.67545769,21.305462 9.72636845,21.3495616 C9.76450837,21.3825085 9.80333858,21.4143914 9.84251398,21.4462742 C9.89411505,21.4882454 9.94640641,21.529195 9.99990585,21.569123 C10.0409796,21.5997714 10.0825711,21.6296535 10.1248529,21.6589397 C10.1793878,21.6968245 10.2349581,21.7330917 10.2913051,21.7685076 C10.3352265,21.796006 10.3791478,21.8230787 10.4241045,21.8490447 C10.4821773,21.8824599 10.5416307,21.9135339 10.6015155,21.9440972 C10.6475941,21.9675942 10.6934137,21.9911765 10.740614,22.0128432 C10.8030013,22.0414908 10.8671143,22.0668609 10.9315725,22.0921032 C10.9790316,22.1107476 11.0259731,22.1302434 11.074554,22.1469297 C11.1430678,22.1704268 11.2138251,22.1895395 11.2844961,22.2089075 C11.3316964,22.2218054 11.3778612,22.2364911 11.4260107,22.2474734 C11.5055695,22.2655644 11.5878033,22.2779515 11.6699508,22.2904662 C11.71206,22.2968513 11.7527886,22.3060458 11.7955019,22.3108985 C11.921657,22.325201 12.050487,22.3334591 12.1826824,22.3334591 C12.3148778,22.3334591 12.4437079,22.3252011 12.569863,22.3108985 C12.6125762,22.3060458 12.6533048,22.2968513 12.695414,22.2904662 C12.7775616,22.2779515 12.8597953,22.2655644 12.9393542,22.2474734 C12.9875036,22.2364911 13.0336685,22.2218054 13.0808688,22.2089075 C13.1515398,22.1895395 13.2222971,22.1704268 13.2908109,22.1469297 C13.3393918,22.1302434 13.3863332,22.1107476 13.4337924,22.0921032 C13.4982505,22.0668609 13.5623636,22.0414908 13.6247508,22.0128432 C13.6719511,21.9911765 13.7177708,21.9675943 13.7638493,21.9440972 C13.8237342,21.9135339 13.8831876,21.8824599 13.9412603,21.8490447 C13.9862171,21.8230787 14.0301384,21.796006 14.0740597,21.7685076 C14.1304067,21.7330917 14.1859771,21.6968245 14.240512,21.6589397 C14.2827938,21.6296535 14.3243853,21.5997714 14.365459,21.569123 C14.4189584,21.529195 14.4712498,21.4882454 14.5228509,21.4462742 C14.5620262,21.4143914 14.6008565,21.3825086 14.6389964,21.3495616 C14.6899072,21.305462 14.7394373,21.2602556 14.7884497,21.2144108 C14.8241735,21.180953 14.8600699,21.1478358 14.8948445,21.1135692 C14.9437706,21.065298 14.9908846,21.0160478 15.037826,20.9664571 C15.0697531,20.9326162 15.1021979,20.8992861 15.1332621,20.864977 C15.1813253,20.811768 15.2272312,20.7577503 15.2730509,20.7035197 C15.3001458,20.6714666 15.3281035,20.6399669 15.3544218,20.6076159 C15.4038656,20.5468726 15.4508071,20.4855758 15.4975759,20.424194 C15.5177676,20.3976746 15.5391674,20.3714107 15.5588414,20.3448062 C15.6895698,20.1681951 15.8090806,19.9908603 15.9174601,19.8174416 C15.9360986,19.787602 15.9528388,19.7587841 15.970787,19.7292424 C16.0049576,19.6730964 16.0392144,19.6170354 16.0710552,19.5621238 C16.0922824,19.5254735 16.1116113,19.490313 16.131803,19.4543437 C16.151477,19.4193109 16.172359,19.3834694 16.1909975,19.3491603 C16.219473,19.3621858 16.2486388,19.3739343 16.2769418,19.3873004 C16.3437297,19.4186724 16.4089646,19.4523005 16.4745445,19.4855455 C16.5680822,19.5333058 16.6615336,19.5811513 16.7527415,19.6329556 C16.7863082,19.6518979 16.8188393,19.6720747 16.8519745,19.6914428 C17.6824236,20.1810078 18.4093255,20.8350522 18.9850484,21.6224171 C18.9912612,21.630888 19.0014434,21.6342507 19.0081739,21.641998 C19.8393134,22.7914817 20.31356,24.1840239 20.31356,25.6618707 L20.31356,27.3025795 L17.3296726,27.3025795 L17.3296726,24.3674884 C17.3296726,24.1747442 17.1715904,24.0187782 16.9762312,24.0187782 C16.780872,24.0187782 16.6227898,24.1747442 16.6227898,24.3674884 L16.6227898,27.3025795 L7.74257519,27.3025795 L7.74257519,24.3674884 C7.74257519,24.1747442 7.58449302,24.0187782 7.38913381,24.0187782 C7.1937746,24.0187782 7.03569243,24.1747442 7.03569243,24.3674884 L7.03569243,27.3025795 L4.05180502,27.3025795 L4.05180502,25.6618708 Z" id="Shape"></path>
            <path d="M13.4561911,12.9997528 C13.4628497,13 13.4695082,13 13.4761667,13 C13.7568502,13 13.9893873,12.8927231 13.9996313,12.7562787 C14.0103874,12.6163737 13.7845089,12.4989623 13.495118,12.4940187 C13.3711665,12.491794 13.2569468,12.4665815 13.1724344,12.4228303 C13.0884342,12.3790791 13.0443854,12.3222272 13.0489951,12.2626564 C13.0597512,12.1227514 12.8338727,12.00534 12.5444818,12.0003964 C12.2581642,11.9924866 12.0117978,12.1039656 12.0010417,12.2438706 C11.97031,12.6460355 12.6233601,12.9851691 13.4561911,12.9997528 Z" id="Shape"></path>
        </g>
    </g>
</svg>