<?xml version="1.0" encoding="utf-8"?>
<!-- Generator: Adobe Illustrator 17.0.2, SVG Export Plug-In . SVG Version: 6.00 Build 0)  -->
<!DOCTYPE svg PUBLIC "-//W3C//DTD SVG 1.1//EN" "http://www.w3.org/Graphics/SVG/1.1/DTD/svg11.dtd">
<svg version="1.1" id="Calque_1" xmlns="http://www.w3.org/2000/svg" xmlns:xlink="http://www.w3.org/1999/xlink" x="0px" y="0px"
	 width="14.173px" height="14.173px" viewBox="0 0 14.173 14.173" enable-background="new 0 0 14.173 14.173" xml:space="preserve">
<g>
	<path fill="#4A4A4A" d="M24.392-2.925c-0.709,0-1.284,0.575-1.284,1.284c0,0.637,0.465,1.165,1.074,1.265v5.046
		c0,0.116,0.094,0.21,0.21,0.21c0.116,0,0.21-0.094,0.21-0.21v-5.046c0.609-0.101,1.074-0.628,1.074-1.265
		C25.676-2.35,25.102-2.924,24.392-2.925z M25.003-1.03c-0.157,0.157-0.371,0.253-0.61,0.253c-0.239,0-0.453-0.096-0.61-0.253
		c-0.157-0.157-0.253-0.371-0.253-0.61c0-0.239,0.096-0.453,0.253-0.61c0.157-0.157,0.371-0.253,0.61-0.253
		c0.239,0,0.453,0.096,0.61,0.253c0.157,0.157,0.253,0.371,0.253,0.61C25.256-1.402,25.159-1.187,25.003-1.03z"/>
	<path fill="#4A4A4A" d="M24.392-8.16c-3.6,0-6.522,2.922-6.522,6.522c0,1.799,0.731,3.435,1.914,4.609
		C19.867,3.054,20,3.053,20.082,2.97s0.081-0.216-0.001-0.298c-1.106-1.098-1.789-2.626-1.789-4.311
		c0-1.685,0.683-3.208,1.788-4.313c1.105-1.105,2.629-1.788,4.314-1.788c1.685,0,3.208,0.683,4.313,1.788
		c1.105,1.105,1.788,2.629,1.788,4.313c0,1.685-0.683,3.213-1.789,4.311c-0.082,0.082-0.083,0.215-0.001,0.298
		c0.082,0.082,0.215,0.083,0.298,0.001c1.183-1.174,1.914-2.81,1.914-4.609C30.914-5.238,27.993-8.159,24.392-8.16z"/>
	<path fill="#4A4A4A" d="M24.392-5.469c-2.112,0-3.826,1.714-3.826,3.826c0,1.055,0.428,2.021,1.126,2.703
		c0.083,0.081,0.216,0.08,0.298-0.003s0.08-0.216-0.003-0.298l0,0c-0.618-0.605-1-1.462-1-2.402c0-0.94,0.381-1.791,0.998-2.408
		c0.617-0.617,1.467-0.998,2.408-0.998c0.94,0,1.791,0.381,2.408,0.998c0.617,0.617,0.998,1.467,0.998,2.408
		c0,0.941-0.382,1.798-1,2.402c-0.083,0.081-0.084,0.214-0.003,0.298c0.081,0.083,0.214,0.084,0.298,0.003
		c0.698-0.683,1.126-1.648,1.126-2.703C28.219-3.755,26.505-5.468,24.392-5.469z"/>
</g>
<path fill="#4A4A4A" d="M24.745-10.422c-3.612,0-6.55,2.939-6.55,6.55s2.939,6.55,6.55,6.55s6.55-2.939,6.55-6.55
	S28.357-10.422,24.745-10.422z M25-6.414c0.692-0.02,1.368-0.119,2.016-0.292c0.339,0.807,0.532,1.68,0.563,2.579H25V-6.414z
	 M25-6.924V-9.44c0.752,0.627,1.361,1.401,1.798,2.266C26.219-7.028,25.616-6.943,25-6.924z M24.49-6.924
	c-0.616-0.018-1.219-0.104-1.798-0.25c0.438-0.865,1.047-1.638,1.798-2.266V-6.924z M24.49-6.414v2.287h-2.58
	c0.031-0.898,0.224-1.771,0.563-2.578C23.121-6.533,23.798-6.434,24.49-6.414z M21.4-4.127h-2.689
	c0.057-1.371,0.573-2.625,1.399-3.613c0.573,0.37,1.204,0.669,1.873,0.889C21.632-5.995,21.431-5.074,21.4-4.127z M21.4-3.617
	c0.031,0.948,0.232,1.87,0.584,2.725C21.316-0.67,20.688-0.37,20.115,0c-0.828-0.988-1.345-2.244-1.403-3.617
	C18.712-3.617,21.4-3.617,21.4-3.617z M21.91-3.617h2.58v2.287c-0.692,0.02-1.368,0.12-2.016,0.293
	C22.135-1.845,21.941-2.718,21.91-3.617z M24.49-0.819v2.516c-0.752-0.627-1.361-1.401-1.798-2.266
	C23.271-0.716,23.874-0.801,24.49-0.819z M25-0.819c0.616,0.019,1.219,0.103,1.799,0.25C26.361,0.295,25.752,1.069,25,1.697V-0.819z
	 M25-1.33v-2.287h2.58c-0.031,0.898-0.224,1.771-0.563,2.579C26.368-1.21,25.692-1.31,25-1.33z M28.09-3.617h2.688
	c-0.057,1.372-0.574,2.627-1.4,3.614c-0.573-0.37-1.202-0.671-1.871-0.892C27.858-1.749,28.059-2.67,28.09-3.617z M28.09-4.127
	c-0.031-0.947-0.232-1.868-0.584-2.723c0.669-0.221,1.298-0.521,1.872-0.891c0.826,0.988,1.343,2.242,1.4,3.614H28.09z
	 M29.031-8.123c-0.532,0.335-1.115,0.607-1.734,0.806c-0.484-0.987-1.173-1.869-2.035-2.572C26.73-9.763,28.05-9.112,29.031-8.123z
	 M24.228-9.888c-0.862,0.703-1.551,1.584-2.034,2.571c-0.619-0.199-1.201-0.472-1.734-0.806C21.44-9.112,22.76-9.763,24.228-9.888z
	 M20.459,0.379c0.532-0.335,1.115-0.607,1.734-0.806c0.484,0.987,1.173,1.869,2.034,2.571C22.76,2.019,21.44,1.368,20.459,0.379z
	 M25.263,2.144c0.862-0.703,1.551-1.585,2.035-2.573c0.619,0.199,1.201,0.472,1.734,0.807C28.051,1.367,26.731,2.019,25.263,2.144z"
	/>
<g>
	<path fill="#4A4A4A" d="M32.313,1.121c3.532,0,6.394,2.862,6.394,6.439c0,3.532-2.862,6.394-6.394,6.394
		c-3.577,0-6.439-2.862-6.439-6.394C25.874,3.983,28.736,1.121,32.313,1.121z M32.313,2.865c1.431,0,2.593,1.163,2.593,2.593
		c0,0.939-0.492,1.789-1.297,2.28c1.654,0.492,2.862,1.923,3.085,3.577c0.894-0.984,1.431-2.325,1.431-3.756
		c0-3.219-2.638-5.813-5.813-5.813c-3.219,0-5.813,2.593-5.813,5.813c0,1.431,0.492,2.772,1.386,3.756
		c0.268-1.654,1.431-3.085,3.085-3.577c-0.805-0.492-1.297-1.341-1.297-2.28C29.675,4.027,30.837,2.865,32.313,2.865z
		 M36.158,11.897c-0.045-2.102-1.744-3.756-3.845-3.756s-3.845,1.654-3.89,3.756c1.028,0.894,2.415,1.476,3.89,1.476
		C33.789,13.373,35.13,12.791,36.158,11.897z M32.313,3.446c-1.118,0-2.057,0.894-2.057,2.012s0.939,2.057,2.057,2.057
		c1.118,0,2.012-0.939,2.012-2.057S33.431,3.446,32.313,3.446z"/>
</g>
<polygon points="10.126,11.192 9.535,10.601 9.295,10.841 10.126,11.672 11.388,10.411 11.148,10.171 "/>
<path d="M4.101,6.547H3.848c-0.143,0-0.259,0.116-0.259,0.259s0.116,0.259,0.259,0.259h0.253c0.143,0,0.259-0.116,0.259-0.259
	C4.361,6.663,4.244,6.547,4.101,6.547z"/>
<path d="M4.101,8.729H3.848c-0.143,0-0.259,0.116-0.259,0.259s0.116,0.259,0.259,0.259h0.253c0.143,0,0.259-0.116,0.259-0.259
	S4.244,8.729,4.101,8.729z"/>
<path d="M4.101,10.913H3.848c-0.143,0-0.259,0.116-0.259,0.259s0.116,0.259,0.259,0.259h0.253c0.143,0,0.259-0.116,0.259-0.259
	C4.361,11.029,4.244,10.913,4.101,10.913z"/>
<path d="M7.183,6.547H6.93c-0.143,0-0.259,0.116-0.259,0.259S6.787,7.066,6.93,7.066h0.253c0.143,0,0.259-0.116,0.259-0.259
	C7.443,6.663,7.327,6.547,7.183,6.547z"/>
<path d="M7.183,8.729H6.93c-0.143,0-0.259,0.116-0.259,0.259S6.787,9.248,6.93,9.248h0.253c0.143,0,0.259-0.116,0.259-0.259
	S7.327,8.729,7.183,8.729z"/>
<path d="M7.183,10.913H6.93c-0.143,0-0.259,0.116-0.259,0.259s0.116,0.259,0.259,0.259h0.253c0.143,0,0.259-0.116,0.259-0.259
	C7.443,11.029,7.327,10.913,7.183,10.913z"/>
<path d="M10.013,7.066h0.253c0.143,0,0.259-0.116,0.259-0.259s-0.116-0.259-0.259-0.259h-0.253c-0.143,0-0.259,0.116-0.259,0.259
	C9.753,6.95,9.869,7.066,10.013,7.066z"/>
<path d="M10.013,9.248h0.253c0.143,0,0.259-0.116,0.259-0.259s-0.116-0.259-0.259-0.259h-0.253c-0.143,0-0.259,0.116-0.259,0.259
	C9.753,9.132,9.869,9.248,10.013,9.248z"/>
<path fill="#4A4949" d="M11.832,1.666V1.179c0-0.246-0.201-0.447-0.447-0.447h-0.37c-0.246,0-0.447,0.201-0.447,0.447v0.477h-2.88
	V1.179c0-0.246-0.201-0.447-0.447-0.447h-0.37c-0.246,0-0.447,0.201-0.447,0.447v0.477h-2.88V1.179c0-0.246-0.201-0.447-0.447-0.447
	h-0.37c-0.246,0-0.447,0.201-0.447,0.447v0.496C1.66,1.776,1.194,2.309,1.194,2.956v9.186c0,0.716,0.583,1.299,1.299,1.299h9.186
	c0.716,0,1.299-0.583,1.299-1.299V2.956C12.979,2.291,12.477,1.742,11.832,1.666z M10.908,1.179c0-0.059,0.048-0.108,0.108-0.108
	h0.37c0.059,0,0.108,0.048,0.108,0.108v1.294c0,0.059-0.048,0.108-0.108,0.108h-0.37c-0.059,0-0.108-0.048-0.108-0.108V1.179z
	 M6.764,1.179c0-0.059,0.048-0.108,0.108-0.108h0.37c0.059,0,0.108,0.048,0.108,0.108v1.294c0,0.059-0.048,0.108-0.108,0.108h-0.37
	c-0.059,0-0.108-0.048-0.108-0.108V1.179z M2.621,1.179c0-0.059,0.048-0.108,0.108-0.108h0.37c0.059,0,0.108,0.048,0.108,0.108
	v1.294c0,0.059-0.048,0.108-0.108,0.108h-0.37c-0.059,0-0.108-0.048-0.108-0.108V1.179z M2.282,2.02v0.453
	c0,0.246,0.201,0.447,0.447,0.447h0.37c0.246,0,0.447-0.201,0.447-0.447V1.996h2.88v0.477c0,0.246,0.201,0.447,0.447,0.447h0.37
	c0.246,0,0.447-0.201,0.447-0.447V1.996h2.88v0.477c0,0.246,0.201,0.447,0.447,0.447h0.37c0.246,0,0.447-0.201,0.447-0.447V2.009
	c0.457,0.073,0.807,0.469,0.807,0.946v1.652H1.534V2.956C1.534,2.498,1.851,2.116,2.282,2.02z M11.68,13.102H2.494
	c-0.529,0-0.96-0.431-0.96-0.96V4.947H12.64v7.195C12.64,12.671,12.209,13.102,11.68,13.102z"/>
</svg>
