<?xml version="1.0" encoding="UTF-8"?>
<svg width="2530px" height="1858px" viewBox="0 0 2530 1858" version="1.1" xmlns="http://www.w3.org/2000/svg" xmlns:xlink="http://www.w3.org/1999/xlink">
    <!-- Generator: Sketch 50.2 (55047) - http://www.bohemiancoding.com/sketch -->
    <title>Group</title>
    <desc>Created with Sketch.</desc>
    <defs></defs>
    <g id="Symbols" stroke="none" stroke-width="1" fill="none" fill-rule="evenodd" opacity="0.05">
        <g id="background-/-longin" fill="#135168">
            <g id="Group">
                <path d="M1972.14769,1001.66563 C1967.5577,930.477378 1944.23947,861.243811 1902.3996,803.341993 C1864.0898,750.22329 1811.90224,708.175112 1751.99882,681.935536 C1684.9634,652.543248 1610.72412,643.031063 1538.08371,650.363372 C1467.16791,657.488502 1398.11146,679.926808 1334.74085,712.291654 C1271.14568,744.764594 1213.63157,787.308197 1161.82127,836.310358 C1134.91009,861.703206 1109.22052,888.537293 1086.0999,917.506218 C1063.83261,945.358181 1043.90972,975.074749 1025.86414,1005.84522 C1008.3575,1035.61584 992.23415,1066.50341 978.131832,1098.1026 C966.44577,1124.36019 953.960278,1151.71673 953.080006,1180.91986 C952.594958,1197.03472 955.460333,1213.72608 964.478631,1227.43588 C973.029846,1240.42505 986.907606,1248.93738 1002.3483,1250.55877 C1034.42434,1253.99973 1064.81169,1230.75073 1083.59382,1206.79912 C1097.24702,1189.36012 1107.48692,1169.26383 1118.26576,1150.00526 C1135.89815,1118.40607 1155.84799,1088.05896 1178.95065,1060.26104 C1202.52936,1031.89564 1229.09023,1005.67408 1257.26792,981.974686 C1284.10724,959.446303 1313.08436,939.422074 1343.90286,922.649643 C1406.6986,888.438208 1478.32401,867.197933 1550.29973,870.819049 C1618.30524,874.269017 1684.59512,901.337306 1731.41123,951.636583 C1754.44202,976.416904 1772.31694,1005.79118 1783.6437,1037.67861 C1795.81481,1071.82699 1800.4587,1108.49754 1798.64426,1144.64565 C1795.07826,1213.17661 1768.22098,1278.64494 1730.22556,1335.06048 C1691.01752,1393.34963 1639.53058,1442.44186 1581.69311,1481.94085 C1551.34169,1502.61364 1518.39436,1519.12484 1484.2883,1532.69051 C1456.91004,1543.63493 1429.04674,1553.65155 1400.82413,1562.26296 C1347.38802,1578.57599 1292.40695,1589.48438 1237.21927,1597.98769 C1182.44479,1606.34689 1127.31101,1612.12986 1072.08741,1616.25541 C1027.93008,1619.51622 983.673953,1621.72312 939.399858,1622.89412 C914.357014,1623.52467 889.359082,1623.66879 864.271327,1623.83994 C851.570258,1623.98406 838.788347,1623.89398 826.015419,1623.89398 L741.760801,1623.89398 L630.397395,1623.89398 L516.932114,1623.89398 L426.300015,1623.89398 L383.57987,1623.89398 C377.7054,1623.89398 371.741108,1624.35338 365.875621,1625.61446 C351.288254,1628.87527 333.224711,1638.03615 332.057003,1655.09683 C330.87133,1672.55385 348.413896,1682.94879 363.073122,1686.53388 C373.834,1689.19116 385.367361,1688.98399 396.39771,1688.98399 L435.704555,1688.98399 L526.893561,1688.98399 L641.131325,1688.98399 L749.620374,1688.98399 L823.221902,1688.98399 C831.853958,1688.98399 840.360262,1689.02002 848.902494,1688.98399 C888.613546,1688.75879 928.225792,1687.66885 967.829055,1686.01143 C1036.0232,1683.14696 1104.15446,1678.544 1172.0971,1671.67109 C1230.89568,1665.68994 1289.48768,1658.13244 1347.56767,1646.59351 C1405.89917,1634.97352 1463.60191,1619.71439 1519.36445,1598.78938 C1550.22787,1587.25946 1580.43558,1573.94601 1609.70013,1558.63283 C1641.12944,1542.0856 1670.79821,1522.81802 1699.27231,1501.65881 C1755.75345,1460.01599 1806.87211,1411.63536 1849.94257,1356.07556 C1889.25839,1305.37994 1922.03506,1248.93738 1943.93407,1188.45033 C1965.48277,1128.81903 1976.22569,1065.10721 1972.14769,1001.66563" id="Fill-1"></path>
                <path d="M1640.81999,1197.12158 C1639.3296,1160.48608 1627.1209,1124.91153 1604.17605,1097.04527 C1582.88223,1071.09434 1553.76164,1053.81876 1522.1065,1046.09169 C1452.51337,1029.079 1379.26121,1056.79504 1322.18913,1098.12499 C1292.97037,1119.30635 1266.27724,1145.08828 1243.12713,1173.36765 C1232.50699,1186.31495 1222.48479,1200.01336 1213.78342,1214.45349 C1207.37564,1225.08173 1201.28914,1235.96346 1197.65688,1248.16904 C1192.83766,1264.33673 1192.04338,1283.43375 1201.53011,1298.02411 C1210.91866,1312.52057 1227.54498,1317.90041 1243.60905,1316.1353 C1270.20401,1313.14963 1291.23902,1295.28255 1309.82872,1276.48597 C1321.7786,1264.37428 1333.19302,1252.04665 1346.25846,1241.19308 C1359.75228,1230.08601 1374.29919,1220.50933 1389.90812,1212.98882 C1420.3763,1198.19191 1458.42138,1189.68557 1489.9962,1205.91898 C1503.72206,1213.05454 1514.98476,1224.80945 1521.62458,1239.33408 C1528.5589,1254.70371 1529.96897,1272.27035 1527.72,1288.95443 C1523.21313,1323.29903 1504.83762,1354.80819 1483.1065,1380.13945 C1460.07241,1406.78515 1431.40697,1428.29513 1401.13512,1444.85715 C1371.32734,1461.08117 1339.68112,1471.43713 1307.30309,1480.08431 C1248.01774,1495.93278 1187.50974,1506.52346 1126.8054,1514.30686 C1070.91136,1521.53631 1014.70496,1526.24015 958.462857,1529.16949 C918.62396,1531.20688 878.633347,1532.36172 838.71413,1532.45561 C822.944567,1532.48377 807.255324,1532.23966 791.450062,1532.23966 L691.308427,1532.23966 L598.663357,1532.23966 C586.07091,1532.23966 572.603864,1532.00494 562.429952,1541.25301 C556.31668,1546.86757 553.791051,1555.75886 558.288991,1563.36387 C562.599517,1570.706 571.113475,1574.28317 578.842078,1575.65395 C582.893794,1576.46139 586.963359,1576.46139 591.050772,1576.46139 L672.406369,1576.46139 L778.804068,1576.46139 C791.012763,1576.46139 803.185759,1576.43323 815.376604,1576.63978 C841.971567,1577.20312 868.620076,1577.06228 895.223963,1576.51773 C941.63128,1575.62578 988.047522,1573.38183 1034.33882,1569.83283 C1090.76833,1565.48577 1147.09075,1559.06376 1202.96695,1549.58097 C1259.87838,1539.93856 1316.55778,1527.29171 1371.47906,1508.82374 C1403.54473,1498.01711 1435.43191,1486.26221 1465.23969,1469.70957 C1496.89483,1452.10538 1525.89048,1428.70824 1551.30741,1402.30665 C1598.2502,1353.34352 1636.72365,1287.91226 1640.67719,1216.96033 C1641.03417,1210.34115 1641.11449,1203.68442 1640.81999,1197.12158" id="Fill-3"></path>
                <path d="M2528.04449,657.210035 C2522.94489,584.470417 2507.51044,512.400408 2481.26194,444.503983 C2456.15271,379.533653 2421.24211,318.727736 2378.19384,264.306027 C2338.29213,213.828585 2291.57287,168.91898 2239.43754,131.586036 C2187.50113,94.4640652 2130.46511,65.0380005 2070.60803,43.5004694 C2003.14676,19.2569877 1932.35808,5.27777247 1860.88222,1.23260584 C1789.61432,-2.74835179 1718.01187,3.02128496 1648.00984,16.9821548 C1576.4526,31.2365515 1506.57715,53.7739084 1439.63126,83.0348643 C1375.56068,111.094195 1314.11223,145.244207 1256.04544,184.420866 C1195.74532,225.019296 1138.99864,271.011281 1086.42025,321.452032 C1059.89145,346.897139 1033.8057,372.846745 1008.9406,399.997977 C984.030294,427.250109 959.463575,455.135158 937.518994,484.89144 C895.836045,541.294455 858.909111,601.201446 825.960593,663.181471 C794.83853,721.611656 767.206623,781.986455 742.558528,843.562881 C719.990059,899.764096 699.392714,957.066037 682.574865,1015.3678 C673.957978,1045.42679 663.559845,1075.82516 665.48576,1107.57192 C666.417071,1124.1837 670.494947,1141.20826 680.006978,1155.02237 C689.085,1168.17604 703.02754,1177.2662 718.959287,1178.55038 C754.746947,1181.57737 783.635673,1149.72054 799.404667,1120.77145 C805.191454,1110.27787 809.359749,1098.76611 813.925885,1087.65796 C820.445062,1071.80751 826.376519,1055.62684 832.597315,1039.62046 C858.447977,973.044904 888.240887,907.762702 923.332325,845.681778 C959.382198,781.931419 1001.67999,722.501409 1051.18415,668.886899 C1101.41165,614.511054 1156.09678,563.978575 1215.87248,520.573295 C1272.93563,479.103458 1334.46545,443.85272 1399.4583,416.784043 C1466.04252,389.064103 1536.46952,369.883959 1608.15334,362.31647 C1681.40141,354.602218 1756.06904,359.436238 1827.11993,378.9466 C1893.34247,397.0994 1956.18336,427.644535 2010.64245,469.994953 C2063.73622,511.318027 2108.71945,563.345658 2142.20144,622.014333 C2178.13377,684.74652 2200.29535,754.917778 2208.55961,826.886888 C2217.23074,901.350975 2211.15462,977.035034 2192.92624,1049.61872 C2176.34348,1115.73563 2149.96839,1179.07322 2116.51353,1238.19136 C2083.33896,1296.95176 2043.31067,1351.63948 1998.37266,1401.72249 C1949.8179,1455.62136 1895.34072,1503.2736 1837.15639,1546.18356 C1806.93851,1568.48242 1775.79837,1589.14855 1743.11206,1607.63156 C1711.16719,1625.59174 1678.20059,1641.56143 1644.57393,1655.9259 C1580.74748,1683.06796 1514.79619,1704.14686 1447.21737,1719.16259 C1392.27907,1731.34395 1336.76208,1740.66343 1281.06426,1748.27678 C1245.09576,1753.17501 1209.3081,1756.89913 1173.16781,1760.08206 C1101.19464,1766.26447 1029.04969,1770.6582 956.895688,1773.80444 C899.317159,1776.3728 841.603002,1778.06975 783.906928,1779.08792 C752.007266,1779.63829 720.107603,1779.84009 688.189856,1779.84009 L659.626638,1779.84009 L586.658872,1779.84009 L484.711963,1779.84009 L368.958142,1779.84009 L254.949398,1779.84009 L158.011676,1779.84009 L93.5342118,1779.84009 C78.1359336,1779.84009 62.4302323,1779.15213 47.1585401,1780.94999 C32.5197777,1782.67446 16.2534814,1788.84769 6.76857605,1800.80891 C1.66897012,1807.27567 -0.989335106,1815.49442 0.339817505,1823.74987 C1.61471899,1831.93193 6.68719936,1838.98574 13.0164975,1844.09494 C31.3895458,1858.81715 55.5493811,1857.99161 77.6386316,1857.99161 L113.598087,1857.99161 L178.979737,1857.99161 L276.432845,1857.99161 L390.649551,1857.99161 L506.159242,1857.99161 L607.545556,1857.99161 L679.446383,1857.99161 L706.807035,1857.99161 C757.260583,1857.93657 807.723173,1857.29448 858.149595,1856.35886 C886.730898,1855.78098 915.285074,1854.87288 943.893502,1853.68043 C990.070253,1851.67161 1036.23796,1849.39677 1082.41471,1846.68165 C1136.1595,1843.48037 1189.94949,1839.86632 1243.52248,1834.59201 C1296.37212,1829.42778 1349.10421,1821.85111 1401.43846,1812.92606 C1462.76936,1802.40496 1523.56679,1789.1137 1583.59567,1772.73123 C1648.91402,1754.86279 1713.31915,1733.52706 1776.14196,1708.04526 C1808.84634,1694.67144 1841.10768,1680.24276 1872.81747,1664.50239 C1904.92509,1648.53269 1936.89709,1631.59069 1967.14209,1612.18123 C2029.86544,1571.83046 2089.87622,1526.80161 2146.11656,1477.56249 C2197.85405,1432.12087 2246.00193,1382.53318 2289.71929,1329.25806 C2332.16176,1277.36802 2370.54443,1222.03821 2403.69187,1163.65389 C2435.8447,1107.04907 2463.03356,1047.55485 2483.79366,985.730766 C2508.00774,913.816693 2523.60494,838.820588 2528.41521,762.93473 C2530.61238,727.748201 2530.55813,692.405736 2528.04449,657.210035" id="Fill-5"></path>
            </g>
        </g>
    </g>
</svg>