<?xml version="1.0" encoding="UTF-8"?>
<svg width="91px" height="89px" viewBox="0 0 91 89" version="1.1" xmlns="http://www.w3.org/2000/svg" xmlns:xlink="http://www.w3.org/1999/xlink">
    <!-- Generator: Sketch 50.2 (55047) - http://www.bohemiancoding.com/sketch -->
    <title>logo</title>
    <desc>Created with Sketch.</desc>
    <defs></defs>
    <g id="Page-1" stroke="none" stroke-width="1" fill="none" fill-rule="evenodd">
        <g id="logo" fill="#FFFFFF" fill-rule="nonzero">
            <path d="M70.9693564,35.570248 C71.1159753,37.8251362 70.729728,40.0896293 69.9549727,42.2090897 C69.1676224,44.3589654 67.9891805,46.3650891 66.5756316,48.1669506 C65.0270898,50.1416987 63.1891855,51.861279 61.1584805,53.3413796 C60.1347314,54.0934358 59.0680299,54.7782585 57.9380304,55.3663928 C56.8858617,55.9106651 55.7997833,56.3838618 54.6901296,56.7936669 C52.6852606,57.537399 50.6106345,58.0797503 48.5134019,58.492757 C46.425212,58.9028822 44.3186139,59.1714966 42.204588,59.3840829 C39.7617997,59.6283652 37.3122295,59.791967 34.8603987,59.893778 C33.4365154,59.9526874 32.0123091,59.9914268 30.5845504,59.9994308 C30.2774256,60.0007115 29.9715927,59.9994308 29.6612384,59.9994308 L27.0149921,59.9994308 L23.1144108,59.9994308 L19.007142,59.9994308 L15.7285611,59.9994308 L14.3153351,59.9994308 C13.9187534,59.9994308 13.5040865,60.0067945 13.1171933,59.9123473 C12.5901401,59.7849235 11.9594202,59.4154586 12.0020495,58.7949882 C12.0440329,58.1886048 12.6934839,57.8630019 13.2179535,57.7471039 C13.4288393,57.7022815 13.6432777,57.6859533 13.8544865,57.6859533 L15.3904332,57.6859533 L18.6489913,57.6859533 L22.7284865,57.6859533 L26.7324115,57.6859533 L29.7616756,57.6859533 C30.2209095,57.6859533 30.6804663,57.6891549 31.1371166,57.6840324 C32.0391139,57.6779493 32.9378817,57.6728267 33.8382642,57.6504155 C35.4300812,57.6087947 37.0212522,57.5303555 38.6088708,57.4144575 C40.5943629,57.2678241 42.5766255,57.0622813 44.5459702,56.7651726 C46.5301705,56.4629414 48.506943,56.0752274 50.4281682,55.4954173 C51.4428748,55.1893442 52.4446634,54.833326 53.4290128,54.4443314 C54.6552511,53.9621702 55.839829,53.3753165 56.9310746,52.6405489 C59.010545,51.2366465 60.8616902,49.4917735 62.2713637,47.4200169 C63.6374391,45.4148536 64.6030574,43.0879294 64.7312683,40.6521507 C64.7965041,39.3673479 64.6295393,38.0639757 64.191943,36.8502485 C63.784704,35.7168814 63.1420349,34.672839 62.313993,33.7920784 C60.6307814,32.0043039 58.2474158,31.0422225 55.8023669,30.9196012 C53.2145744,30.7908968 50.639377,31.5458345 48.3816386,32.7618029 C47.2735997,33.3579412 46.2317654,34.0696572 45.266793,34.8703779 C44.2537011,35.7127193 43.2987401,36.6447056 42.4509983,37.6528901 C41.6203728,38.6409044 40.9031024,39.7195241 40.269153,40.842646 C39.8816139,41.5271485 39.5134517,42.2414259 39.0225688,42.861256 C38.3472819,43.7125619 37.2547446,44.5388954 36.1014927,44.4165942 C35.5463429,44.3589654 35.0473863,44.056414 34.7399386,43.594743 C34.4156975,43.1074592 34.3126767,42.5142024 34.330116,41.9414358 C34.361765,40.9034764 34.8106645,39.93115 35.2308215,38.997883 C35.7378518,37.8747611 36.3175458,36.7769318 36.9469739,35.7188024 C37.595779,34.6251352 38.3120805,33.5689267 39.1126717,32.5789914 C39.9439431,31.5493563 40.867578,30.5955991 41.835134,29.6930675 C43.6979054,27.9513961 45.7657496,26.4392795 48.0522304,25.285102 C50.3306375,24.1347665 52.8134715,23.3372474 55.3631559,23.0840007 C57.9748467,22.8233903 60.6440224,23.1614795 63.0541927,24.2061622 C65.2079414,25.1387888 67.0842767,26.6332966 68.4616553,28.5212812 C69.965953,30.5792709 70.8043293,33.0400221 70.9693564,35.570248 Z M58.9935294,42.5341604 C59.0041154,42.7667984 59.0012283,43.0027647 58.9883968,43.2373996 C58.8462878,45.7524869 57.4633711,48.0718785 55.7760267,49.8075117 C54.8624228,50.7433891 53.8201829,51.5727654 52.6823481,52.1967946 C51.6109165,52.7835485 50.4647413,53.2002335 49.3121504,53.5833043 C47.3380216,54.2379525 45.3006976,54.686255 43.2550331,55.0280566 C41.2465801,55.3642003 39.2220876,55.5918462 37.1937456,55.7459398 C35.5298188,55.8717441 33.8614009,55.951287 32.1933037,55.9829045 C31.237035,56.0022078 30.2791623,56.0072 29.3232143,55.9872311 C28.8850181,55.9799091 28.4474634,55.9809076 28.0086255,55.9809076 L24.1841921,55.9809076 L21.2598895,55.9809076 C21.1129687,55.9809076 20.9666894,55.9809076 20.8210517,55.9522854 C20.5432493,55.9036944 20.2372177,55.7768916 20.0822771,55.5166299 C19.9206,55.2470493 20.011383,54.9318729 20.2311227,54.7328492 C20.5968209,54.4050259 21.0808899,54.4133463 21.5335216,54.4133463 L24.8636209,54.4133463 L28.463182,54.4133463 C29.0312973,54.4133463 29.5952425,54.4219995 30.1620747,54.421001 C31.596959,54.4176729 33.0344096,54.3767366 34.4664069,54.3045156 C36.4880122,54.2006771 38.5083345,54.0339365 40.5174291,53.7776685 C42.6994285,53.5017644 44.8743705,53.1263485 47.0053646,52.5645558 C48.1691831,52.2580327 49.306697,51.8909371 50.3781286,51.3158318 C51.4662412,50.7287452 52.4966119,49.9662647 53.3245655,49.0217341 C54.1056841,48.1237977 54.7661864,47.0068687 54.9281843,45.7894294 C55.0090228,45.1980161 54.9583383,44.5753182 54.7090861,44.0304991 C54.4704199,43.5156334 54.0655856,43.0989484 53.5722138,42.8460085 C52.4372662,42.2705704 51.0697473,42.5721013 49.9745774,43.0966187 C49.4135194,43.3632039 48.8906351,43.7026758 48.4056038,44.0963966 C47.9359703,44.4811314 47.5256825,44.9181182 47.0961475,45.3474503 C46.4279463,46.0137471 45.6718492,46.6470951 44.7159013,46.7529304 C44.138483,46.8154998 43.5408552,46.6247964 43.2033863,46.1109292 C42.8623887,45.5937338 42.8909389,44.916787 43.0641643,44.3436786 C43.194725,43.9110183 43.4135024,43.5252851 43.6438281,43.1485379 C43.9565963,42.6366675 44.3168411,42.1510896 44.6985787,41.692137 C45.5307026,40.6896965 46.4901792,39.775785 47.5404388,39.024953 C49.5918775,37.5598989 52.2249046,36.5774274 54.7264087,37.1804892 C55.8642434,37.4543964 56.9109743,38.066777 57.6763743,38.9866793 C58.50112,39.9744758 58.9399578,41.235514 58.9935294,42.5341604 Z M90.929664,23.3454587 C91.020075,24.5956828 91.022026,25.8511202 90.942998,27.1010184 C90.76998,29.7966409 90.208974,32.4606576 89.338033,35.0151941 C88.591326,37.2113135 87.613387,39.3246711 86.456901,41.3353911 C85.264642,43.4093228 83.884079,45.374752 82.357492,47.2179934 C80.78505,49.1104358 79.053248,50.871893 77.1923347,52.4860733 C75.169461,54.2351488 73.0109702,55.8346666 70.7549132,57.2680093 C69.6670494,57.9574735 68.5170685,58.5592884 67.3622092,59.1265649 C66.2216597,59.6856956 65.0612717,60.1982321 63.8849479,60.6732977 C61.6253134,61.5784638 59.3087652,62.3363531 56.9593698,62.9710772 C54.8002285,63.5530163 52.6134435,64.0251493 50.4074705,64.3988806 C48.5250922,64.7159169 46.6284042,64.9850555 44.7274883,65.1684999 C42.8005547,65.3558543 40.8658159,65.4842328 38.9327031,65.5979488 C37.2718002,65.6943956 35.6112225,65.7752024 33.9503196,65.8465599 C32.9213208,65.8889183 31.8942734,65.9211759 30.8662503,65.9417034 C29.0524936,65.9749384 27.237436,65.9977468 25.4227036,65.9997018 L24.4385853,65.9997018 L21.8524291,65.9997018 L18.2057277,65.9997018 L14.0510313,65.9997018 L9.9428414,65.9997018 L6.4376111,65.9997018 L4.0859391,65.9997018 L2.7925358,65.9997018 C1.9980212,65.9997018 1.1290311,66.0290268 0.4681823,65.5060637 C0.2405277,65.3245743 0.0580788,65.0740081 0.0122227,64.7833645 C-0.0355848,64.4901141 0.0600302,64.1981671 0.2434547,63.9684543 C0.5846114,63.5435671 1.1696837,63.324281 1.6962163,63.2630242 C2.2455143,63.1991608 2.8104229,63.2235983 3.364274,63.2235983 L5.6834239,63.2235983 L9.1701167,63.2235983 L13.2708264,63.2235983 L17.4343038,63.2235983 L21.1011689,63.2235983 L23.7257012,63.2235983 L24.7530739,63.2235983 C25.9011035,63.2235983 27.0484827,63.21643 28.1958618,63.19688 C30.2710961,63.1607124 32.3469808,63.1004332 34.4179872,63.0091997 C37.0132496,62.8974388 39.6081868,62.7413644 42.1969448,62.5217525 C43.4968526,62.4086882 44.7840767,62.2763997 46.0778052,62.1024044 C48.0811657,61.8319624 50.0780217,61.5009154 52.0540637,61.0682082 C54.4847643,60.5348183 56.8569252,59.7860524 59.1526592,58.8219104 C60.3621556,58.3116547 61.5479108,57.7443782 62.6969161,57.1063957 C63.8725895,56.4498407 64.9926501,55.7157373 66.0795382,54.9236355 C68.1723344,53.3993853 70.13179,51.706679 71.878226,49.79208 C73.4945736,48.0130277 74.9343264,46.070407 76.1275617,43.9831161 C77.3308788,41.8831176 78.2795481,39.6332356 78.8760031,37.2846261 C79.531648,34.7063037 79.750197,32.0178495 79.43831,29.3727312 C79.141058,26.8162397 78.3439418,24.3236116 77.0515141,22.0952347 C75.8472213,20.0112021 74.2292475,18.1630731 72.3195507,16.6951921 C70.3607455,15.1908177 68.1004606,14.1057914 65.718543,13.4609664 C63.1629576,12.767918 60.4772838,12.5962037 57.8426696,12.8702298 C55.2643187,13.1390427 52.7311735,13.820361 50.3362471,14.8050306 C47.9985596,15.7665659 45.7854317,17.018745 43.7329629,18.4918393 C41.5829278,20.0336846 39.6159921,21.8287027 37.8093903,23.7602451 C36.0288061,25.6647433 34.5074229,27.7758201 33.2107674,30.0403645 C31.9485853,32.2456073 30.8769826,34.564566 29.9471761,36.9294673 C29.7234242,37.4980472 29.5100793,38.0728179 29.2755951,38.6358586 C29.1113585,39.0304432 28.9614317,39.4393646 28.7532904,39.8121184 C28.1861052,40.8404497 27.1470246,41.9720702 25.8598005,41.8645451 C25.2867613,41.8189284 24.7852708,41.4960271 24.458749,41.0287816 C24.1166167,40.5380759 23.9699421,39.9333285 23.9364443,39.3432436 C23.8671723,38.2155331 24.2411763,37.13572 24.5511117,36.0679629 C25.1560225,33.9969636 25.8968756,31.9614803 26.7086269,29.9650969 C27.5951789,27.7777751 28.5890539,25.6331374 29.708464,23.5575765 C30.8935688,21.3559179 32.2217708,19.2278978 33.7210389,17.2243461 C34.5103499,16.1673414 35.393975,15.1768069 36.2899584,14.2087548 C37.1843158,13.244287 38.122578,12.3225033 39.0767759,11.4186405 C40.9679352,9.6268808 43.0090213,7.9931504 45.1779191,6.5510103 C47.2664875,5.1593744 49.4766884,3.9462954 51.7812034,2.94957 C54.1891386,1.9101604 56.7024453,1.1095869 59.2762431,0.6032412 C61.794103,0.1073223 64.3695269,-0.0976271 66.9329177,0.0437847 C69.5037885,0.1874774 72.0499426,0.684048 74.4764154,1.5452266 C76.6293774,2.3102842 78.6808706,3.3555588 80.548939,4.674208 C82.424163,6.0003513 84.104579,7.5956333 85.539778,9.3886963 C87.088155,11.3218679 88.343833,13.4818198 89.246971,15.7897001 C90.191087,18.2015215 90.746239,20.7615972 90.929664,23.3454587 Z" id="Combined-Shape"></path>
            <path d="M2.9879543,78.7688804 C3.2023644,78.9212366 3.4543956,79.034104 3.744048,79.1074825 C4.0337004,79.1814504 4.3328345,79.2179923 4.6426739,79.2179923 C4.8521901,79.2179923 5.0766936,79.2009002 5.3161845,79.1664211 C5.5559812,79.1322367 5.7804847,79.0659308 5.9903068,78.9677981 C6.1995172,78.8696654 6.3744709,78.7346961 6.5142503,78.5628901 C6.6540298,78.3910842 6.7237666,78.1724221 6.7237666,77.9074932 C6.7237666,77.6228199 6.6313959,77.3920754 6.4469605,77.2152597 C6.2619133,77.0387387 6.0199755,76.8913923 5.7208414,76.7735151 C5.4210955,76.655638 5.0815875,76.5524955 4.7023172,76.4643824 C4.322741,76.3759745 3.9388828,76.2778418 3.5492132,76.1699842 C3.1500618,76.0718515 2.760698,75.9513221 2.3814277,75.8089855 C2.0018516,75.6666488 1.6626494,75.4827605 1.3632094,75.2567311 C1.0637694,75.031291 0.8215258,74.7489753 0.6367845,74.4100785 C0.4520431,74.0714764 0.3599783,73.6615587 0.3599783,73.1806199 C0.3599783,72.6407426 0.4771239,72.1715916 0.7120268,71.7743456 C0.9463179,71.3765103 1.2530987,71.0452755 1.6326748,70.7803467 C2.0119451,70.5151231 2.4413769,70.3188577 2.9203586,70.1912557 C3.3996461,70.0636537 3.8789336,70 4.3579153,70 C4.9170331,70 5.4532112,70.0610014 5.9676729,70.1838883 C6.481523,70.3067753 6.9384825,70.5053982 7.3376339,70.7803467 C7.7370911,71.0550004 8.0539653,71.4062743 8.2888682,71.8332842 C8.5231594,72.2602942 8.6406108,72.7780695 8.6406108,73.3869049 L6.3646833,73.3869049 C6.3441904,73.0724677 6.2772064,72.8125486 6.1622019,72.6062636 C6.0475032,72.4002733 5.8951834,72.2378975 5.7055482,72.1203151 C5.5159131,72.0024379 5.2987503,71.9193345 5.0543656,71.8698261 C4.8093693,71.8209071 4.5426566,71.7961529 4.2530042,71.7961529 C4.0633691,71.7961529 3.873734,71.816192 3.6840988,71.8550915 C3.4944637,71.8942856 3.3222627,71.9632438 3.167496,72.0613765 C3.0124234,72.1598039 2.8851843,72.2821014 2.7854729,72.4294479 C2.6857616,72.5767943 2.6359059,72.7633349 2.6359059,72.9890696 C2.6359059,73.1953546 2.6756681,73.3621507 2.7558042,73.489458 C2.8353286,73.6176494 2.9928481,73.7352319 3.2274452,73.8430895 C3.4620422,73.9515364 3.7862571,74.0590993 4.2007016,74.1669569 C4.6148403,74.2754039 5.1565239,74.4127307 5.8254466,74.5792322 C6.0248693,74.618721 6.3019813,74.6900367 6.6564767,74.7928845 C7.0106662,74.896027 7.3627147,75.0604656 7.7120104,75.2862003 C8.0616119,75.5122298 8.3634988,75.8139952 8.6182828,76.1917915 C8.8724551,76.5698824 9,77.0534734 9,77.6422697 C9,78.1235031 8.9051824,78.5702575 8.7155473,78.9825328 C8.5259121,79.394808 8.2439063,79.7505023 7.8695299,80.04991 C7.4951534,80.349613 7.0308532,80.582715 6.4766292,80.749511 C5.9227111,80.916307 5.2813161,81 4.5527501,81 C3.9633519,81 3.3919995,80.92839 2.8380814,80.786053 C2.2841633,80.644011 1.7947823,80.420634 1.370856,80.116511 C0.9463179,79.8120931 0.6092568,79.4239826 0.3599783,78.9527688 C0.1100881,78.4815549 -0.0095043,77.9219332 0.0005891,77.2741983 L2.2765167,77.2741983 C2.2765167,77.6278297 2.3413597,77.9272377 2.4713515,78.1724221 C2.6007316,78.4181959 2.7732384,78.6168189 2.9879543,78.7688804 Z M18.6700879,79.9376628 C17.7832562,80.645687 16.5569867,81 14.9919501,81 C13.4044409,81 12.175488,80.6484 11.3050916,79.9452013 C10.4346951,79.2420022 10,78.1570493 10,76.6903424 L10,70 L12.5779835,70 L12.5779835,76.6903424 C12.5779835,76.9816333 12.6051519,77.2680995 12.6598242,77.5494394 C12.7144965,77.8307794 12.8295432,78.0792511 13.0046287,78.2951561 C13.1797142,78.5113627 13.4235594,78.6868609 13.7354934,78.8225554 C14.0474274,78.9579484 14.4663581,79.0260972 14.9919501,79.0260972 C15.9113168,79.0260972 16.545918,78.8376326 16.8967599,78.461005 C17.246931,78.0840758 17.4220165,77.494257 17.4220165,76.6903424 L17.4220165,70 L20,70 L20,76.6903424 C20,78.1470983 19.5569196,79.2293374 18.6700879,79.9376628 Z M28.2599223,70 C28.7803647,70 29.2493274,70.0795426 29.6664785,70.2389361 C30.0836295,70.3983295 30.4413298,70.6166092 30.7395795,70.893775 C31.0374971,71.1709409 31.2653359,71.4921943 31.422764,71.856302 C31.5798598,72.2213347 31.6582417,72.6141147 31.6582417,73.0349505 C31.6582417,73.6820819 31.5144309,74.2419631 31.2274735,74.7142857 C30.940184,75.1869167 30.4715534,75.5460915 29.8209173,75.7927352 L29.8209173,75.8235657 C30.1351091,75.905883 30.3954964,76.0316713 30.6014149,76.2009305 C30.8073334,76.3704981 30.9757215,76.570896 31.105583,76.8018162 C31.2357767,77.0327363 31.3304328,77.2870876 31.3902156,77.5642535 C31.4493341,77.8417276 31.4905178,78.1188935 31.512106,78.3963676 C31.5227341,78.5711763 31.5336942,78.7765072 31.5443223,79.0126685 C31.5552825,79.2488298 31.5742137,79.489924 31.6014481,79.7365677 C31.6283503,79.9829031 31.6718589,80.216906 31.7316417,80.437652 C31.7910924,80.658707 31.8804344,80.845848 32,81 L29.4472749,81 C29.3061211,80.650999 29.219436,80.234788 29.1868876,79.751983 C29.1546714,79.2694863 29.1055166,78.8070293 29.0407519,78.3655372 C28.9534026,77.7905491 28.7694045,77.369405 28.4877611,77.1024132 C28.2057856,76.8351131 27.745126,76.7016172 27.1057823,76.7016172 L24.5527251,76.7016172 L24.5527251,81 L22,81 L22,70 L28.2599223,70 Z M27.3495633,74.9763446 C27.9347703,74.9763446 28.3738417,74.8530228 28.6664452,74.6066874 C28.9590488,74.3600437 29.1055166,73.959556 29.1055166,73.4049161 C29.1055166,72.8709325 28.9590488,72.4830853 28.6664452,72.2416828 C28.3738417,72.0002803 27.9347703,71.8797332 27.3495633,71.8797332 L24.5527251,71.8797332 L24.5527251,74.9763446 L27.3495633,74.9763446 Z M41,70 L41,72.0338855 L35.5019531,72.0338855 L35.5019531,74.5755486 L40.2672526,74.5755486 L40.2672526,76.4552818 L35.5019531,76.4552818 L35.5019531,81 L33,81 L33,70 L41,70 Z M49.2600465,70 C49.7804716,70 50.2490867,70.0795426 50.6662238,70.2389361 C51.0836931,70.3983295 51.4413816,70.6166092 51.7396214,70.893775 C52.0375291,71.1709409 52.2653603,71.4921943 52.422451,71.856302 C52.5795417,72.2213347 52.6582531,72.6141147 52.6582531,73.0349505 C52.6582531,73.6820819 52.514447,74.2419631 52.2274992,74.7142857 C51.9398871,75.1869167 51.4716041,75.5460915 50.8206576,75.7927352 L50.8206576,75.8235657 C51.135171,75.905883 51.3952175,76.0316713 51.6014613,76.2009305 C51.8070409,76.3704981 51.9754234,76.570896 52.1052806,76.8018162 C52.2358021,77.0327363 52.330455,77.2870876 52.3902358,77.5642535 C52.4493524,77.8417276 52.4902026,78.1188935 52.5117901,78.3963676 C52.5227499,78.5711763 52.5337097,78.7765072 52.5443374,79.0126685 C52.5549651,79.2488298 52.5742278,79.489924 52.6011292,79.7365677 C52.6283627,79.9829031 52.6718698,80.216906 52.7313185,80.437652 C52.7910993,80.658707 52.8804384,80.845848 53,81 L50.4470276,81 C50.3062106,80.650999 50.2191963,80.234788 50.1869811,79.751983 C50.1541016,79.2694863 50.1052806,78.8070293 50.0405181,78.3655372 C49.9535038,77.7905491 49.7695118,77.369405 49.4878778,77.1024132 C49.2055795,76.8351131 48.7449352,76.7016172 48.1056128,76.7016172 L45.5529724,76.7016172 L45.5529724,81 L43,81 L43,70 L49.2600465,70 Z M48.3493856,74.9763446 C48.9345732,74.9763446 49.3739621,74.8530228 49.666556,74.6066874 C49.9591498,74.3600437 50.1052806,73.959556 50.1052806,73.4049161 C50.1052806,72.8709325 49.9591498,72.4830853 49.666556,72.2416828 C49.3739621,72.0002803 48.9345732,71.8797332 48.3493856,71.8797332 L45.5529724,71.8797332 L45.5529724,74.9763446 L48.3493856,74.9763446 Z M54,81 L54,70 L57,70 L57,81 L54,81 Z M64.8734689,70 C65.6013057,70 66.2790472,70.1134561 66.9066934,70.3391351 C67.5343395,70.5651223 68.0776316,70.9042574 68.5362464,71.3559237 C68.9951844,71.8078982 69.3539317,72.3727122 69.6124883,73.0503658 C69.8707217,73.7283276 70,74.5243701 70,75.4384932 C70,76.2394686 69.894315,76.978783 69.6835914,77.6570532 C69.4725445,78.3347067 69.1535503,78.9201771 68.7262855,79.4131562 C68.2990207,79.9061353 67.7663941,80.293982 67.1284057,80.576081 C66.490094,80.859105 65.7383407,81 64.8734689,81 L60,81 L60,70 L64.8734689,70 Z M64.6995895,78.9664228 C65.0580136,78.9664228 65.4060955,78.9100031 65.743835,78.7968553 C66.0812514,78.6840158 66.3818235,78.4965666 66.6458744,78.2345077 C66.9089558,77.9727571 67.1203258,77.6311556 67.2786917,77.2103198 C67.4367344,76.7888674 67.5159174,76.2758485 67.5159174,75.6694134 C67.5159174,75.1147734 67.4603277,74.6140867 67.3494716,74.1673533 C67.2389386,73.7209283 67.0569794,73.338014 66.8035939,73.0198436 C66.5508549,72.7013649 66.2157009,72.4571877 65.7991015,72.2879285 C65.382179,72.1183609 64.8682977,72.0338855 64.2564882,72.0338855 L62.4844058,72.0338855 L62.4844058,78.9664228 L64.6995895,78.9664228 Z M80,70 L80,72.0338855 L73.6068966,72.0338855 L73.6068966,74.3908742 L79.352176,74.3908742 L79.352176,76.2702991 L73.6068966,76.2702991 L73.6068966,78.9664228 L80,78.9664228 L80,81 L71,81 L71,70 L80,70 Z M87.259922,70 C87.780365,70 88.249327,70.0795426 88.666478,70.2389361 C89.083629,70.3983295 89.44133,70.6166092 89.73958,70.893775 C90.037497,71.1709409 90.265336,71.4921943 90.422764,71.856302 C90.57986,72.2213347 90.658242,72.6141147 90.658242,73.0349505 C90.658242,73.6820819 90.514431,74.2419631 90.227474,74.7142857 C89.940184,75.1869167 89.471553,75.5460915 88.820917,75.7927352 L88.820917,75.8235657 C89.135109,75.905883 89.395496,76.0316713 89.601415,76.2009305 C89.807333,76.3704981 89.975722,76.570896 90.105583,76.8018162 C90.235777,77.0327363 90.330433,77.2870876 90.390216,77.5642535 C90.449334,77.8417276 90.490518,78.1188935 90.512106,78.3963676 C90.522734,78.5711763 90.533694,78.7765072 90.544322,79.0126685 C90.555282,79.2488298 90.574214,79.489924 90.601448,79.7365677 C90.62835,79.9829031 90.671859,80.216906 90.731642,80.437652 C90.791092,80.658707 90.880434,80.845848 91,81 L88.447275,81 C88.306121,80.650999 88.219436,80.234788 88.186888,79.751983 C88.154339,79.2694863 88.105517,78.8070293 88.040752,78.3655372 C87.953403,77.7905491 87.769404,77.369405 87.487761,77.1024132 C87.205786,76.8351131 86.745126,76.7016172 86.105782,76.7016172 L83.552725,76.7016172 L83.552725,81 L81,81 L81,70 L87.259922,70 Z M86.349563,74.9763446 C86.93477,74.9763446 87.373842,74.8530228 87.666445,74.6066874 C87.959049,74.3600437 88.105517,73.959556 88.105517,73.4049161 C88.105517,72.8709325 87.959049,72.4830853 87.666445,72.2416828 C87.373842,72.0002803 86.93477,71.8797332 86.349563,71.8797332 L83.552725,71.8797332 L83.552725,74.9763446 L86.349563,74.9763446 Z M0,89 L0,84 L4,84 L4,84.562113 L0.7665493,84.562113 L0.7665493,86.131675 L3.7059859,86.131675 L3.7059859,86.693789 L0.7665493,86.693789 L0.7665493,89 L0,89 Z M9.3656786,84.734579 C9.5754688,84.961019 9.735751,85.230104 9.8415744,85.534627 C9.9467789,85.837348 10,86.164394 10,86.506157 C10,86.844315 9.9467789,87.166857 9.8415744,87.465373 C9.735751,87.765692 9.5767065,88.032374 9.3690822,88.258214 C9.1611486,88.485254 8.8968996,88.667848 8.5837614,88.800589 C8.2715515,88.932729 7.905811,89 7.4964416,89 C7.0870722,89 6.7213318,88.932729 6.4091219,88.800589 C6.0959837,88.667848 5.8317346,88.485254 5.6234916,88.258214 C5.4158673,88.032074 5.2580605,87.765091 5.1547125,87.464773 C5.0519834,87.167157 5,86.844615 5,86.506157 C5,86.163193 5.0532211,85.837348 5.1584256,85.53763 C5.264249,85.23581 5.4229841,84.967926 5.6306083,84.741486 C5.8397797,84.513544 6.1012439,84.331251 6.408503,84.199411 C6.7157621,84.066971 7.0743858,84 7.4750913,84 C7.8884832,84 8.2579368,84.06577 8.5723126,84.195808 C8.8873074,84.325845 9.1543412,84.507238 9.3656786,84.734579 Z M9.3263816,86.506157 C9.3263816,86.197429 9.2830621,85.917232 9.1979702,85.672773 C9.1131877,85.431017 8.9897271,85.222596 8.8313014,85.053517 C8.6738041,84.885939 8.4797945,84.756202 8.2551519,84.668208 C8.0286528,84.579614 7.7709017,84.534867 7.4893248,84.534867 C7.1761866,84.534867 6.9026549,84.589525 6.6755369,84.697339 C6.4474906,84.805754 6.257813,84.951108 6.1114549,85.129497 C5.9632403,85.309688 5.8524661,85.520211 5.7819172,85.755661 C5.7101306,85.993813 5.6736184,86.246381 5.6736184,86.506157 C5.6736184,86.770136 5.7101306,87.024806 5.7819172,87.263259 C5.8524661,87.498709 5.9632403,87.708031 6.1111455,87.885819 C6.2568847,88.061806 6.4465623,88.203556 6.6742992,88.308067 C6.9014172,88.411977 7.1805186,88.464532 7.5035584,88.464532 C7.8222662,88.464532 8.0985828,88.411076 8.3247726,88.305063 C8.5522,88.199351 8.7418776,88.056099 8.8891639,87.879212 C9.0367597,87.701424 9.1475339,87.491801 9.2183922,87.256652 C9.2901788,87.018199 9.3263816,86.765632 9.3263816,86.506157 Z M15.356821,86.889019 L15.356821,84 L16,84 L16,87.019512 C16,87.653515 15.831893,88.146867 15.5001108,88.486027 C15.1665559,88.827034 14.6619396,89 14.0001477,89 C13.3330379,89 12.8269444,88.823649 12.495753,88.475255 C12.1669252,88.129632 12,87.639973 12,87.019512 L12,84 L12.6434744,84 L12.6434744,86.889019 C12.6434744,87.449772 12.7516065,87.855718 12.9649162,88.095777 C13.1740897,88.331528 13.5224167,88.45125 14.0001477,88.45125 C14.2527513,88.45125 14.4693109,88.419242 14.6430312,88.355841 C14.8120245,88.29398 14.9502917,88.199803 15.0539922,88.075157 C15.1594652,87.948049 15.2368713,87.786471 15.2838467,87.595347 C15.3322993,87.397144 15.356821,87.159547 15.356821,86.889019 Z M21.3620387,88.034528 L21.3620387,84 L22,84 L22,89 L21.3280609,89 L18.6379613,84.972099 L18.6379613,89 L18,89 L18,84 L18.6584651,84 L21.3620387,88.034528 Z M28.795223,85.377264 C28.8700386,85.566938 28.9234282,85.761661 28.9543379,85.955753 C28.9845451,86.149214 29,86.330051 29,86.493215 C29,86.657009 28.9873551,86.825222 28.9624166,86.99312 C28.9371268,87.163227 28.8963822,87.331124 28.8412364,87.492079 C28.7853881,87.655558 28.7102213,87.814303 28.6178433,87.96358 C28.5244117,88.115067 28.4049877,88.255823 28.2630839,88.382061 C28.1222339,88.512087 27.9641728,88.619706 27.7945205,88.700183 C27.6297857,88.778451 27.4520548,88.840939 27.2669477,88.885754 C27.0860555,88.929306 26.8946259,88.959604 26.6979276,88.975699 C26.5036881,88.991794 26.3055848,89 26.1092378,89 L24,89 L24,84 L26.1092378,84 C26.2739726,84 26.4355462,84.003472 26.5950123,84.010099 C26.7572884,84.017358 26.9185107,84.033453 27.0737619,84.058385 C27.2328767,84.084264 27.3888303,84.123083 27.5381103,84.174209 C27.6894977,84.226283 27.8377239,84.294767 27.9789252,84.378716 C28.1847559,84.500852 28.3558131,84.652339 28.4875307,84.828757 C28.6164384,85.001704 28.719705,85.186013 28.795223,85.377264 Z M28.2349842,86.493215 C28.2349842,86.323739 28.2216368,86.147952 28.1952933,85.970902 C28.1689498,85.797639 28.1190727,85.631004 28.0467158,85.475415 C27.9747102,85.321404 27.8760098,85.177807 27.7527222,85.048728 C27.6322445,84.922805 27.4738321,84.816765 27.2813488,84.733131 C27.119424,84.662438 26.9241307,84.616361 26.7000351,84.595216 C26.4632947,84.573439 26.223393,84.562393 25.9870039,84.562393 L24.7650158,84.562393 L24.7650158,88.437291 L25.9870039,88.437291 C26.2314717,88.437291 26.4632947,88.425298 26.6768528,88.401313 C26.883386,88.378274 27.0979979,88.319573 27.314366,88.226157 C27.4956094,88.151676 27.6445381,88.049738 27.7590446,87.923184 C27.8774148,87.79158 27.9726027,87.646405 28.0417984,87.492079 C28.112399,87.335858 28.1626273,87.169539 28.1910783,86.997538 C28.2202318,86.823645 28.2349842,86.653853 28.2349842,86.493215 Z M32.17536,84 L32.8784,84 L35,89 L34.2736,89 L33.65792,87.48504 L31.35776,87.48504 L30.72704,89 L30,89 L32.17536,84 Z M33.416,86.922611 L32.50816,84.724025 L31.60032,86.922611 L33.416,86.922611 Z M35,84.562113 L35,84 L39,84 L39,84.562113 L37.3414634,84.562113 L37.3414634,89 L36.6585366,89 L36.6585366,84.562113 L35,84.562113 Z M40,89 L40,84 L41,84 L41,89 L40,89 Z M47.3653691,84.734579 C47.5754688,84.960718 47.7354415,85.229804 47.8415744,85.534627 C47.9467789,85.837348 48,86.164094 48,86.506157 C48,86.844615 47.9467789,87.167157 47.8415744,87.465373 C47.7354415,87.765391 47.5767065,88.032374 47.3693917,88.258214 C47.1611486,88.485254 46.8968996,88.667848 46.5840708,88.800589 C46.2715515,88.932729 45.9055016,89 45.4964416,89 C45.0870722,89 44.7210223,88.932729 44.4088124,88.800589 C44.0959837,88.667848 43.8317346,88.485555 43.6234916,88.258214 C43.4158673,88.032074 43.2583699,87.765391 43.1547125,87.464773 C43.0519834,87.167157 43,86.844615 43,86.506157 C43,86.163193 43.0532211,85.837348 43.1584256,85.53763 C43.264249,85.23551 43.4232935,84.967626 43.6306083,84.741186 C43.8394703,84.513544 44.1012439,84.331251 44.408503,84.199411 C44.7157621,84.066971 45.0746952,84 45.4747819,84 C45.8884832,84 46.2579368,84.06577 46.5723126,84.195808 C46.886998,84.325545 47.1540318,84.506937 47.3653691,84.734579 Z M47.3263816,86.506157 C47.3263816,86.197429 47.2830621,85.916932 47.1976607,85.672773 C47.1131877,85.431317 46.9897271,85.222896 46.8313014,85.053517 C46.6738041,84.885939 46.480104,84.756502 46.2554614,84.668208 C46.0286528,84.579614 45.7709017,84.534867 45.4893248,84.534867 C45.1761866,84.534867 44.9023454,84.589525 44.6758463,84.697339 C44.4478,84.805754 44.257813,84.951108 44.1114549,85.129497 C43.9635497,85.309388 43.8524661,85.520211 43.7816078,85.755661 C43.7098212,85.994114 43.6736184,86.246681 43.6736184,86.506157 C43.6736184,86.769836 43.7098212,87.024506 43.7816078,87.263259 C43.8527755,87.499009 43.9635497,87.708631 44.1111455,87.885819 C44.2571941,88.061806 44.4468717,88.203856 44.6742992,88.308067 C44.9014172,88.411977 45.1802092,88.464532 45.5035584,88.464532 C45.8219568,88.464532 46.0982734,88.410775 46.325082,88.305063 C46.5525094,88.199051 46.742187,88.055799 46.8888545,87.879512 C47.0364503,87.701424 47.1475339,87.492102 47.2183922,87.256652 C47.2898694,87.017899 47.3263816,86.765331 47.3263816,86.506157 Z M53.3620387,84 L54,84 L54,89 L53.3280609,89 L50.6379613,84.972415 L50.6379613,89 L50,89 L50,84 L50.6581722,84 L53.3620387,88.034528 L53.3620387,84 Z M61.8712254,84.885338 L59.0777806,84.885338 L59.0777806,85.946861 L61.6419599,85.946861 L61.6419599,86.815494 L59.0777806,86.815494 L59.0777806,88.101109 L62,88.101109 L62,89 L58,89 L58,84 L61.8712254,84 L61.8712254,84.885338 Z M64,84 L65.0584354,84 L65.0584354,86.993486 C65.0584354,87.328417 65.0989632,87.573009 65.1797047,87.727262 C65.3053723,88.00043 65.5793277,88.136861 66.001885,88.136861 C66.4216148,88.136861 66.6946277,88.00043 66.8206095,87.727262 C66.9013509,87.573009 66.9415646,87.328417 66.9415646,86.993486 L66.9415646,84 L68,84 L68,86.995944 C68,87.514319 67.9180019,87.917466 67.7536915,88.206305 C67.4476909,88.735435 66.8636506,89 66.001885,89 C65.1398052,89 64.5548225,88.735435 64.2466227,88.206305 C64.0823123,87.917466 64,87.514319 64,86.995944 L64,84 Z M73.12294,84.128601 C73.303675,84.208031 73.4568665,84.32434 73.582205,84.478157 C73.6861896,84.604867 73.7685106,84.744815 73.8291683,84.898947 C73.8898259,85.052764 73.9201547,85.228015 73.9201547,85.424699 C73.9201547,85.662359 73.861354,85.895606 73.7434429,86.125071 C73.6258414,86.354851 73.4317988,86.516863 73.1606963,86.611738 C73.387234,86.704722 73.5475435,86.836475 73.6419342,87.006997 C73.736325,87.177835 73.783675,87.438505 73.783675,87.789321 L73.783675,88.125008 C73.783675,88.353527 73.7926499,88.50829 73.8105996,88.589611 C73.8378337,88.718527 73.9009671,88.813717 74,88.874551 L74,89 L72.8676209,89 C72.8363636,88.889365 72.8143907,88.800164 72.8010832,88.732081 C72.7744681,88.591817 72.7599226,88.448087 72.7577563,88.301519 L72.7509478,87.836601 C72.7469246,87.51762 72.692766,87.30486 72.5887814,87.198954 C72.4847969,87.092732 72.2901354,87.039463 72.0044874,87.039463 L71.0023985,87.039463 L71.0023985,89 L70,89 L70,84 L72.3483172,84 C72.6837911,84.006934 72.9418956,84.049486 73.12294,84.128601 Z M71.0023985,84.868373 L71.0023985,86.211751 L72.1063056,86.211751 C72.3257253,86.211751 72.4903675,86.184644 72.5999226,86.130429 C72.7939652,86.035239 72.8911412,85.847381 72.8911412,85.567169 C72.8911412,85.264263 72.79706,85.060329 72.609207,84.956313 C72.5039845,84.897686 72.3458414,84.868373 72.135087,84.868373 L71.0023985,84.868373 Z M79.21089,88.448448 C78.8169922,88.816249 78.2471888,89 77.5018084,89 C76.7560992,89 76.1866246,88.816249 75.7923982,88.448448 C75.2640231,87.997558 75,87.348323 75,86.499851 C75,85.634403 75.2640231,84.984871 75.7923982,84.550956 C76.1866246,84.183751 76.7560992,84 77.5018084,84 C78.2471888,84 78.8169922,84.183751 79.21089,84.550956 C79.736963,84.984871 80,85.634403 80,86.499851 C80,87.348323 79.736963,87.997558 79.21089,88.448448 Z M78.5296245,87.730717 C78.7831262,87.442135 78.9100414,87.031747 78.9100414,86.499851 C78.9100414,85.97004 78.7831262,85.560248 78.5296245,85.270475 C78.2761228,84.981297 77.9335175,84.836262 77.5018084,84.836262 C77.0700993,84.836262 76.7255211,84.980702 76.4684027,85.268986 C76.2112843,85.557567 76.0827251,85.967657 76.0827251,86.499851 C76.0827251,87.031747 76.2112843,87.442135 76.4684027,87.730717 C76.7255211,88.019298 77.0700993,88.163143 77.5018084,88.163143 C77.9335175,88.163143 78.2761228,88.019298 78.5296245,87.730717 Z M84.534386,86.835844 C84.2242,87.079808 83.780647,87.202106 83.20473,87.202106 L82.100694,87.202106 L82.100694,89 L81,89 L81,84 L83.276594,84 C83.80137,84 84.219855,84.128601 84.532046,84.386434 C84.844238,84.644267 85,85.043308 85,85.583874 C85,86.174242 84.844907,86.59125 84.534386,86.835844 Z M83.688727,85.034483 C83.548676,84.923533 83.351801,84.868373 83.099106,84.868373 L82.100694,84.868373 L82.100694,86.340667 L83.099106,86.340667 C83.351801,86.340667 83.548676,86.280464 83.688727,86.160688 C83.829113,86.040598 83.899306,85.850848 83.899306,85.590809 C83.899306,85.330455 83.829113,85.145433 83.688727,85.034483 Z M89.871225,84.885338 L87.077781,84.885338 L87.077781,85.946861 L89.64196,85.946861 L89.64196,86.815494 L87.077781,86.815494 L87.077781,88.101109 L90,88.101109 L90,89 L86,89 L86,84 L89.871225,84 L89.871225,84.885338 Z" id="Combined-Shape"></path>
        </g>
    </g>
</svg>