<?xml version="1.0" encoding="UTF-8"?>
<svg width="91px" height="89px" viewBox="0 0 91 89" version="1.1" xmlns="http://www.w3.org/2000/svg" xmlns:xlink="http://www.w3.org/1999/xlink">
    <!-- Generator: Sketch 50.2 (55047) - http://www.bohemiancoding.com/sketch -->
    <title>SFE_Logo-V-Blue Copy</title>
    <desc>Created with Sketch.</desc>
    <defs>
        <polygon id="path-1" points="0 129 130 129 130 0 0 0"></polygon>
    </defs>
    <g id="CRM" stroke="none" stroke-width="1" fill="none" fill-rule="evenodd">
        <g id="login-/-home" transform="translate(-676.000000, -133.000000)">
            <g id="logo" transform="translate(628.000000, 85.000000)">
                <g id="SFE_Logo-V-Blue-Copy" transform="translate(27.000000, 28.000000)">
                    <path d="M91.9693564,55.570248 C91.8043293,53.0400221 90.965953,50.5792709 89.4616553,48.5212812 C88.0842767,46.6332966 86.2079414,45.1387888 84.0541927,44.2061622 C81.6440224,43.1614795 78.9748467,42.8233903 76.3631559,43.0840007 C73.8134715,43.3372474 71.3306375,44.1347665 69.0522304,45.285102 C66.7657496,46.4392795 64.6979054,47.9513961 62.835134,49.6930675 C61.867578,50.5955991 60.9439431,51.5493563 60.1126717,52.5789914 C59.3120805,53.5689267 58.595779,54.6251352 57.9469739,55.7188024 C57.3175458,56.7769318 56.7378518,57.8747611 56.2308215,58.997883 C55.8106645,59.93115 55.361765,60.9034764 55.330116,61.9414358 C55.3126767,62.5142024 55.4156975,63.1074592 55.7399386,63.594743 C56.0473863,64.056414 56.5463429,64.3589654 57.1014927,64.4165942 C58.2547446,64.5388954 59.3472819,63.7125619 60.0225688,62.861256 C60.5134517,62.2414259 60.8816139,61.5271485 61.269153,60.842646 C61.9031024,59.7195241 62.6203728,58.6409044 63.4509983,57.6528901 C64.2987401,56.6447056 65.2537011,55.7127193 66.266793,54.8703779 C67.2317654,54.0696572 68.2735997,53.3579412 69.3816386,52.7618029 C71.639377,51.5458345 74.2145744,50.7908968 76.8023669,50.9196012 C79.2474158,51.0422225 81.6307814,52.0043039 83.313993,53.7920784 C84.1420349,54.672839 84.784704,55.7168814 85.191943,56.8502485 C85.6295393,58.0639757 85.7965041,59.3673479 85.7312683,60.6521507 C85.6030574,63.0879294 84.6374391,65.4148536 83.2713637,67.4200169 C81.8616902,69.4917735 80.010545,71.2366465 77.9310746,72.6405489 C76.839829,73.3753165 75.6552511,73.9621702 74.4290128,74.4443314 C73.4446634,74.833326 72.4428748,75.1893442 71.4281682,75.4954173 C69.506943,76.0752274 67.5301705,76.4629414 65.5459702,76.7651726 C63.5766255,77.0622813 61.5943629,77.2678241 59.6088708,77.4144575 C58.0212522,77.5303555 56.4300812,77.6087947 54.8382642,77.6504155 C53.9378817,77.6728267 53.0391139,77.6779493 52.1371166,77.6840324 C51.6804663,77.6891549 51.2209095,77.6859533 50.7616756,77.6859533 L47.7324115,77.6859533 L43.7284865,77.6859533 L39.6489913,77.6859533 L36.3904332,77.6859533 L34.8544865,77.6859533 C34.6432777,77.6859533 34.4288393,77.7022815 34.2179535,77.7471039 C33.6934839,77.8630019 33.0440329,78.1886048 33.0020495,78.7949882 C32.9594202,79.4154586 33.5901401,79.7849235 34.1171933,79.9123473 C34.5040865,80.0067945 34.9187534,79.9994308 35.3153351,79.9994308 L36.7285611,79.9994308 L40.007142,79.9994308 L44.1144108,79.9994308 L48.0149921,79.9994308 L50.6612384,79.9994308 C50.9715927,79.9994308 51.2774256,80.0007115 51.5845504,79.9994308 C53.0123091,79.9914268 54.4365154,79.9526874 55.8603987,79.893778 C58.3122295,79.791967 60.7617997,79.6283652 63.204588,79.3840829 C65.3186139,79.1714966 67.425212,78.9028822 69.5134019,78.492757 C71.6106345,78.0797503 73.6852606,77.537399 75.6901296,76.7936669 C76.7997833,76.3838618 77.8858617,75.9106651 78.9380304,75.3663928 C80.0680299,74.7782585 81.1347314,74.0934358 82.1584805,73.3413796 C84.1891855,71.861279 86.0270898,70.1416987 87.5756316,68.1669506 C88.9891805,66.3650891 90.1676224,64.3589654 90.9549727,62.2090897 C91.729728,60.0896293 92.1159753,57.8251362 91.9693564,55.570248" id="Fill-1" fill="#00BFAC"></path>
                    <path d="M79.9935294,62.5341604 C79.9399578,61.235514 79.50112,59.9744758 78.6763743,58.9866793 C77.9109743,58.066777 76.8642434,57.4543964 75.7264087,57.1804892 C73.2249046,56.5774274 70.5918775,57.5598989 68.5404388,59.024953 C67.4901792,59.775785 66.5307026,60.6896965 65.6985787,61.692137 C65.3168411,62.1510896 64.9565963,62.6366675 64.6438281,63.1485379 C64.4135024,63.5252851 64.194725,63.9110183 64.0641643,64.3436786 C63.8909389,64.916787 63.8623887,65.5937338 64.2033863,66.1109292 C64.5408552,66.6247964 65.138483,66.8154998 65.7159013,66.7529304 C66.6718492,66.6470951 67.4279463,66.0137471 68.0961475,65.3474503 C68.5256825,64.9181182 68.9359703,64.4811314 69.4056038,64.0963966 C69.8906351,63.7026758 70.4135194,63.3632039 70.9745774,63.0966187 C72.0697473,62.5721013 73.4372662,62.2705704 74.5722138,62.8460085 C75.0655856,63.0989484 75.4704199,63.5156334 75.7090861,64.0304991 C75.9583383,64.5753182 76.0090228,65.1980161 75.9281843,65.7894294 C75.7661864,67.0068687 75.1056841,68.1237977 74.3245655,69.0217341 C73.4966119,69.9662647 72.4662412,70.7287452 71.3781286,71.3158318 C70.306697,71.8909371 69.1691831,72.2580327 68.0053646,72.5645558 C65.8743705,73.1263485 63.6994285,73.5017644 61.5174291,73.7776685 C59.5083345,74.0339365 57.4880122,74.2006771 55.4664069,74.3045156 C54.0344096,74.3767366 52.596959,74.4176729 51.1620747,74.421001 C50.5952425,74.4219995 50.0312973,74.4133463 49.463182,74.4133463 L45.8636209,74.4133463 L42.5335216,74.4133463 C42.0808899,74.4133463 41.5968209,74.4050259 41.2311227,74.7328492 C41.011383,74.9318729 40.9206,75.2470493 41.0822771,75.5166299 C41.2372177,75.7768916 41.5432493,75.9036944 41.8210517,75.9522854 C41.9666894,75.9809076 42.1129687,75.9809076 42.2598895,75.9809076 L45.1841921,75.9809076 L49.0086255,75.9809076 C49.4474634,75.9809076 49.8850181,75.9799091 50.3232143,75.9872311 C51.2791623,76.0072 52.237035,76.0022078 53.1933037,75.9829045 C54.8614009,75.951287 56.5298188,75.8717441 58.1937456,75.7459398 C60.2220876,75.5918462 62.2465801,75.3642003 64.2550331,75.0280566 C66.3006976,74.686255 68.3380216,74.2379525 70.3121504,73.5833043 C71.4647413,73.2002335 72.6109165,72.7835485 73.6823481,72.1967946 C74.8201829,71.5727654 75.8624228,70.7433891 76.7760267,69.8075117 C78.4633711,68.0718785 79.8462878,65.7524869 79.9883968,63.2373996 C80.0012283,63.0027647 80.0041154,62.7667984 79.9935294,62.5341604" id="Fill-3" fill="#00BFAC"></path>
                    <path d="M111.929664,43.3454587 C111.746239,40.7615972 111.191087,38.2015215 110.246971,35.7897001 C109.343833,33.4818198 108.088155,31.3218679 106.539778,29.3886963 C105.104579,27.5956333 103.424163,26.0003513 101.548939,24.674208 C99.6808706,23.3555588 97.6293774,22.3102842 95.4764154,21.5452266 C93.0499426,20.684048 90.5037885,20.1874774 87.9329177,20.0437847 C85.3695269,19.9023729 82.794103,20.1073223 80.2762431,20.6032412 C77.7024453,21.1095869 75.1891386,21.9101604 72.7812034,22.94957 C70.4766884,23.9462954 68.2664875,25.1593744 66.1779191,26.5510103 C64.0090213,27.9931504 61.9679352,29.6268808 60.0767759,31.4186405 C59.122578,32.3225033 58.1843158,33.244287 57.2899584,34.2087548 C56.393975,35.1768069 55.5103499,36.1673414 54.7210389,37.2243461 C53.2217708,39.2278978 51.8935688,41.3559179 50.708464,43.5575765 C49.5890539,45.6331374 48.5951789,47.7777751 47.7086269,49.9650969 C46.8968756,51.9614803 46.1560225,53.9969636 45.5511117,56.0679629 C45.2411763,57.13572 44.8671723,58.2155331 44.9364443,59.3432436 C44.9699421,59.9333285 45.1166167,60.5380759 45.458749,61.0287816 C45.7852708,61.4960271 46.2867613,61.8189284 46.8598005,61.8645451 C48.1470246,61.9720702 49.1861052,60.8404497 49.7532904,59.8121184 C49.9614317,59.4393646 50.1113585,59.0304432 50.2755951,58.6358586 C50.5100793,58.0728179 50.7234242,57.4980472 50.9471761,56.9294673 C51.8769826,54.564566 52.9485853,52.2456073 54.2107674,50.0403645 C55.5074229,47.7758201 57.0288061,45.6647433 58.8093903,43.7602451 C60.6159921,41.8287027 62.5829278,40.0336846 64.7329629,38.4918393 C66.7854317,37.018745 68.9985596,35.7665659 71.3362471,34.8050306 C73.7311735,33.820361 76.2643187,33.1390427 78.8426696,32.8702298 C81.4772838,32.5962037 84.1629576,32.767918 86.718543,33.4609664 C89.1004606,34.1057914 91.3607455,35.1908177 93.3195507,36.6951921 C95.2292475,38.1630731 96.8472213,40.0112021 98.0515141,42.0952347 C99.3439418,44.3236116 100.141058,46.8162397 100.43831,49.3727312 C100.750197,52.0178495 100.531648,54.7063037 99.8760031,57.2846261 C99.2795481,59.6332356 98.3308788,61.8831176 97.1275617,63.9831161 C95.9343264,66.070407 94.4945736,68.0130277 92.878226,69.79208 C91.13179,71.706679 89.1723344,73.3993853 87.0795382,74.9236355 C85.9926501,75.7157373 84.8725895,76.4498407 83.6969161,77.1063957 C82.5479108,77.7443782 81.3621556,78.3116547 80.1526592,78.8219104 C77.8569252,79.7860524 75.4847643,80.5348183 73.0540637,81.0682082 C71.0780217,81.5009154 69.0811657,81.8319624 67.0778052,82.1024044 C65.7840767,82.2763997 64.4968526,82.4086882 63.1969448,82.5217525 C60.6081868,82.7413644 58.0132496,82.8974388 55.4179872,83.0091997 C53.3469808,83.1004332 51.2710961,83.1607124 49.1958618,83.19688 C48.0484827,83.21643 46.9011035,83.2235983 45.7530739,83.2235983 L44.7257012,83.2235983 L42.1011689,83.2235983 L38.4343038,83.2235983 L34.2708264,83.2235983 L30.1701167,83.2235983 L26.6834239,83.2235983 L24.364274,83.2235983 C23.8104229,83.2235983 23.2455143,83.1991608 22.6962163,83.2630242 C22.1696837,83.324281 21.5846114,83.5435671 21.2434547,83.9684543 C21.0600302,84.1981671 20.9644152,84.4901141 21.0122227,84.7833645 C21.0580788,85.0740081 21.2405277,85.3245743 21.4681823,85.5060637 C22.1290311,86.0290268 22.9980212,85.9997018 23.7925358,85.9997018 L25.0859391,85.9997018 L27.4376111,85.9997018 L30.9428414,85.9997018 L35.0510313,85.9997018 L39.2057277,85.9997018 L42.8524291,85.9997018 L45.4385853,85.9997018 L46.4227036,85.9997018 C48.237436,85.9977468 50.0524936,85.9749384 51.8662503,85.9417034 C52.8942734,85.9211759 53.9213208,85.8889183 54.9503196,85.8465599 C56.6112225,85.7752024 58.2718002,85.6943956 59.9327031,85.5979488 C61.8658159,85.4842328 63.8005547,85.3558543 65.7274883,85.1684999 C67.6284042,84.9850555 69.5250922,84.7159169 71.4074705,84.3988806 C73.6134435,84.0251493 75.8002285,83.5530163 77.9593698,82.9710772 C80.3087652,82.3363531 82.6253134,81.5784638 84.8849479,80.6732977 C86.0612717,80.1982321 87.2216597,79.6856956 88.3622092,79.1265649 C89.5170685,78.5592884 90.6670494,77.9574735 91.7549132,77.2680093 C94.0109702,75.8346666 96.169461,74.2351488 98.1923347,72.4860733 C100.053248,70.871893 101.78505,69.1104358 103.357492,67.2179934 C104.884079,65.374752 106.264642,63.4093228 107.456901,61.3353911 C108.613387,59.3246711 109.591326,57.2113135 110.338033,55.0151941 C111.208974,52.4606576 111.76998,49.7966409 111.942998,47.1010184 C112.022026,45.8511202 112.020075,44.5956828 111.929664,43.3454587" id="Fill-5" fill="#00BFAC"></path>
                    <path d="M23.9879543,98.7688804 C24.2023644,98.9212366 24.4543956,99.034104 24.744048,99.1074825 C25.0337004,99.1814504 25.3328345,99.2179923 25.6426739,99.2179923 C25.8521901,99.2179923 26.0766936,99.2009002 26.3161845,99.1664211 C26.5559812,99.1322367 26.7804847,99.0659308 26.9903068,98.9677981 C27.1995172,98.8696654 27.3744709,98.7346961 27.5142503,98.5628901 C27.6540298,98.3910842 27.7237666,98.1724221 27.7237666,97.9074932 C27.7237666,97.6228199 27.6313959,97.3920754 27.4469605,97.2152597 C27.2619133,97.0387387 27.0199755,96.8913923 26.7208414,96.7735151 C26.4210955,96.655638 26.0815875,96.5524955 25.7023172,96.4643824 C25.322741,96.3759745 24.9388828,96.2778418 24.5492132,96.1699842 C24.1500618,96.0718515 23.760698,95.9513221 23.3814277,95.8089855 C23.0018516,95.6666488 22.6626494,95.4827605 22.3632094,95.2567311 C22.0637694,95.031291 21.8215258,94.7489753 21.6367845,94.4100785 C21.4520431,94.0714764 21.3599783,93.6615587 21.3599783,93.1806199 C21.3599783,92.6407426 21.4771239,92.1715916 21.7120268,91.7743456 C21.9463179,91.3765103 22.2530987,91.0452755 22.6326748,90.7803467 C23.0119451,90.5151231 23.4413769,90.3188577 23.9203586,90.1912557 C24.3996461,90.0636537 24.8789336,90 25.3579153,90 C25.9170331,90 26.4532112,90.0610014 26.9676729,90.1838883 C27.481523,90.3067753 27.9384825,90.5053982 28.3376339,90.7803467 C28.7370911,91.0550004 29.0539653,91.4062743 29.2888682,91.8332842 C29.5231594,92.2602942 29.6406108,92.7780695 29.6406108,93.3869049 L27.3646833,93.3869049 C27.3441904,93.0724677 27.2772064,92.8125486 27.1622019,92.6062636 C27.0475032,92.4002733 26.8951834,92.2378975 26.7055482,92.1203151 C26.5159131,92.0024379 26.2987503,91.9193345 26.0543656,91.8698261 C25.8093693,91.8209071 25.5426566,91.7961529 25.2530042,91.7961529 C25.0633691,91.7961529 24.873734,91.816192 24.6840988,91.8550915 C24.4944637,91.8942856 24.3222627,91.9632438 24.167496,92.0613765 C24.0124234,92.1598039 23.8851843,92.2821014 23.7854729,92.4294479 C23.6857616,92.5767943 23.6359059,92.7633349 23.6359059,92.9890696 C23.6359059,93.1953546 23.6756681,93.3621507 23.7558042,93.489458 C23.8353286,93.6176494 23.9928481,93.7352319 24.2274452,93.8430895 C24.4620422,93.9515364 24.7862571,94.0590993 25.2007016,94.1669569 C25.6148403,94.2754039 26.1565239,94.4127307 26.8254466,94.5792322 C27.0248693,94.618721 27.3019813,94.6900367 27.6564767,94.7928845 C28.0106662,94.896027 28.3627147,95.0604656 28.7120104,95.2862003 C29.0616119,95.5122298 29.3634988,95.8139952 29.6182828,96.1917915 C29.8724551,96.5698824 30,97.0534734 30,97.6422697 C30,98.1235031 29.9051824,98.5702575 29.7155473,98.9825328 C29.5259121,99.394808 29.2439063,99.7505023 28.8695299,100.04991 C28.4951534,100.349613 28.0308532,100.582715 27.4766292,100.749511 C26.9227111,100.916307 26.2813161,101 25.5527501,101 C24.9633519,101 24.3919995,100.92839 23.8380814,100.786053 C23.2841633,100.644011 22.7947823,100.420634 22.370856,100.116511 C21.9463179,99.8120931 21.6092568,99.4239826 21.3599783,98.9527688 C21.1100881,98.4815549 20.9904957,97.9219332 21.0005891,97.2741983 L23.2765167,97.2741983 C23.2765167,97.6278297 23.3413597,97.9272377 23.4713515,98.1724221 C23.6007316,98.4181959 23.7732384,98.6168189 23.9879543,98.7688804 Z" id="Fill-7" fill="#00BFAC"></path>
                    <path d="M39.6700879,99.9376628 C38.7832562,100.645687 37.5569867,101 35.9919501,101 C34.4044409,101 33.175488,100.6484 32.3050916,99.9452013 C31.4346951,99.2420022 31,98.1570493 31,96.6903424 L31,90 L33.5779835,90 L33.5779835,96.6903424 C33.5779835,96.9816333 33.6051519,97.2680995 33.6598242,97.5494394 C33.7144965,97.8307794 33.8295432,98.0792511 34.0046287,98.2951561 C34.1797142,98.5113627 34.4235594,98.6868609 34.7354934,98.8225554 C35.0474274,98.9579484 35.4663581,99.0260972 35.9919501,99.0260972 C36.9113168,99.0260972 37.545918,98.8376326 37.8967599,98.461005 C38.246931,98.0840758 38.4220165,97.494257 38.4220165,96.6903424 L38.4220165,90 L41,90 L41,96.6903424 C41,98.1470983 40.5569196,99.2293374 39.6700879,99.9376628" id="Fill-9" fill="#00BFAC"></path>
                    <path d="M48.3495633,94.9763446 C48.9347703,94.9763446 49.3738417,94.8530228 49.6664452,94.6066874 C49.9590488,94.3600437 50.1055166,93.959556 50.1055166,93.4049161 C50.1055166,92.8709325 49.9590488,92.4830853 49.6664452,92.2416828 C49.3738417,92.0002803 48.9347703,91.8797332 48.3495633,91.8797332 L45.5527251,91.8797332 L45.5527251,94.9763446 L48.3495633,94.9763446 Z M49.2599223,90 C49.7803647,90 50.2493274,90.0795426 50.6664785,90.2389361 C51.0836295,90.3983295 51.4413298,90.6166092 51.7395795,90.893775 C52.0374971,91.1709409 52.2653359,91.4921943 52.422764,91.856302 C52.5798598,92.2213347 52.6582417,92.6141147 52.6582417,93.0349505 C52.6582417,93.6820819 52.5144309,94.2419631 52.2274735,94.7142857 C51.940184,95.1869167 51.4715534,95.5460915 50.8209173,95.7927352 L50.8209173,95.8235657 C51.1351091,95.905883 51.3954964,96.0316713 51.6014149,96.2009305 C51.8073334,96.3704981 51.9757215,96.570896 52.105583,96.8018162 C52.2357767,97.0327363 52.3304328,97.2870876 52.3902156,97.5642535 C52.4493341,97.8417276 52.4905178,98.1188935 52.512106,98.3963676 C52.5227341,98.5711763 52.5336942,98.7765072 52.5443223,99.0126685 C52.5552825,99.2488298 52.5742137,99.489924 52.6014481,99.7365677 C52.6283503,99.9829031 52.6718589,100.216906 52.7316417,100.437652 C52.7910924,100.658707 52.8804344,100.845848 53,101 L50.4472749,101 C50.3061211,100.650999 50.219436,100.234788 50.1868876,99.751983 C50.1546714,99.2694863 50.1055166,98.8070293 50.0407519,98.3655372 C49.9534026,97.7905491 49.7694045,97.369405 49.4877611,97.1024132 C49.2057856,96.8351131 48.745126,96.7016172 48.1057823,96.7016172 L45.5527251,96.7016172 L45.5527251,101 L43,101 L43,90 L49.2599223,90 Z" id="Fill-11" fill="#00BFAC"></path>
                    <polygon id="Fill-13" fill="#00BFAC" points="62 90 62 92.0338855 56.5019531 92.0338855 56.5019531 94.5755486 61.2672526 94.5755486 61.2672526 96.4552818 56.5019531 96.4552818 56.5019531 101 54 101 54 90"></polygon>
                    <path d="M69.3493856,94.9763446 C69.9345732,94.9763446 70.3739621,94.8530228 70.666556,94.6066874 C70.9591498,94.3600437 71.1052806,93.959556 71.1052806,93.4049161 C71.1052806,92.8709325 70.9591498,92.4830853 70.666556,92.2416828 C70.3739621,92.0002803 69.9345732,91.8797332 69.3493856,91.8797332 L66.5529724,91.8797332 L66.5529724,94.9763446 L69.3493856,94.9763446 Z M70.2600465,90 C70.7804716,90 71.2490867,90.0795426 71.6662238,90.2389361 C72.0836931,90.3983295 72.4413816,90.6166092 72.7396214,90.893775 C73.0375291,91.1709409 73.2653603,91.4921943 73.422451,91.856302 C73.5795417,92.2213347 73.6582531,92.6141147 73.6582531,93.0349505 C73.6582531,93.6820819 73.514447,94.2419631 73.2274992,94.7142857 C72.9398871,95.1869167 72.4716041,95.5460915 71.8206576,95.7927352 L71.8206576,95.8235657 C72.135171,95.905883 72.3952175,96.0316713 72.6014613,96.2009305 C72.8070409,96.3704981 72.9754234,96.570896 73.1052806,96.8018162 C73.2358021,97.0327363 73.330455,97.2870876 73.3902358,97.5642535 C73.4493524,97.8417276 73.4902026,98.1188935 73.5117901,98.3963676 C73.5227499,98.5711763 73.5337097,98.7765072 73.5443374,99.0126685 C73.5549651,99.2488298 73.5742278,99.489924 73.6011292,99.7365677 C73.6283627,99.9829031 73.6718698,100.216906 73.7313185,100.437652 C73.7910993,100.658707 73.8804384,100.845848 74,101 L71.4470276,101 C71.3062106,100.650999 71.2191963,100.234788 71.1869811,99.751983 C71.1541016,99.2694863 71.1052806,98.8070293 71.0405181,98.3655372 C70.9535038,97.7905491 70.7695118,97.369405 70.4878778,97.1024132 C70.2055795,96.8351131 69.7449352,96.7016172 69.1056128,96.7016172 L66.5529724,96.7016172 L66.5529724,101 L64,101 L64,90 L70.2600465,90 Z" id="Fill-15" fill="#00BFAC"></path>
                    <mask id="mask-2" fill="white">
                        <use xlink:href="#path-1"></use>
                    </mask>
                    <g id="Clip-18"></g>
                    <polygon id="Fill-17" fill="#00BFAC" mask="url(#mask-2)" points="75 101 78 101 78 90 75 90"></polygon>
                    <path d="M85.6995895,98.9664228 C86.0580136,98.9664228 86.4060955,98.9100031 86.743835,98.7968553 C87.0812514,98.6840158 87.3818235,98.4965666 87.6458744,98.2345077 C87.9089558,97.9727571 88.1203258,97.6311556 88.2786917,97.2103198 C88.4367344,96.7888674 88.5159174,96.2758485 88.5159174,95.6694134 C88.5159174,95.1147734 88.4603277,94.6140867 88.3494716,94.1673533 C88.2389386,93.7209283 88.0569794,93.338014 87.8035939,93.0198436 C87.5508549,92.7013649 87.2157009,92.4571877 86.7991015,92.2879285 C86.382179,92.1183609 85.8682977,92.0338855 85.2564882,92.0338855 L83.4844058,92.0338855 L83.4844058,98.9664228 L85.6995895,98.9664228 Z M85.8734689,90 C86.6013057,90 87.2790472,90.1134561 87.9066934,90.3391351 C88.5343395,90.5651223 89.0776316,90.9042574 89.5362464,91.3559237 C89.9951844,91.8078982 90.3539317,92.3727122 90.6124883,93.0503658 C90.8707217,93.7283276 91,94.5243701 91,95.4384932 C91,96.2394686 90.894315,96.978783 90.6835914,97.6570532 C90.4725445,98.3347067 90.1535503,98.9201771 89.7262855,99.4131562 C89.2990207,99.9061353 88.7663941,100.293982 88.1284057,100.576081 C87.490094,100.859105 86.7383407,101 85.8734689,101 L81,101 L81,90 L85.8734689,90 Z" id="Fill-19" fill="#00BFAC" mask="url(#mask-2)"></path>
                    <polygon id="Fill-20" fill="#00BFAC" mask="url(#mask-2)" points="101 90 101 92.0338855 94.6068966 92.0338855 94.6068966 94.3908742 100.352176 94.3908742 100.352176 96.2702991 94.6068966 96.2702991 94.6068966 98.9664228 101 98.9664228 101 101 92 101 92 90"></polygon>
                    <path d="M107.349563,94.9763446 C107.93477,94.9763446 108.373842,94.8530228 108.666445,94.6066874 C108.959049,94.3600437 109.105517,93.959556 109.105517,93.4049161 C109.105517,92.8709325 108.959049,92.4830853 108.666445,92.2416828 C108.373842,92.0002803 107.93477,91.8797332 107.349563,91.8797332 L104.552725,91.8797332 L104.552725,94.9763446 L107.349563,94.9763446 Z M108.259922,90 C108.780365,90 109.249327,90.0795426 109.666478,90.2389361 C110.083629,90.3983295 110.44133,90.6166092 110.73958,90.893775 C111.037497,91.1709409 111.265336,91.4921943 111.422764,91.856302 C111.57986,92.2213347 111.658242,92.6141147 111.658242,93.0349505 C111.658242,93.6820819 111.514431,94.2419631 111.227474,94.7142857 C110.940184,95.1869167 110.471553,95.5460915 109.820917,95.7927352 L109.820917,95.8235657 C110.135109,95.905883 110.395496,96.0316713 110.601415,96.2009305 C110.807333,96.3704981 110.975722,96.570896 111.105583,96.8018162 C111.235777,97.0327363 111.330433,97.2870876 111.390216,97.5642535 C111.449334,97.8417276 111.490518,98.1188935 111.512106,98.3963676 C111.522734,98.5711763 111.533694,98.7765072 111.544322,99.0126685 C111.555282,99.2488298 111.574214,99.489924 111.601448,99.7365677 C111.62835,99.9829031 111.671859,100.216906 111.731642,100.437652 C111.791092,100.658707 111.880434,100.845848 112,101 L109.447275,101 C109.306121,100.650999 109.219436,100.234788 109.186888,99.751983 C109.154339,99.2694863 109.105517,98.8070293 109.040752,98.3655372 C108.953403,97.7905491 108.769404,97.369405 108.487761,97.1024132 C108.205786,96.8351131 107.745126,96.7016172 107.105782,96.7016172 L104.552725,96.7016172 L104.552725,101 L102,101 L102,90 L108.259922,90 Z" id="Fill-21" fill="#00BFAC" mask="url(#mask-2)"></path>
                    <polygon id="Fill-22" fill="#00BFAC" mask="url(#mask-2)" points="21 109 21.7665493 109 21.7665493 106.693789 24.7059859 106.693789 24.7059859 106.131675 21.7665493 106.131675 21.7665493 104.562113 25 104.562113 25 104 21 104"></polygon>
                    <path d="M30.3263816,106.506157 C30.3263816,106.765632 30.2901788,107.018199 30.2183922,107.256652 C30.1475339,107.491801 30.0367597,107.701424 29.8891639,107.879212 C29.7418776,108.056099 29.5522,108.199351 29.3247726,108.305063 C29.0985828,108.411076 28.8222662,108.464532 28.5035584,108.464532 C28.1805186,108.464532 27.9014172,108.411977 27.6742992,108.308067 C27.4465623,108.203556 27.2568847,108.061806 27.1111455,107.885819 C26.9632403,107.708031 26.8524661,107.498709 26.7819172,107.263259 C26.7101306,107.024806 26.6736184,106.770136 26.6736184,106.506157 C26.6736184,106.246381 26.7101306,105.993813 26.7819172,105.755661 C26.8524661,105.520211 26.9632403,105.309688 27.1114549,105.129497 C27.257813,104.951108 27.4474906,104.805754 27.6755369,104.697339 C27.9026549,104.589525 28.1761866,104.534867 28.4893248,104.534867 C28.7709017,104.534867 29.0286528,104.579614 29.2551519,104.668208 C29.4797945,104.756202 29.6738041,104.885939 29.8313014,105.053517 C29.9897271,105.222596 30.1131877,105.431017 30.1979702,105.672773 C30.2830621,105.917232 30.3263816,106.197429 30.3263816,106.506157 M30.3656786,104.734579 C30.1543412,104.507238 29.8873074,104.325845 29.5723126,104.195808 C29.2579368,104.06577 28.8884832,104 28.4750913,104 C28.0743858,104 27.7157621,104.066971 27.408503,104.199411 C27.1012439,104.331251 26.8397797,104.513544 26.6306083,104.741486 C26.4229841,104.967926 26.264249,105.23581 26.1584256,105.53763 C26.0532211,105.837348 26,106.163193 26,106.506157 C26,106.844615 26.0519834,107.167157 26.1547125,107.464773 C26.2580605,107.765091 26.4158673,108.032074 26.6234916,108.258214 C26.8317346,108.485254 27.0959837,108.667848 27.4091219,108.800589 C27.7213318,108.932729 28.0870722,109 28.4964416,109 C28.905811,109 29.2715515,108.932729 29.5837614,108.800589 C29.8968996,108.667848 30.1611486,108.485254 30.3690822,108.258214 C30.5767065,108.032374 30.735751,107.765692 30.8415744,107.465373 C30.9467789,107.166857 31,106.844315 31,106.506157 C31,106.164394 30.9467789,105.837348 30.8415744,105.534627 C30.735751,105.230104 30.5754688,104.961019 30.3656786,104.734579" id="Fill-23" fill="#00BFAC" mask="url(#mask-2)"></path>
                    <path d="M36.356821,106.889019 C36.356821,107.159547 36.3322993,107.397144 36.2838467,107.595347 C36.2368713,107.786471 36.1594652,107.948049 36.0539922,108.075157 C35.9502917,108.199803 35.8120245,108.29398 35.6430312,108.355841 C35.4693109,108.419242 35.2527513,108.45125 35.0001477,108.45125 C34.5224167,108.45125 34.1740897,108.331528 33.9649162,108.095777 C33.7516065,107.855718 33.6434744,107.449772 33.6434744,106.889019 L33.6434744,104 L33,104 L33,107.019512 C33,107.639973 33.1669252,108.129632 33.495753,108.475255 C33.8269444,108.823649 34.3330379,109 35.0001477,109 C35.6619396,109 36.1665559,108.827034 36.5001108,108.486027 C36.831893,108.146867 37,107.653515 37,107.019512 L37,104 L36.356821,104 L36.356821,106.889019 Z" id="Fill-24" fill="#00BFAC" mask="url(#mask-2)"></path>
                    <polygon id="Fill-25" fill="#00BFAC" mask="url(#mask-2)" points="42.3620387 108.034528 39.6584651 104 39 104 39 109 39.6379613 109 39.6379613 104.972099 42.3280609 109 43 109 43 104 42.3620387 104"></polygon>
                    <path d="M49.2349842,106.493215 C49.2349842,106.653853 49.2202318,106.823645 49.1910783,106.997538 C49.1626273,107.169539 49.112399,107.335858 49.0417984,107.492079 C48.9726027,107.646405 48.8774148,107.79158 48.7590446,107.923184 C48.6445381,108.049738 48.4956094,108.151676 48.314366,108.226157 C48.0979979,108.319573 47.883386,108.378274 47.6768528,108.401313 C47.4632947,108.425298 47.2314717,108.437291 46.9870039,108.437291 L45.7650158,108.437291 L45.7650158,104.562393 L46.9870039,104.562393 C47.223393,104.562393 47.4632947,104.573439 47.7000351,104.595216 C47.9241307,104.616361 48.119424,104.662438 48.2813488,104.733131 C48.4738321,104.816765 48.6322445,104.922805 48.7527222,105.048728 C48.8760098,105.177807 48.9747102,105.321404 49.0467158,105.475415 C49.1190727,105.631004 49.1689498,105.797639 49.1952933,105.970902 C49.2216368,106.147952 49.2349842,106.323739 49.2349842,106.493215 M49.795223,105.377264 C49.719705,105.186013 49.6164384,105.001704 49.4875307,104.828757 C49.3558131,104.652339 49.1847559,104.500852 48.9789252,104.378716 C48.8377239,104.294767 48.6894977,104.226283 48.5381103,104.174209 C48.3888303,104.123083 48.2328767,104.084264 48.0737619,104.058385 C47.9185107,104.033453 47.7572884,104.017358 47.5950123,104.010099 C47.4355462,104.003472 47.2739726,104 47.1092378,104 L45,104 L45,109 L47.1092378,109 C47.3055848,109 47.5036881,108.991794 47.6979276,108.975699 C47.8946259,108.959604 48.0860555,108.929306 48.2669477,108.885754 C48.4520548,108.840939 48.6297857,108.778451 48.7945205,108.700183 C48.9641728,108.619706 49.1222339,108.512087 49.2630839,108.382061 C49.4049877,108.255823 49.5244117,108.115067 49.6178433,107.96358 C49.7102213,107.814303 49.7853881,107.655558 49.8412364,107.492079 C49.8963822,107.331124 49.9371268,107.163227 49.9624166,106.99312 C49.9873551,106.825222 50,106.657009 50,106.493215 C50,106.330051 49.9845451,106.149214 49.9543379,105.955753 C49.9234282,105.761661 49.8700386,105.566938 49.795223,105.377264" id="Fill-26" fill="#00BFAC" mask="url(#mask-2)"></path>
                    <path d="M54.416,106.922611 L52.60032,106.922611 L53.50816,104.724025 L54.416,106.922611 Z M53.17536,104 L51,109 L51.72704,109 L52.35776,107.48504 L54.65792,107.48504 L55.2736,109 L56,109 L53.8784,104 L53.17536,104 Z" id="Fill-27" fill="#00BFAC" mask="url(#mask-2)"></path>
                    <polygon id="Fill-28" fill="#00BFAC" mask="url(#mask-2)" points="56 104.562113 57.6585366 104.562113 57.6585366 109 58.3414634 109 58.3414634 104.562113 60 104.562113 60 104 56 104"></polygon>
                    <polygon id="Fill-29" fill="#00BFAC" mask="url(#mask-2)" points="61 109 62 109 62 104 61 104"></polygon>
                    <path d="M68.3263816,106.506157 C68.3263816,106.765331 68.2898694,107.017899 68.2183922,107.256652 C68.1475339,107.492102 68.0364503,107.701424 67.8888545,107.879512 C67.742187,108.055799 67.5525094,108.199051 67.325082,108.305063 C67.0982734,108.410775 66.8219568,108.464532 66.5035584,108.464532 C66.1802092,108.464532 65.9014172,108.411977 65.6742992,108.308067 C65.4468717,108.203856 65.2571941,108.061806 65.1111455,107.885819 C64.9635497,107.708631 64.8527755,107.499009 64.7816078,107.263259 C64.7098212,107.024506 64.6736184,106.769836 64.6736184,106.506157 C64.6736184,106.246681 64.7098212,105.994114 64.7816078,105.755661 C64.8524661,105.520211 64.9635497,105.309388 65.1114549,105.129497 C65.257813,104.951108 65.4478,104.805754 65.6758463,104.697339 C65.9023454,104.589525 66.1761866,104.534867 66.4893248,104.534867 C66.7709017,104.534867 67.0286528,104.579614 67.2554614,104.668208 C67.480104,104.756502 67.6738041,104.885939 67.8313014,105.053517 C67.9897271,105.222896 68.1131877,105.431317 68.1976607,105.672773 C68.2830621,105.916932 68.3263816,106.197429 68.3263816,106.506157 M68.3653691,104.734579 C68.1540318,104.506937 67.886998,104.325545 67.5723126,104.195808 C67.2579368,104.06577 66.8884832,104 66.4747819,104 C66.0746952,104 65.7157621,104.066971 65.408503,104.199411 C65.1012439,104.331251 64.8394703,104.513544 64.6306083,104.741186 C64.4232935,104.967626 64.264249,105.23551 64.1584256,105.53763 C64.0532211,105.837348 64,106.163193 64,106.506157 C64,106.844615 64.0519834,107.167157 64.1547125,107.464773 C64.2583699,107.765391 64.4158673,108.032074 64.6234916,108.258214 C64.8317346,108.485555 65.0959837,108.667848 65.4088124,108.800589 C65.7210223,108.932729 66.0870722,109 66.4964416,109 C66.9055016,109 67.2715515,108.932729 67.5840708,108.800589 C67.8968996,108.667848 68.1611486,108.485254 68.3693917,108.258214 C68.5767065,108.032374 68.7354415,107.765391 68.8415744,107.465373 C68.9467789,107.167157 69,106.844615 69,106.506157 C69,106.164094 68.9467789,105.837348 68.8415744,105.534627 C68.7354415,105.229804 68.5754688,104.960718 68.3653691,104.734579" id="Fill-30" fill="#00BFAC" mask="url(#mask-2)"></path>
                    <polygon id="Fill-31" fill="#00BFAC" mask="url(#mask-2)" points="74.3620387 104 74.3620387 108.034528 71.6581722 104 71 104 71 109 71.6379613 109 71.6379613 104.972415 74.3280609 109 75 109 75 104"></polygon>
                    <polygon id="Fill-32" fill="#00BFAC" mask="url(#mask-2)" points="82.8712254 104.885338 80.0777806 104.885338 80.0777806 105.946861 82.6419599 105.946861 82.6419599 106.815494 80.0777806 106.815494 80.0777806 108.101109 83 108.101109 83 109 79 109 79 104 82.8712254 104"></polygon>
                    <path d="M85,104 L86.0584354,104 L86.0584354,106.993486 C86.0584354,107.328417 86.0989632,107.573009 86.1797047,107.727262 C86.3053723,108.00043 86.5793277,108.136861 87.001885,108.136861 C87.4216148,108.136861 87.6946277,108.00043 87.8206095,107.727262 C87.9013509,107.573009 87.9415646,107.328417 87.9415646,106.993486 L87.9415646,104 L89,104 L89,106.995944 C89,107.514319 88.9180019,107.917466 88.7536915,108.206305 C88.4476909,108.735435 87.8636506,109 87.001885,109 C86.1398052,109 85.5548225,108.735435 85.2466227,108.206305 C85.0823123,107.917466 85,107.514319 85,106.995944 L85,104 Z" id="Fill-33" fill="#00BFAC" mask="url(#mask-2)"></path>
                    <path d="M92.0023985,104.868373 L92.0023985,106.211751 L93.1063056,106.211751 C93.3257253,106.211751 93.4903675,106.184644 93.5999226,106.130429 C93.7939652,106.035239 93.8911412,105.847381 93.8911412,105.567169 C93.8911412,105.264263 93.79706,105.060329 93.609207,104.956313 C93.5039845,104.897686 93.3458414,104.868373 93.135087,104.868373 L92.0023985,104.868373 Z M94.12294,104.128601 C94.303675,104.208031 94.4568665,104.32434 94.582205,104.478157 C94.6861896,104.604867 94.7685106,104.744815 94.8291683,104.898947 C94.8898259,105.052764 94.9201547,105.228015 94.9201547,105.424699 C94.9201547,105.662359 94.861354,105.895606 94.7434429,106.125071 C94.6258414,106.354851 94.4317988,106.516863 94.1606963,106.611738 C94.387234,106.704722 94.5475435,106.836475 94.6419342,107.006997 C94.736325,107.177835 94.783675,107.438505 94.783675,107.789321 L94.783675,108.125008 C94.783675,108.353527 94.7926499,108.50829 94.8105996,108.589611 C94.8378337,108.718527 94.9009671,108.813717 95,108.874551 L95,109 L93.8676209,109 C93.8363636,108.889365 93.8143907,108.800164 93.8010832,108.732081 C93.7744681,108.591817 93.7599226,108.448087 93.7577563,108.301519 L93.7509478,107.836601 C93.7469246,107.51762 93.692766,107.30486 93.5887814,107.198954 C93.4847969,107.092732 93.2901354,107.039463 93.0044874,107.039463 L92.0023985,107.039463 L92.0023985,109 L91,109 L91,104 L93.3483172,104 C93.6837911,104.006934 93.9418956,104.049486 94.12294,104.128601 Z" id="Fill-34" fill="#00BFAC" mask="url(#mask-2)"></path>
                    <path d="M99.5296245,107.730717 C99.7831262,107.442135 99.9100414,107.031747 99.9100414,106.499851 C99.9100414,105.97004 99.7831262,105.560248 99.5296245,105.270475 C99.2761228,104.981297 98.9335175,104.836262 98.5018084,104.836262 C98.0700993,104.836262 97.7255211,104.980702 97.4684027,105.268986 C97.2112843,105.557567 97.0827251,105.967657 97.0827251,106.499851 C97.0827251,107.031747 97.2112843,107.442135 97.4684027,107.730717 C97.7255211,108.019298 98.0700993,108.163143 98.5018084,108.163143 C98.9335175,108.163143 99.2761228,108.019298 99.5296245,107.730717 M100.21089,108.448448 C99.8169922,108.816249 99.2471888,109 98.5018084,109 C97.7560992,109 97.1866246,108.816249 96.7923982,108.448448 C96.2640231,107.997558 96,107.348323 96,106.499851 C96,105.634403 96.2640231,104.984871 96.7923982,104.550956 C97.1866246,104.183751 97.7560992,104 98.5018084,104 C99.2471888,104 99.8169922,104.183751 100.21089,104.550956 C100.736963,104.984871 101,105.634403 101,106.499851 C101,107.348323 100.736963,107.997558 100.21089,108.448448" id="Fill-35" fill="#00BFAC" mask="url(#mask-2)"></path>
                    <path d="M104.688727,105.034483 C104.548676,104.923533 104.351801,104.868373 104.099106,104.868373 L103.100694,104.868373 L103.100694,106.340667 L104.099106,106.340667 C104.351801,106.340667 104.548676,106.280464 104.688727,106.160688 C104.829113,106.040598 104.899306,105.850848 104.899306,105.590809 C104.899306,105.330455 104.829113,105.145433 104.688727,105.034483 M105.534386,106.835844 C105.2242,107.079808 104.780647,107.202106 104.20473,107.202106 L103.100694,107.202106 L103.100694,109 L102,109 L102,104 L104.276594,104 C104.80137,104 105.219855,104.128601 105.532046,104.386434 C105.844238,104.644267 106,105.043308 106,105.583874 C106,106.174242 105.844907,106.59125 105.534386,106.835844" id="Fill-36" fill="#00BFAC" mask="url(#mask-2)"></path>
                    <polygon id="Fill-37" fill="#00BFAC" mask="url(#mask-2)" points="110.871225 104.885338 108.077781 104.885338 108.077781 105.946861 110.64196 105.946861 110.64196 106.815494 108.077781 106.815494 108.077781 108.101109 111 108.101109 111 109 107 109 107 104 110.871225 104"></polygon>
                </g>
            </g>
        </g>
    </g>
</svg>