<?xml version="1.0" encoding="UTF-8"?>
<svg width="25px" height="25px" viewBox="0 0 25 25" version="1.1" xmlns="http://www.w3.org/2000/svg" xmlns:xlink="http://www.w3.org/1999/xlink">
    <!-- Generator: Sketch 50.2 (55047) - http://www.bohemiancoding.com/sketch -->
    <title>icone / menu / Site / selected</title>
    <desc>Created with Sketch.</desc>
    <defs></defs>
    <g id="icone-/-menu-/-Site-/-selected" stroke="none" stroke-width="1" fill="none" fill-rule="evenodd">
        <g id="site" fill="#00BFAC" fill-rule="nonzero" stroke="#00BFAC">
            <path d="M12.5,0 C5.59988372,0 0,5.59988242 0,12.5000029 C0,19.4001176 5.59988372,25 12.5,25 C19.4001166,25 25,19.4001176 25,12.5000029 C25,5.59988242 19.4001166,3.30484917e-14 12.5,3.30484917e-14 Z M12.1366279,0.599563814 C12.160936,0.599563814 12.1849576,0.599563814 12.2093023,0.599563814 L12.2093023,7.84883538 C10.3528555,7.82121911 8.64354535,7.52473662 7.07667151,7.00398093 C7.37358547,5.88523119 7.7590061,4.86933026 8.2122093,3.99709209 C9.24894535,2.00177279 10.6238983,0.770842844 12.1366279,0.599563814 Z M12.7906977,0.599563814 C14.3339113,0.736889364 15.7333872,1.96776117 16.7877907,3.99709209 C17.2409939,4.86933026 17.6264145,5.88523119 17.9233285,7.00398093 C16.3564547,7.52473662 14.6471445,7.82130632 12.7906977,7.84883538 L12.7906977,0.599563814 Z M10.0290698,0.85392422 C9.12814331,1.50351709 8.33479971,2.4920343 7.69440407,3.72456309 C7.22444767,4.62903962 6.82730698,5.66601612 6.52252907,6.80412632 C5.32523372,6.35526015 4.2160125,5.7766847 3.18859012,5.06903952 C4.88231221,2.95075513 7.27895029,1.43258688 10.0290698,0.85392422 Z M14.9709302,0.85392422 C17.7219224,1.43258688 20.1206169,2.95075513 21.8114099,5.06903952 C20.7839875,5.7766847 19.6747663,6.35526015 18.4774709,6.80412632 C18.172693,5.66601612 17.7755523,4.62903962 17.3055959,3.72456309 C16.664518,2.49072616 15.874193,1.50287756 14.9709302,0.85392422 Z M2.83430233,5.53232429 C3.92497297,6.2871497 5.11080581,6.90494025 6.38626453,7.37645177 C6.03797674,8.8593584 5.83422791,10.4910441 5.81395349,12.2093053 L0.590479651,12.2093053 C0.650985465,9.71915472 1.47267965,7.41630641 2.83430233,5.53232429 Z M22.1656977,5.53232429 C23.5248709,7.41630641 24.3403907,9.71915472 24.400436,12.2093053 L19.1860465,12.2093053 C19.1657733,10.4910441 18.9620233,8.8593584 18.6137355,7.37645177 C19.8891942,6.90494025 21.075027,6.2871497 22.1656977,5.53232429 Z M6.94040698,7.56720754 C8.55509651,8.09819579 10.3105256,8.40264339 12.2093023,8.4302306 L12.2093023,12.2093053 L6.39534884,12.2093053 C6.41569477,10.5559278 6.61038866,8.98828279 6.94040698,7.56720754 Z M18.059593,7.56720754 C18.3896113,8.98828279 18.5843044,10.5559278 18.6046512,12.2093053 L12.7906977,12.2093053 L12.7906977,8.4302306 C14.6894744,8.40261432 16.4449035,8.09819579 18.059593,7.56720754 Z M0.590479651,12.7907005 L5.81395349,12.7907005 C5.83424128,14.509828 6.03754651,16.1421532 6.38626453,17.6235482 C5.11105087,18.0949725 3.92524593,18.712327 2.83430233,19.4676466 C1.47179855,17.5808738 0.650922674,15.2813976 0.590479651,12.7907005 Z M6.39534884,12.7907005 L12.2093023,12.7907005 L12.2093023,16.5697694 C10.3098081,16.5973857 8.55479535,16.9019205 6.94040698,17.4327634 C6.61010407,16.0134323 6.41570523,14.4445955 6.39534884,12.7907005 Z M12.7906977,12.7907005 L18.6046512,12.7907005 C18.5842936,14.4445955 18.3898959,16.0134323 18.059593,17.4327634 C16.4452047,16.9019205 14.6901919,16.5972985 12.7906977,16.5697694 L12.7906977,12.7907005 Z M19.1860465,12.7907005 L24.400436,12.7907005 C24.3404535,15.2813976 23.5257509,17.5808738 22.1656977,19.4676466 C21.0747541,18.712327 19.8889491,18.0949725 18.6137355,17.6235482 C18.9624535,16.1421532 19.1657587,14.509828 19.1860465,12.7907005 Z M12.2093023,17.1511646 L12.2093023,24.4004362 C10.667114,24.2610467 9.26602413,23.0220063 8.2122093,20.9938091 C7.76015552,20.1237802 7.37327442,19.1096235 7.07667151,17.99599 C8.64416715,17.4762808 10.3518262,17.1785774 12.2093023,17.1511646 Z M12.7906977,17.1511646 C14.6481738,17.1784902 16.3558328,17.4762808 17.9233285,17.99599 C17.6267256,19.1096235 17.2398445,20.1237802 16.7877907,20.9938091 C15.7337596,23.0224133 14.3332686,24.2614827 12.7906977,24.4004362 L12.7906977,17.1511646 Z M6.52252907,18.1867748 C6.82730698,19.3231409 7.22444767,20.3618615 7.69440407,21.2663381 C8.34137558,22.5115122 9.14268401,23.5120643 10.0563227,24.1642444 C7.29174331,23.589012 4.8788314,22.0611925 3.17950581,19.9309605 C4.20801076,19.2215711 5.32370262,18.6355247 6.52252907,18.1867748 Z M18.4774709,18.1867748 C19.6762974,18.6355247 20.7919892,19.2215711 21.8204942,19.9309605 C20.1241084,22.0611925 17.7091273,23.589012 14.9436773,24.1642444 C15.857316,23.5120643 16.6586244,22.5115122 17.3055959,21.2663381 C17.7755523,20.3618615 18.172693,19.3231409 18.4774709,18.1867748 Z" id="Shape"></path>
        </g>
    </g>
</svg>