<?xml version="1.0" encoding="UTF-8"?>
<svg width="23px" height="25px" viewBox="0 0 23 25" version="1.1" xmlns="http://www.w3.org/2000/svg" xmlns:xlink="http://www.w3.org/1999/xlink">
    <!-- Generator: Sketch 50.2 (55047) - http://www.bohemiancoding.com/sketch -->
    <title>icone / menu / shop / selected</title>
    <desc>Created with Sketch.</desc>
    <defs></defs>
    <g id="icone-/-menu-/-shop-/-selected" stroke="none" stroke-width="1" fill="none" fill-rule="evenodd">
        <g id="shop" fill="#00BFAC" fill-rule="nonzero" stroke="#00BFAC">
            <path d="M11.160868,1.78571429 C7.96070372,1.78571429 5.35714286,4.28056416 5.35714286,7.34706353 L5.35714286,7.7179229 C5.35714286,7.89342319 5.49741368,8.03571429 5.67075839,8.03571429 L16.6506702,8.03571429 C16.8240149,8.03571429 16.9642857,7.89342319 16.9642857,7.7179229 L16.9642857,7.34706353 C16.9642889,4.28056098 14.3610322,1.78571429 11.160868,1.78571429 Z M16.3370578,7.40013151 L5.98437392,7.40013151 L5.98437392,7.34706353 C5.98437392,4.63093869 8.30647739,2.42129706 11.160868,2.42129706 C14.0149543,2.42129706 16.3370547,4.63093869 16.3370547,7.34706353 L16.3370578,7.40013151 Z" id="Shape"></path>
            <path d="M22.3214286,20.6826781 L22.3214286,7.34375 C22.3214286,7.17117188 22.1788042,7.03125 22.002551,7.03125 L18.8087946,7.03125 L18.8087946,6.97906563 C18.8087946,3.13079688 15.428192,0 11.2728189,0 C7.11744579,0 3.7368463,3.13079688 3.7368463,6.97906563 L3.7368463,7.03125 L0.318877551,7.03125 C0.142624362,7.03125 0,7.17117188 0,7.34375 L0,20.6826781 C0,23.0632031 1.97617028,25 4.40543048,25 L17.9159981,25 C20.3452583,25 22.3214286,23.0632031 22.3214286,20.6826781 Z M17.9159981,24.375 L4.40543048,24.375 C2.32805485,24.375 0.637755102,22.7186594 0.637755102,20.6826781 L0.637755102,7.65625 L4.05572385,7.65625 C4.23197704,7.65625 4.3746014,7.51632812 4.3746014,7.34375 L4.3746014,6.97906562 C4.3746014,3.47549375 7.46902105,0.625 11.2728189,0.625 C15.0766167,0.625 18.1710364,3.47549375 18.1710364,6.97906562 L18.1710364,7.34375 C18.1710364,7.51632812 18.3136607,7.65625 18.4899139,7.65625 L21.6836735,7.65625 L21.6836735,20.6826781 C21.6836735,22.7186594 19.9933737,24.375 17.9159981,24.375 Z" id="Shape"></path>
        </g>
    </g>
</svg>