<?xml version="1.0" encoding="UTF-8"?>
<svg width="24px" height="25px" viewBox="0 0 24 25" version="1.1" xmlns="http://www.w3.org/2000/svg" xmlns:xlink="http://www.w3.org/1999/xlink">
    <!-- Generator: Sketch 50.2 (55047) - http://www.bohemiancoding.com/sketch -->
    <title>icone / menu / event / unselected</title>
    <desc>Created with Sketch.</desc>
    <defs></defs>
    <g id="icone-/-menu-/-event-/-unselected" stroke="none" stroke-width="1" fill="none" fill-rule="evenodd">
        <g id="event" fill="#4A4A4A" fill-rule="nonzero">
            <polygon id="Shape" points="18.0147247 21.3166669 16.9001247 20.0225148 16.4473684 20.548206 18.0147247 22.3684211 20.3947368 19.6046386 19.9419806 19.0789474"></polygon>
            <path d="M5.4789844,11.8421053 L5.04733139,11.8421053 C4.80315234,11.8421053 4.60526316,12.1366079 4.60526316,12.5 C4.60526316,12.8633921 4.80315234,13.1578947 5.04733139,13.1578947 L5.4789844,13.1578947 C5.72316345,13.1578947 5.92105263,12.8633921 5.92105263,12.5 C5.92105263,12.1366079 5.72316345,11.8421053 5.4789844,11.8421053 Z" id="Shape"></path>
            <path d="M5.4789844,15.7894737 L5.04733139,15.7894737 C4.80315234,15.7894737 4.60526316,16.0839763 4.60526316,16.4473684 C4.60526316,16.8107605 4.80315234,17.1052632 5.04733139,17.1052632 L5.4789844,17.1052632 C5.72316345,17.1052632 5.92105263,16.8107605 5.92105263,16.4473684 C5.92105263,16.0839763 5.72316345,15.7894737 5.4789844,15.7894737 Z" id="Shape"></path>
            <path d="M5.4789844,20.3947368 L5.04733139,20.3947368 C4.80315234,20.3947368 4.60526316,20.6892395 4.60526316,21.0526316 C4.60526316,21.4160237 4.80315234,21.7105263 5.04733139,21.7105263 L5.4789844,21.7105263 C5.72316345,21.7105263 5.92105263,21.4160237 5.92105263,21.0526316 C5.92105263,20.68967 5.72316345,20.3947368 5.4789844,20.3947368 Z" id="Shape"></path>
            <path d="M12.0579318,11.8421053 L11.6262788,11.8421053 C11.3820997,11.8421053 11.1842105,12.1366079 11.1842105,12.5 C11.1842105,12.8633921 11.3820997,13.1578947 11.6262788,13.1578947 L12.0579318,13.1578947 C12.3021108,13.1578947 12.5,12.8633921 12.5,12.5 C12.5,12.1366079 12.3021108,11.8421053 12.0579318,11.8421053 Z" id="Shape"></path>
            <path d="M12.0579318,15.7894737 L11.6262788,15.7894737 C11.3820997,15.7894737 11.1842105,16.0839763 11.1842105,16.4473684 C11.1842105,16.8107605 11.3820997,17.1052632 11.6262788,17.1052632 L12.0579318,17.1052632 C12.3021108,17.1052632 12.5,16.8107605 12.5,16.4473684 C12.5,16.0839763 12.3021108,15.7894737 12.0579318,15.7894737 Z" id="Shape"></path>
            <path d="M12.0579318,20.3947368 L11.6262788,20.3947368 C11.3820997,20.3947368 11.1842105,20.6892395 11.1842105,21.0526316 C11.1842105,21.4160237 11.3820997,21.7105263 11.6262788,21.7105263 L12.0579318,21.7105263 C12.3021108,21.7105263 12.5,21.4160237 12.5,21.0526316 C12.5,20.68967 12.3021108,20.3947368 12.0579318,20.3947368 Z" id="Shape"></path>
            <path d="M17.5473316,13.1578947 L17.9789845,13.1578947 C18.2231635,13.1578947 18.4210526,12.8633921 18.4210526,12.5 C18.4210526,12.1366079 18.2231635,11.8421053 17.9789845,11.8421053 L17.5473316,11.8421053 C17.3031526,11.8421053 17.1052635,12.1366079 17.1052635,12.5 C17.1049742,12.8633921 17.3031526,13.1578947 17.5473316,13.1578947 Z" id="Shape"></path>
            <path d="M17.5473316,17.1052632 L17.9789845,17.1052632 C18.2231635,17.1052632 18.4210526,16.8107605 18.4210526,16.4473684 C18.4210526,16.0839763 18.2231635,15.7894737 17.9789845,15.7894737 L17.5473316,15.7894737 C17.3031526,15.7894737 17.1052635,16.0839763 17.1052635,16.4473684 C17.1049742,16.8107605 17.3031526,17.1052632 17.5473316,17.1052632 Z" id="Shape"></path>
            <path d="M21.3799446,1.83710123 L21.3799446,0.879324849 C21.3799446,0.394594522 20.9768004,0 20.4815674,0 L19.7387179,0 C19.2434849,0 18.8403407,0.394594522 18.8403407,0.879324849 L18.8403407,1.81807256 L13.0520494,1.81807256 L13.0520494,0.879324849 C13.0520494,0.394594522 12.6489052,0 12.1536723,0 L11.4104817,0 C10.9152487,0 10.5121045,0.394594522 10.5121045,0.879324849 L10.5121045,1.81807256 L4.7241543,1.81807256 L4.7241543,0.879324849 C4.7241543,0.394594522 4.3210101,0 3.82577711,0 L3.08292764,0 C2.58769466,0 2.18455045,0.394594522 2.18455045,0.879324849 L2.18455045,1.85412688 C0.936576977,2.05275949 0,3.10200702 0,4.37358954 L0,22.444483 C0,23.8536061 1.17123283,25 2.61088739,25 L21.0733231,25 C22.5129776,25 23.6842104,23.8532723 23.6842104,22.444483 L23.6842104,4.37358954 C23.6845515,3.06628654 22.6756678,1.98632606 21.3799446,1.83710123 Z M19.5224798,0.879324849 C19.5224798,0.76248214 19.6193436,0.667672627 19.7387179,0.667672627 L20.4815674,0.667672627 C20.6009417,0.667672627 20.6978055,0.76248214 20.6978055,0.879324849 L20.6978055,3.4244929 C20.6978055,3.54133561 20.6009417,3.63614513 20.4815674,3.63614513 L19.7387179,3.63614513 C19.6193436,3.63614513 19.5224798,3.54133561 19.5224798,3.4244929 L19.5224798,0.879324849 Z M11.1945847,0.879324849 C11.1945847,0.76248214 11.2914484,0.667672627 11.4108228,0.667672627 L12.1540133,0.667672627 C12.2733877,0.667672627 12.3702514,0.76248214 12.3702514,0.879324849 L12.3702514,3.4244929 C12.3702514,3.54133561 12.2733877,3.63614513 12.1540133,3.63614513 L11.4108228,3.63614513 C11.2914484,3.63614513 11.1945847,3.54133561 11.1945847,3.4244929 L11.1945847,0.879324849 Z M2.86703062,0.879324849 C2.86703062,0.76248214 2.96389437,0.667672627 3.08326871,0.667672627 L3.82611818,0.667672627 C3.94549252,0.667672627 4.04235628,0.76248214 4.04235628,0.879324849 L4.04235628,3.4244929 C4.04235628,3.54133561 3.94549252,3.63614513 3.82611818,3.63614513 L3.08326871,3.63614513 C2.96389437,3.63614513 2.86703062,3.54133561 2.86703062,3.4244929 L2.86703062,0.879324849 Z M2.18489152,2.53381762 L2.18489152,3.42482674 C2.18489152,3.90955707 2.58803573,4.30415159 3.08326871,4.30415159 L3.82611818,4.30415159 C4.32135117,4.30415159 4.72449537,3.90955707 4.72449537,3.42482674 L4.72449537,2.48574519 L10.5127867,2.48574519 L10.5127867,3.42482674 C10.5127867,3.90955707 10.9159309,4.30415159 11.4111638,4.30415159 L12.1543544,4.30415159 C12.6495874,4.30415159 13.0527316,3.90955707 13.0527316,3.42482674 L13.0527316,2.48574519 L18.8410229,2.48574519 L18.8410229,3.42482674 C18.8410229,3.90955707 19.2441671,4.30415159 19.7394001,4.30415159 L20.4822495,4.30415159 C20.9774825,4.30415159 21.3806267,3.90955707 21.3806267,3.42482674 L21.3806267,2.51178442 C22.2987859,2.65633555 23.0030946,3.43484183 23.0030946,4.37358954 L23.0030946,7.62248454 L0.682139095,7.62248454 L0.682139095,4.37358954 C0.682139095,3.47256533 1.31891594,2.72276897 2.18489152,2.53381762 Z M21.0733231,24.3323274 L2.61122845,24.3323274 C1.54777361,24.3323274 0.682480164,23.4853846 0.682480164,22.444483 L0.682480164,8.29049101 L23.0024124,8.29049101 L23.0024124,22.444483 C23.0024124,23.4853846 22.137119,24.3323274 21.0733231,24.3323274 Z" id="Shape"></path>
        </g>
    </g>
</svg>