<?xml version="1.0" encoding="UTF-8"?>
<svg width="25px" height="25px" viewBox="0 0 25 25" version="1.1" xmlns="http://www.w3.org/2000/svg" xmlns:xlink="http://www.w3.org/1999/xlink">
    <!-- Generator: Sketch 50.2 (55047) - http://www.bohemiancoding.com/sketch -->
    <title>icone / menu / gestion des antennes / selected</title>
    <desc>Created with Sketch.</desc>
    <defs></defs>
    <g id="icone-/-menu-/-gestion-des-antennes-/-selected" stroke="none" stroke-width="1" fill="none" fill-rule="evenodd">
        <g id="antennes" fill="#00BFAC" fill-rule="nonzero" stroke="#00BFAC">
            <path d="M12.5,10.0363889 C11.1408333,10.0366667 10.0394444,11.1380556 10.0391667,12.4972222 C10.0394444,13.7188889 10.93,14.7294444 12.0969444,14.9222222 L12.0969444,24.5938889 C12.0969444,24.8166667 12.2775,24.9972222 12.5002778,24.9972222 C12.7230556,24.9972222 12.9036111,24.8166667 12.9036111,24.5938889 L12.9036111,14.9222222 C14.0705556,14.7294444 14.9611111,13.7188889 14.9613889,12.4972222 C14.9605556,11.1380556 13.8591667,10.0366667 12.5,10.0363889 Z M13.6697222,13.6672222 C13.3691667,13.9672222 12.9580556,14.1516667 12.5,14.1516667 C12.0419444,14.1513889 11.6308333,13.9672222 11.33,13.6672222 C11.03,13.3666667 10.8455556,12.9555556 10.8455556,12.4975 C10.8458333,12.0394444 11.03,11.6283333 11.33,11.3275 C11.6305556,11.0275 12.0416667,10.8430556 12.5,10.8430556 C12.9580556,10.8433333 13.3691667,11.0275 13.6697222,11.3275 C13.9697222,11.6280556 14.1541667,12.0391667 14.1541667,12.4975 C14.1541667,12.9555556 13.97,13.3663889 13.6697222,13.6672222 Z" id="Shape"></path>
            <path d="M12.5,0.00277777778 C5.59944444,0.00333333333 0.000555555556,5.60222222 0,12.5027778 C0,15.9516667 1.40027778,19.0872222 3.6675,21.3372222 C3.82555556,21.4941667 4.08083333,21.4930556 4.23777778,21.335 C4.39472222,21.1769444 4.39361111,20.9216667 4.23555556,20.7647222 C2.11583333,18.6602778 0.806666667,15.7313889 0.806388889,12.5027778 C0.806666667,9.27416667 2.11527778,6.35333333 4.2325,4.23555556 C6.35055556,2.11805556 9.27138889,0.809444444 12.5,0.809166667 C15.7286111,0.809444444 18.6494444,2.11805556 20.7672222,4.23527778 C22.8844444,6.35305556 24.1933333,9.27416667 24.1936111,12.5025 C24.1936111,15.7311111 22.8841667,18.66 20.7644444,20.7647222 C20.6063889,20.9216667 20.6055556,21.1769444 20.7622222,21.335 C20.9191667,21.4930556 21.1744444,21.4938889 21.3325,21.3372222 C23.5997222,19.0872222 25,15.9513889 25,12.5027778 C24.9994444,5.60222222 19.4005556,0.00305555556 12.5,0.00277777778 Z" id="Shape"></path>
            <path d="M12.5,5.16055556 C8.45138889,5.16111111 5.16694444,8.44555556 5.16638889,12.4941667 C5.16638889,14.5166667 5.98722222,16.3669444 7.325,17.6752778 C7.48416667,17.8311111 7.73944444,17.8280556 7.89527778,17.6688889 C8.05111111,17.5097222 8.04805556,17.2544444 7.88888889,17.0986111 C6.70416667,15.9397222 5.97277778,14.2969444 5.97277778,12.4941667 C5.97305556,10.6916667 6.70305556,9.06222222 7.88527778,7.87972222 C9.06805556,6.6975 10.6972222,5.9675 12.4997222,5.96722222 C14.3022222,5.9675 15.9316667,6.6975 17.1141667,7.87972222 C18.2963889,9.0625 19.0263889,10.6916667 19.0266667,12.4941667 C19.0266667,14.2969444 18.2952778,15.94 17.1102778,17.0986111 C16.9511111,17.2544444 16.9483333,17.5097222 17.1038889,17.6688889 C17.2597222,17.8280556 17.515,17.8308333 17.6741667,17.6752778 C19.0122222,16.3669444 19.8330556,14.5166667 19.8330556,12.4941667 C19.8330556,8.44555556 16.5486111,5.16111111 12.5,5.16055556 Z" id="Shape"></path>
        </g>
    </g>
</svg>