<?xml version="1.0" encoding="UTF-8"?>
<svg width="31px" height="25px" viewBox="0 0 31 25" version="1.1" xmlns="http://www.w3.org/2000/svg" xmlns:xlink="http://www.w3.org/1999/xlink">
    <!-- Generator: Sketch 50.2 (55047) - http://www.bohemiancoding.com/sketch -->
    <title>icone / menu / outils marketing / unselected</title>
    <desc>Created with Sketch.</desc>
    <defs></defs>
    <g id="icone-/-menu-/-outils-marketing-/-unselected" stroke="none" stroke-width="1" fill="none" fill-rule="evenodd">
        <g id="outils-marketing" fill="#4A4A4A" fill-rule="nonzero">
            <path d="M29.6875,0 L0.868055556,0 C0.485069444,0 0.173611111,0.311458333 0.173611111,0.694444444 L0.173611111,24.3055556 C0.173611111,24.6885417 0.485069444,25 0.868055556,25 L29.6875,25 C30.0704861,25 30.3819444,24.6885417 30.3819444,24.3055556 L30.3819444,0.694444444 C30.3819444,0.311458333 30.0704861,0 29.6875,0 Z M0.868055556,24.3055556 L0.868055556,0.694444444 L29.6875,0.694444444 L29.6881944,24.3055556 L0.868055556,24.3055556 Z" id="Shape"></path>
            <circle id="Oval" cx="2.69097222" cy="2.51736111" r="1"></circle>
            <circle id="Oval" cx="4.42708333" cy="2.51736111" r="1"></circle>
            <circle id="Oval" cx="6.16319444" cy="2.51736111" r="1"></circle>
            <rect id="Rectangle-path" x="2.25694444" y="4.34027778" width="26.0416667" height="1"></rect>
            <path d="M9.02777778,6.94444444 L4.16666667,6.94444444 C3.40069444,6.94444444 2.77777778,7.56736111 2.77777778,8.33333333 L2.77777778,13.1944444 C2.77777778,13.9604167 3.40069444,14.5833333 4.16666667,14.5833333 L9.02777778,14.5833333 C9.79375,14.5833333 10.4166667,13.9604167 10.4166667,13.1944444 L10.4166667,8.33333333 C10.4166667,7.56736111 9.79375,6.94444444 9.02777778,6.94444444 Z M9.72222222,13.1944444 C9.72222222,13.5774306 9.41076389,13.8888889 9.02777778,13.8888889 L4.16666667,13.8888889 C3.78368056,13.8888889 3.47222222,13.5774306 3.47222222,13.1944444 L3.47222222,8.33333333 C3.47222222,7.95034722 3.78368056,7.63888889 4.16666667,7.63888889 L9.02777778,7.63888889 C9.41076389,7.63888889 9.72222222,7.95034722 9.72222222,8.33333333 L9.72222222,13.1944444 Z" id="Shape"></path>
            <path d="M17.7083333,6.94444444 L12.8472222,6.94444444 C12.08125,6.94444444 11.4583333,7.56736111 11.4583333,8.33333333 L11.4583333,13.1944444 C11.4583333,13.9604167 12.08125,14.5833333 12.8472222,14.5833333 L17.7083333,14.5833333 C18.4743056,14.5833333 19.0972222,13.9604167 19.0972222,13.1944444 L19.0972222,8.33333333 C19.0972222,7.56736111 18.4743056,6.94444444 17.7083333,6.94444444 Z M18.4027778,13.1944444 C18.4027778,13.5774306 18.0913194,13.8888889 17.7083333,13.8888889 L12.8472222,13.8888889 C12.4642361,13.8888889 12.1527778,13.5774306 12.1527778,13.1944444 L12.1527778,8.33333333 C12.1527778,7.95034722 12.4642361,7.63888889 12.8472222,7.63888889 L17.7083333,7.63888889 C18.0913194,7.63888889 18.4027778,7.95034722 18.4027778,8.33333333 L18.4027778,13.1944444 Z" id="Shape"></path>
            <path d="M26.3888889,6.94444444 L21.5277778,6.94444444 C20.7618056,6.94444444 20.1388889,7.56736111 20.1388889,8.33333333 L20.1388889,13.1944444 C20.1388889,13.9604167 20.7618056,14.5833333 21.5277778,14.5833333 L26.3888889,14.5833333 C27.1548611,14.5833333 27.7777778,13.9604167 27.7777778,13.1944444 L27.7777778,8.33333333 C27.7777778,7.56736111 27.1548611,6.94444444 26.3888889,6.94444444 Z M27.0833333,13.1944444 C27.0833333,13.5774306 26.771875,13.8888889 26.3888889,13.8888889 L21.5277778,13.8888889 C21.1447917,13.8888889 20.8333333,13.5774306 20.8333333,13.1944444 L20.8333333,8.33333333 C20.8333333,7.95034722 21.1447917,7.63888889 21.5277778,7.63888889 L26.3888889,7.63888889 C26.771875,7.63888889 27.0833333,7.95034722 27.0833333,8.33333333 L27.0833333,13.1944444 Z" id="Shape"></path>
            <rect id="Rectangle-path" x="3.99305556" y="16.4930556" width="5.20833333" height="1"></rect>
            <rect id="Rectangle-path" x="3.99305556" y="18.2291667" width="5.20833333" height="1"></rect>
            <rect id="Rectangle-path" x="3.99305556" y="19.9652778" width="3.47222222" height="1"></rect>
            <rect id="Rectangle-path" x="12.6736111" y="16.4930556" width="5.20833333" height="1"></rect>
            <rect id="Rectangle-path" x="12.6736111" y="18.2291667" width="5.20833333" height="1"></rect>
            <rect id="Rectangle-path" x="12.6736111" y="19.9652778" width="3.47222222" height="1"></rect>
            <rect id="Rectangle-path" x="21.3541667" y="16.4930556" width="5.20833333" height="1"></rect>
            <rect id="Rectangle-path" x="21.3541667" y="18.2291667" width="5.20833333" height="1"></rect>
            <rect id="Rectangle-path" x="21.3541667" y="19.9652778" width="3.47222222" height="1"></rect>
        </g>
    </g>
</svg>