<?xml version="1.0" encoding="UTF-8"?>
<svg width="27px" height="25px" viewBox="0 0 27 25" version="1.1" xmlns="http://www.w3.org/2000/svg" xmlns:xlink="http://www.w3.org/1999/xlink">
    <!-- Generator: Sketch 50.2 (55047) - http://www.bohemiancoding.com/sketch -->
    <title>icone / menu / actu / selected</title>
    <desc>Created with Sketch.</desc>
    <defs></defs>
    <g id="icone-/-menu-/-actu-/-selected" stroke="none" stroke-width="1" fill="none" fill-rule="evenodd">
        <g id="actus" fill="#00BFAC" fill-rule="nonzero" stroke="#00BFAC">
            <path d="M6.89393939,0.375 C6.73484848,0.375 6.59848485,0.511363636 6.59848485,0.670454545 L6.59848485,2.51136364 L5.00757576,2.51136364 L5.00757576,2.48863636 C4.84848485,2.48863636 4.71212121,2.625 4.71212121,2.80681818 L4.71212121,4.14772727 L3.23484848,4.14772727 L3.23484848,4.17045455 C3.07575758,4.17045455 2.93939394,4.28409091 2.91666667,4.46590909 L2.91666667,6.10227273 L0.643939394,6.10227273 C0.484848485,6.10227273 0.348484848,6.23863636 0.348484848,6.42045455 L0.348484848,8.80681818 L0.348484848,10.9886364 L0.348484848,21.9204545 C0.348484848,22.8977273 0.871212121,23.7613636 1.66666667,24.2386364 C1.71212121,24.2613636 1.78030303,24.2840909 1.82575758,24.3068182 C1.84848485,24.3299242 1.89393939,24.3522727 1.91666667,24.3753788 C2.23484848,24.5113636 2.57575758,24.5799242 2.93939394,24.6026515 C2.96212121,24.6253788 2.98484848,24.6253788 3.00757576,24.6253788 L4.91666667,24.6253788 L4.93939394,24.6253788 L22.5984848,24.6253788 C24.5530303,24.6253788 26.1666667,23.0117424 26.1666667,21.057197 L26.1666667,0.670454545 C26.1666667,0.511363636 26.030303,0.375 25.8484848,0.375 L6.89393939,0.375 Z M7.18939394,0.988636364 L25.5530303,0.988636364 L25.5530303,21.0568182 C25.5530303,22.6931818 24.2352273,24.0117424 22.5984848,24.0117424 L5.50757576,24.0117424 C6.50757576,23.375 7.18939394,22.3299242 7.18939394,21.0568182 L7.18939394,2.98863636 C7.28030303,2.875 7.28030303,2.73863636 7.18939394,2.625 L7.18939394,0.988636364 Z M5.3030303,3.10227273 L6.59848485,3.10227273 L6.59848485,21.0568182 C6.59848485,22.4431818 5.64393939,23.6026515 4.34848485,23.9208333 C4.91666667,23.4208333 5.3030303,22.7162879 5.3030303,21.8981061 L5.3030303,3.10227273 Z M10.3257576,4.64772727 C10.1439394,4.64772727 10.0075758,4.78409091 10.0075758,4.94318182 L10.0075758,11.0795455 C10.0075758,11.2613636 10.1439394,11.3977273 10.3257576,11.3977273 L22.4166667,11.3977273 C22.5984848,11.3977273 22.7348485,11.2613636 22.7348485,11.0795455 L22.7348485,4.94318182 C22.7348485,4.78409091 22.5988636,4.64772727 22.4166667,4.64772727 L10.3257576,4.64772727 Z M3.53030303,4.76136364 L4.71212121,4.76136364 L4.71212121,21.8977273 C4.71212121,22.9431818 3.96212121,23.8068182 2.96212121,23.9659091 C2.93939394,23.9886364 2.91666667,23.9886364 2.89393939,23.9886364 C2.82575758,23.9886364 2.75757576,23.9886364 2.68939394,23.9659091 C3.21212121,23.5113636 3.53030303,22.8295455 3.53030303,22.0795455 L3.53030303,4.76136364 Z M10.6212121,5.23863636 L22.1212121,5.23863636 L22.1212121,10.7840909 L10.6212121,10.7840909 L10.6212121,5.23863636 Z M0.962121212,6.71590909 L2.91666667,6.71590909 L2.91666667,22.0795455 C2.91666667,22.7840909 2.5530303,23.3977273 2.00757576,23.7386364 C1.98484848,23.7159091 1.98484848,23.7159091 1.98484848,23.7159091 C1.37121212,23.3522727 0.962121212,22.6931818 0.962121212,21.9204545 L0.962121212,10.9886364 L0.962121212,8.80681818 L0.962121212,6.71590909 Z M10.3257576,15.2386364 C9.91666667,15.2386364 9.91666667,15.8522727 10.3257576,15.8522727 L22.4166667,15.8522727 C22.8488636,15.8522727 22.8488636,15.2386364 22.4166667,15.2386364 L10.3257576,15.2386364 Z M10.3257576,17.5340909 C9.91666667,17.5113636 9.91666667,18.1477273 10.3257576,18.1253788 L22.4166667,18.1253788 C22.8488636,18.1481061 22.8488636,17.5117424 22.4166667,17.5340909 L10.3257576,17.5340909 Z M10.3257576,20.2159091 C9.91666667,20.1931818 9.91666667,20.807197 10.3257576,20.807197 L22.4166667,20.807197 C22.8488636,20.807197 22.8488636,20.1935606 22.4166667,20.2159091 L10.3257576,20.2159091 Z" id="Shape"></path>
        </g>
    </g>
</svg>